<svg width="1165" height="227" viewBox="0 0 1165 227" fill="none" xmlns="http://www.w3.org/2000/svg">
<g clip-path="url(#clip0)">
<circle cx="51.3745" cy="136.07" r="51.3745" fill="#05FF00"/>
<circle cx="51.3745" cy="136.07" r="46.8745" stroke="black" stroke-opacity="0.75" stroke-width="9"/>
<rect x="47.105" y="136.07" width="55.6441" height="51.3745" fill="#05FF00"/>
<rect x="51.605" y="140.57" width="46.6441" height="42.3745" stroke="black" stroke-opacity="0.75" stroke-width="9"/>
<rect y="136.07" width="55.1278" height="51.3745" fill="#05FF00"/>
<rect x="4.5" y="140.57" width="46.1278" height="42.3745" stroke="black" stroke-opacity="0.75" stroke-width="9"/>
<rect x="26.7891" y="140.935" width="34.7694" height="34.7694" transform="rotate(-45 26.7891 140.935)" fill="#05FF00"/>
<rect x="31.7388" y="140.935" width="27.7694" height="27.7694" transform="rotate(-45 31.7388 140.935)" stroke="black" stroke-opacity="0.75" stroke-width="7"/>
<path d="M162.901 58.0684C159.202 57.0052 156.507 55.7025 154.815 54.1602C153.138 52.6029 152.299 50.6862 152.299 48.4102C152.299 45.8346 153.325 43.7083 155.376 42.0312C157.443 40.3392 160.123 39.4932 163.417 39.4932C165.664 39.4932 167.663 39.9274 169.415 40.7959C171.181 41.6644 172.544 42.8623 173.502 44.3896C174.476 45.917 174.962 47.5866 174.962 49.3984H170.627C170.627 47.4219 169.999 45.8721 168.741 44.749C167.483 43.611 165.708 43.042 163.417 43.042C161.291 43.042 159.629 43.5137 158.431 44.457C157.248 45.3854 156.657 46.6807 156.657 48.3428C156.657 49.6755 157.218 50.806 158.341 51.7344C159.479 52.6478 161.403 53.4863 164.114 54.25C166.839 55.0137 168.965 55.8597 170.493 56.7881C172.035 57.7015 173.173 58.7721 173.907 60C174.655 61.2279 175.03 62.6729 175.03 64.335C175.03 66.9854 173.997 69.1117 171.93 70.7139C169.864 72.3011 167.101 73.0947 163.642 73.0947C161.396 73.0947 159.3 72.668 157.353 71.8145C155.406 70.946 153.902 69.763 152.838 68.2656C151.79 66.7682 151.266 65.0687 151.266 63.167H155.601C155.601 65.1436 156.327 66.7083 157.78 67.8613C159.247 68.9993 161.201 69.5684 163.642 69.5684C165.918 69.5684 167.663 69.1042 168.875 68.1758C170.088 67.2474 170.695 65.9821 170.695 64.3799C170.695 62.7777 170.133 61.5423 169.01 60.6738C167.887 59.7904 165.851 58.9219 162.901 58.0684ZM184.441 72.6455H180.286V48.3428H184.441V72.6455ZM179.949 41.8965C179.949 41.2227 180.151 40.6536 180.555 40.1895C180.974 39.7253 181.588 39.4932 182.397 39.4932C183.206 39.4932 183.819 39.7253 184.239 40.1895C184.658 40.6536 184.868 41.2227 184.868 41.8965C184.868 42.5703 184.658 43.1318 184.239 43.5811C183.819 44.0303 183.206 44.2549 182.397 44.2549C181.588 44.2549 180.974 44.0303 180.555 43.5811C180.151 43.1318 179.949 42.5703 179.949 41.8965ZM196.75 42.458V48.3428H201.287V51.5547H196.75V66.626C196.75 67.5993 196.952 68.333 197.356 68.8271C197.76 69.3063 198.449 69.5459 199.422 69.5459C199.902 69.5459 200.56 69.4561 201.399 69.2764V72.6455C200.306 72.945 199.243 73.0947 198.209 73.0947C196.353 73.0947 194.953 72.5332 194.009 71.4102C193.066 70.2871 192.594 68.6924 192.594 66.626V51.5547H188.169V48.3428H192.594V42.458H196.75ZM216.246 73.0947C212.951 73.0947 210.271 72.0166 208.205 69.8604C206.138 67.6891 205.105 64.7917 205.105 61.168V60.4043C205.105 57.9935 205.562 55.8447 206.475 53.958C207.403 52.0563 208.691 50.5739 210.338 49.5107C212 48.4326 213.797 47.8936 215.729 47.8936C218.889 47.8936 221.344 48.9342 223.096 51.0156C224.848 53.097 225.724 56.0768 225.724 59.9551V61.6846H209.26C209.32 64.0804 210.016 66.0195 211.349 67.502C212.697 68.9694 214.404 69.7031 216.47 69.7031C217.938 69.7031 219.181 69.4036 220.199 68.8047C221.217 68.2057 222.108 67.4121 222.872 66.4238L225.41 68.4004C223.373 71.5299 220.319 73.0947 216.246 73.0947ZM215.729 51.3076C214.052 51.3076 212.644 51.9215 211.506 53.1494C210.368 54.3623 209.665 56.0693 209.395 58.2705H221.569V57.9561C221.449 55.8447 220.88 54.2126 219.862 53.0596C218.844 51.8916 217.466 51.3076 215.729 51.3076ZM231.384 75.4531H227.813L241.469 39.9424H245.018L231.384 75.4531ZM263.661 66.1992C263.661 65.0762 263.234 64.2077 262.38 63.5938C261.542 62.9648 260.067 62.4258 257.956 61.9766C255.859 61.5273 254.19 60.9883 252.947 60.3594C251.719 59.7305 250.806 58.9818 250.207 58.1133C249.623 57.2448 249.331 56.2116 249.331 55.0137C249.331 53.0221 250.169 51.3376 251.846 49.96C253.538 48.5824 255.694 47.8936 258.315 47.8936C261.07 47.8936 263.301 48.6048 265.008 50.0273C266.73 51.4499 267.591 53.2692 267.591 55.4854H263.414C263.414 54.3473 262.927 53.3665 261.954 52.543C260.995 51.7194 259.782 51.3076 258.315 51.3076C256.803 51.3076 255.62 51.637 254.766 52.2959C253.913 52.9548 253.486 53.8158 253.486 54.8789C253.486 55.8822 253.883 56.6383 254.676 57.1475C255.47 57.6566 256.9 58.1432 258.966 58.6074C261.048 59.0716 262.732 59.6257 264.02 60.2695C265.308 60.9134 266.259 61.6921 266.873 62.6055C267.501 63.5039 267.816 64.6045 267.816 65.9072C267.816 68.0785 266.947 69.8229 265.21 71.1406C263.473 72.4434 261.22 73.0947 258.45 73.0947C256.503 73.0947 254.781 72.7503 253.284 72.0615C251.786 71.3727 250.611 70.4144 249.757 69.1865C248.919 67.9437 248.5 66.6035 248.5 65.166H252.655C252.73 66.5586 253.284 67.6667 254.317 68.4902C255.365 69.2988 256.743 69.7031 258.45 69.7031C260.022 69.7031 261.28 69.3887 262.223 68.7598C263.181 68.1159 263.661 67.2624 263.661 66.1992ZM283.314 73.0947C280.02 73.0947 277.339 72.0166 275.273 69.8604C273.207 67.6891 272.173 64.7917 272.173 61.168V60.4043C272.173 57.9935 272.63 55.8447 273.543 53.958C274.472 52.0563 275.76 50.5739 277.407 49.5107C279.069 48.4326 280.866 47.8936 282.797 47.8936C285.957 47.8936 288.413 48.9342 290.165 51.0156C291.917 53.097 292.792 56.0768 292.792 59.9551V61.6846H276.329C276.389 64.0804 277.085 66.0195 278.417 67.502C279.765 68.9694 281.472 69.7031 283.539 69.7031C285.006 69.7031 286.249 69.4036 287.267 68.8047C288.285 68.2057 289.176 67.4121 289.94 66.4238L292.478 68.4004C290.442 71.5299 287.387 73.0947 283.314 73.0947ZM282.797 51.3076C281.12 51.3076 279.713 51.9215 278.575 53.1494C277.437 54.3623 276.733 56.0693 276.463 58.2705H288.637V57.9561C288.517 55.8447 287.948 54.2126 286.93 53.0596C285.912 51.8916 284.534 51.3076 282.797 51.3076ZM309.369 52.0713C308.74 51.9665 308.058 51.9141 307.325 51.9141C304.599 51.9141 302.75 53.0745 301.777 55.3955V72.6455H297.622V48.3428H301.665L301.732 51.1504C303.095 48.9792 305.026 47.8936 307.527 47.8936C308.335 47.8936 308.949 47.9984 309.369 48.208V52.0713ZM321.632 67.0078L327.652 48.3428H331.897L323.182 72.6455H320.015L311.21 48.3428H315.456L321.632 67.0078ZM340.41 72.6455H336.254V48.3428H340.41V72.6455ZM335.917 41.8965C335.917 41.2227 336.12 40.6536 336.524 40.1895C336.943 39.7253 337.557 39.4932 338.366 39.4932C339.174 39.4932 339.788 39.7253 340.208 40.1895C340.627 40.6536 340.836 41.2227 340.836 41.8965C340.836 42.5703 340.627 43.1318 340.208 43.5811C339.788 44.0303 339.174 44.2549 338.366 44.2549C337.557 44.2549 336.943 44.0303 336.524 43.5811C336.12 43.1318 335.917 42.5703 335.917 41.8965ZM356.829 69.7031C358.311 69.7031 359.606 69.2539 360.714 68.3555C361.822 67.457 362.436 66.334 362.556 64.9863H366.487C366.412 66.3789 365.933 67.7041 365.049 68.9619C364.166 70.2197 362.983 71.223 361.5 71.9717C360.033 72.7204 358.476 73.0947 356.829 73.0947C353.519 73.0947 350.884 71.9941 348.922 69.793C346.976 67.5768 346.002 64.5521 346.002 60.7188V60.0225C346.002 57.6566 346.437 55.5527 347.305 53.7109C348.174 51.8691 349.417 50.4391 351.034 49.4209C352.666 48.4027 354.59 47.8936 356.806 47.8936C359.531 47.8936 361.792 48.7096 363.589 50.3418C365.401 51.974 366.367 54.0928 366.487 56.6982H362.556C362.436 55.126 361.837 53.8382 360.759 52.835C359.696 51.8167 358.378 51.3076 356.806 51.3076C354.695 51.3076 353.055 52.0713 351.887 53.5986C350.734 55.111 350.158 57.3047 350.158 60.1797V60.9658C350.158 63.766 350.734 65.9222 351.887 67.4346C353.04 68.9469 354.687 69.7031 356.829 69.7031ZM381.244 73.0947C377.949 73.0947 375.269 72.0166 373.203 69.8604C371.136 67.6891 370.103 64.7917 370.103 61.168V60.4043C370.103 57.9935 370.56 55.8447 371.473 53.958C372.402 52.0563 373.689 50.5739 375.336 49.5107C376.999 48.4326 378.795 47.8936 380.727 47.8936C383.887 47.8936 386.342 48.9342 388.094 51.0156C389.846 53.097 390.722 56.0768 390.722 59.9551V61.6846H374.258C374.318 64.0804 375.014 66.0195 376.347 67.502C377.695 68.9694 379.402 69.7031 381.468 69.7031C382.936 69.7031 384.179 69.4036 385.197 68.8047C386.215 68.2057 387.106 67.4121 387.87 66.4238L390.408 68.4004C388.371 71.5299 385.317 73.0947 381.244 73.0947ZM380.727 51.3076C379.05 51.3076 377.642 51.9215 376.504 53.1494C375.366 54.3623 374.663 56.0693 374.393 58.2705H386.567V57.9561C386.447 55.8447 385.878 54.2126 384.86 53.0596C383.842 51.8916 382.464 51.3076 380.727 51.3076Z" fill="white"/>
<path d="M157.6 140.703H173.098V144.229H153.265V111.526H157.6V140.703ZM192.37 144.229C192.13 143.75 191.935 142.897 191.786 141.669C189.854 143.675 187.548 144.679 184.868 144.679C182.472 144.679 180.503 144.005 178.96 142.657C177.433 141.295 176.669 139.573 176.669 137.491C176.669 134.961 177.628 132.999 179.544 131.606C181.476 130.199 184.186 129.495 187.675 129.495H191.718V127.586C191.718 126.133 191.284 124.98 190.416 124.127C189.547 123.258 188.267 122.824 186.575 122.824C185.092 122.824 183.849 123.199 182.846 123.947C181.843 124.696 181.341 125.602 181.341 126.665H177.164C177.164 125.452 177.59 124.284 178.444 123.161C179.312 122.023 180.48 121.125 181.948 120.466C183.43 119.807 185.055 119.478 186.822 119.478C189.622 119.478 191.816 120.181 193.403 121.589C194.99 122.981 195.814 124.906 195.874 127.361V138.547C195.874 140.778 196.158 142.552 196.727 143.87V144.229H192.37ZM185.474 141.062C186.777 141.062 188.012 140.726 189.18 140.052C190.348 139.378 191.194 138.502 191.718 137.424V132.438H188.461C183.37 132.438 180.825 133.927 180.825 136.907C180.825 138.21 181.259 139.228 182.127 139.962C182.996 140.696 184.111 141.062 185.474 141.062ZM216.538 137.783C216.538 136.66 216.111 135.792 215.257 135.178C214.419 134.549 212.944 134.01 210.833 133.561C208.736 133.111 207.067 132.572 205.824 131.943C204.596 131.314 203.682 130.566 203.083 129.697C202.5 128.829 202.208 127.796 202.208 126.598C202.208 124.606 203.046 122.922 204.723 121.544C206.415 120.166 208.571 119.478 211.192 119.478C213.947 119.478 216.178 120.189 217.885 121.611C219.607 123.034 220.468 124.853 220.468 127.069H216.291C216.291 125.931 215.804 124.951 214.831 124.127C213.872 123.303 212.659 122.892 211.192 122.892C209.68 122.892 208.497 123.221 207.643 123.88C206.79 124.539 206.363 125.4 206.363 126.463C206.363 127.466 206.76 128.222 207.553 128.731C208.347 129.241 209.777 129.727 211.843 130.191C213.925 130.656 215.609 131.21 216.897 131.854C218.185 132.497 219.136 133.276 219.75 134.189C220.378 135.088 220.693 136.188 220.693 137.491C220.693 139.662 219.824 141.407 218.087 142.725C216.35 144.027 214.097 144.679 211.327 144.679C209.38 144.679 207.658 144.334 206.161 143.646C204.663 142.957 203.488 141.998 202.634 140.771C201.796 139.528 201.376 138.188 201.376 136.75H205.532C205.607 138.143 206.161 139.251 207.194 140.074C208.242 140.883 209.62 141.287 211.327 141.287C212.899 141.287 214.157 140.973 215.1 140.344C216.058 139.7 216.538 138.846 216.538 137.783ZM231.744 114.042V119.927H236.281V123.139H231.744V138.21C231.744 139.183 231.946 139.917 232.35 140.411C232.754 140.89 233.443 141.13 234.417 141.13C234.896 141.13 235.555 141.04 236.393 140.86V144.229C235.3 144.529 234.237 144.679 233.204 144.679C231.347 144.679 229.947 144.117 229.003 142.994C228.06 141.871 227.588 140.276 227.588 138.21V123.139H223.164V119.927H227.588V114.042H231.744ZM266.917 111.526H271.252V134.684C271.252 137.813 270.309 140.261 268.422 142.028C266.551 143.795 264.05 144.679 260.92 144.679C257.671 144.679 255.14 143.848 253.329 142.186C251.517 140.523 250.611 138.195 250.611 135.2H254.923C254.923 137.072 255.432 138.532 256.451 139.58C257.484 140.628 258.974 141.152 260.92 141.152C262.702 141.152 264.14 140.591 265.233 139.468C266.341 138.345 266.903 136.772 266.917 134.751V111.526ZM288.031 144.679C284.736 144.679 282.056 143.601 279.99 141.444C277.923 139.273 276.89 136.376 276.89 132.752V131.988C276.89 129.577 277.347 127.429 278.26 125.542C279.189 123.64 280.476 122.158 282.124 121.095C283.786 120.017 285.583 119.478 287.514 119.478C290.674 119.478 293.129 120.518 294.881 122.6C296.633 124.681 297.509 127.661 297.509 131.539V133.269H281.045C281.105 135.664 281.802 137.604 283.134 139.086C284.482 140.553 286.189 141.287 288.255 141.287C289.723 141.287 290.966 140.988 291.984 140.389C293.002 139.79 293.893 138.996 294.657 138.008L297.195 139.984C295.158 143.114 292.104 144.679 288.031 144.679ZM287.514 122.892C285.837 122.892 284.43 123.506 283.292 124.733C282.153 125.946 281.45 127.653 281.18 129.854H293.354V129.54C293.234 127.429 292.665 125.797 291.647 124.644C290.629 123.476 289.251 122.892 287.514 122.892ZM306.269 119.927L306.404 122.981C308.261 120.646 310.686 119.478 313.681 119.478C318.817 119.478 321.408 122.375 321.453 128.17V144.229H317.297V128.147C317.282 126.396 316.878 125.1 316.084 124.262C315.306 123.423 314.085 123.004 312.423 123.004C311.076 123.004 309.893 123.363 308.875 124.082C307.856 124.801 307.063 125.744 306.494 126.912V144.229H302.338V119.927H306.269ZM334.502 132.977L331.897 135.694V144.229H327.742V109.729H331.897V130.596L334.121 127.923L341.69 119.927H346.744L337.288 130.079L347.844 144.229H342.97L334.502 132.977ZM355.548 144.229H351.393V119.927H355.548V144.229ZM351.056 113.48C351.056 112.807 351.258 112.238 351.663 111.773C352.082 111.309 352.696 111.077 353.504 111.077C354.313 111.077 354.927 111.309 355.346 111.773C355.765 112.238 355.975 112.807 355.975 113.48C355.975 114.154 355.765 114.716 355.346 115.165C354.927 115.614 354.313 115.839 353.504 115.839C352.696 115.839 352.082 115.614 351.663 115.165C351.258 114.716 351.056 114.154 351.056 113.48ZM366.15 119.927L366.285 122.981C368.141 120.646 370.567 119.478 373.562 119.478C378.698 119.478 381.289 122.375 381.333 128.17V144.229H377.178V128.147C377.163 126.396 376.759 125.1 375.965 124.262C375.187 123.423 373.966 123.004 372.304 123.004C370.957 123.004 369.774 123.363 368.755 124.082C367.737 124.801 366.944 125.744 366.375 126.912V144.229H362.219V119.927H366.15ZM401.75 137.783C401.75 136.66 401.324 135.792 400.47 135.178C399.632 134.549 398.157 134.01 396.045 133.561C393.949 133.111 392.279 132.572 391.037 131.943C389.809 131.314 388.895 130.566 388.296 129.697C387.712 128.829 387.42 127.796 387.42 126.598C387.42 124.606 388.259 122.922 389.936 121.544C391.628 120.166 393.784 119.478 396.405 119.478C399.16 119.478 401.391 120.189 403.098 121.611C404.82 123.034 405.681 124.853 405.681 127.069H401.503C401.503 125.931 401.017 124.951 400.043 124.127C399.085 123.303 397.872 122.892 396.405 122.892C394.892 122.892 393.709 123.221 392.856 123.88C392.002 124.539 391.576 125.4 391.576 126.463C391.576 127.466 391.972 128.222 392.766 128.731C393.56 129.241 394.99 129.727 397.056 130.191C399.138 130.656 400.822 131.21 402.11 131.854C403.398 132.497 404.348 133.276 404.962 134.189C405.591 135.088 405.906 136.188 405.906 137.491C405.906 139.662 405.037 141.407 403.3 142.725C401.563 144.027 399.31 144.679 396.54 144.679C394.593 144.679 392.871 144.334 391.374 143.646C389.876 142.957 388.701 141.998 387.847 140.771C387.009 139.528 386.589 138.188 386.589 136.75H390.745C390.819 138.143 391.374 139.251 392.407 140.074C393.455 140.883 394.833 141.287 396.54 141.287C398.112 141.287 399.37 140.973 400.313 140.344C401.271 139.7 401.75 138.846 401.75 137.783ZM443.303 132.348C443.303 136.061 442.45 139.049 440.743 141.31C439.036 143.556 436.745 144.679 433.87 144.679C430.8 144.679 428.427 143.593 426.75 141.422L426.547 144.229H422.729V109.729H426.884V122.6C428.561 120.518 430.875 119.478 433.825 119.478C436.775 119.478 439.088 120.593 440.765 122.824C442.457 125.055 443.303 128.11 443.303 131.988V132.348ZM439.148 131.876C439.148 129.046 438.601 126.86 437.508 125.317C436.415 123.775 434.843 123.004 432.792 123.004C430.051 123.004 428.082 124.277 426.884 126.822V137.334C428.157 139.88 430.141 141.152 432.836 141.152C434.828 141.152 436.378 140.381 437.486 138.839C438.594 137.297 439.148 134.976 439.148 131.876ZM463.563 141.826C461.946 143.728 459.572 144.679 456.443 144.679C453.852 144.679 451.876 143.93 450.513 142.433C449.166 140.92 448.484 138.689 448.469 135.739V119.927H452.625V135.627C452.625 139.311 454.122 141.152 457.117 141.152C460.291 141.152 462.403 139.969 463.451 137.604V119.927H467.606V144.229H463.653L463.563 141.826ZM478.455 144.229H474.299V119.927H478.455V144.229ZM473.962 113.48C473.962 112.807 474.165 112.238 474.569 111.773C474.988 111.309 475.602 111.077 476.411 111.077C477.219 111.077 477.833 111.309 478.252 111.773C478.672 112.238 478.881 112.807 478.881 113.48C478.881 114.154 478.672 114.716 478.252 115.165C477.833 115.614 477.219 115.839 476.411 115.839C475.602 115.839 474.988 115.614 474.569 115.165C474.165 114.716 473.962 114.154 473.962 113.48ZM489.64 144.229H485.485V109.729H489.64V144.229ZM495.3 131.876C495.3 128.147 496.184 125.153 497.951 122.892C499.718 120.616 502.031 119.478 504.891 119.478C507.736 119.478 509.99 120.451 511.652 122.397V109.729H515.807V144.229H511.989L511.787 141.624C510.125 143.66 507.811 144.679 504.846 144.679C502.031 144.679 499.733 143.526 497.951 141.22C496.184 138.914 495.3 135.904 495.3 132.19V131.876ZM499.456 132.348C499.456 135.103 500.025 137.259 501.163 138.816C502.301 140.374 503.873 141.152 505.879 141.152C508.515 141.152 510.439 139.969 511.652 137.604V126.44C510.409 124.149 508.5 123.004 505.924 123.004C503.888 123.004 502.301 123.79 501.163 125.362C500.025 126.935 499.456 129.263 499.456 132.348ZM533.529 130.955C533.529 127.571 533.978 124.322 534.876 121.207C535.79 118.092 537.145 115.262 538.942 112.717C540.739 110.171 542.603 108.374 544.535 107.326L545.388 110.066C543.202 111.743 541.405 114.304 539.998 117.748C538.605 121.192 537.841 125.048 537.707 129.315L537.684 131.225C537.684 137.005 538.74 142.021 540.851 146.273C542.124 148.819 543.636 150.811 545.388 152.248L544.535 154.786C542.543 153.678 540.641 151.821 538.83 149.216C535.296 144.125 533.529 138.038 533.529 130.955ZM553.923 144.229H549.768V119.927H553.923V144.229ZM549.431 113.48C549.431 112.807 549.633 112.238 550.038 111.773C550.457 111.309 551.071 111.077 551.879 111.077C552.688 111.077 553.302 111.309 553.721 111.773C554.14 112.238 554.35 112.807 554.35 113.48C554.35 114.154 554.14 114.716 553.721 115.165C553.302 115.614 552.688 115.839 551.879 115.839C551.071 115.839 550.457 115.614 550.038 115.165C549.633 114.716 549.431 114.154 549.431 113.48ZM562.638 144.229V123.139H558.797V119.927H562.638V117.434C562.638 114.828 563.334 112.814 564.727 111.392C566.12 109.969 568.089 109.258 570.634 109.258C571.593 109.258 572.543 109.385 573.487 109.64L573.262 113.009C572.558 112.874 571.81 112.807 571.016 112.807C569.668 112.807 568.628 113.203 567.894 113.997C567.16 114.776 566.793 115.899 566.793 117.366V119.927H571.982V123.139H566.793V144.229H562.638ZM603 144.229C602.761 143.75 602.566 142.897 602.417 141.669C600.485 143.675 598.179 144.679 595.499 144.679C593.103 144.679 591.134 144.005 589.591 142.657C588.064 141.295 587.3 139.573 587.3 137.491C587.3 134.961 588.259 132.999 590.175 131.606C592.107 130.199 594.817 129.495 598.306 129.495H602.349V127.586C602.349 126.133 601.915 124.98 601.046 124.127C600.178 123.258 598.898 122.824 597.206 122.824C595.723 122.824 594.48 123.199 593.477 123.947C592.474 124.696 591.972 125.602 591.972 126.665H587.794C587.794 125.452 588.221 124.284 589.075 123.161C589.943 122.023 591.111 121.125 592.579 120.466C594.061 119.807 595.686 119.478 597.453 119.478C600.253 119.478 602.446 120.181 604.034 121.589C605.621 122.981 606.444 124.906 606.504 127.361V138.547C606.504 140.778 606.789 142.552 607.358 143.87V144.229H603ZM596.105 141.062C597.408 141.062 598.643 140.726 599.811 140.052C600.979 139.378 601.825 138.502 602.349 137.424V132.438H599.092C594.001 132.438 591.456 133.927 591.456 136.907C591.456 138.21 591.89 139.228 592.758 139.962C593.627 140.696 594.742 141.062 596.105 141.062ZM633.547 132.348C633.547 136.046 632.701 139.026 631.009 141.287C629.317 143.548 627.026 144.679 624.136 144.679C621.186 144.679 618.865 143.743 617.173 141.871V153.573H613.018V119.927H616.814L617.016 122.622C618.708 120.526 621.059 119.478 624.069 119.478C626.989 119.478 629.295 120.578 630.987 122.779C632.694 124.98 633.547 128.043 633.547 131.966V132.348ZM629.392 131.876C629.392 129.136 628.808 126.972 627.64 125.385C626.472 123.798 624.87 123.004 622.833 123.004C620.318 123.004 618.431 124.119 617.173 126.351V137.963C618.416 140.179 620.318 141.287 622.878 141.287C624.87 141.287 626.45 140.501 627.618 138.929C628.801 137.341 629.392 134.991 629.392 131.876ZM659.377 132.348C659.377 136.046 658.531 139.026 656.839 141.287C655.147 143.548 652.856 144.679 649.966 144.679C647.016 144.679 644.695 143.743 643.003 141.871V153.573H638.848V119.927H642.644L642.846 122.622C644.538 120.526 646.889 119.478 649.899 119.478C652.819 119.478 655.125 120.578 656.817 122.779C658.524 124.98 659.377 128.043 659.377 131.966V132.348ZM655.222 131.876C655.222 129.136 654.638 126.972 653.47 125.385C652.302 123.798 650.7 123.004 648.664 123.004C646.148 123.004 644.261 124.119 643.003 126.351V137.963C644.246 140.179 646.148 141.287 648.708 141.287C650.7 141.287 652.28 140.501 653.448 138.929C654.631 137.341 655.222 134.991 655.222 131.876ZM669.193 144.229H665.038V109.729H669.193V144.229ZM680.378 144.229H676.223V119.927H680.378V144.229ZM675.886 113.48C675.886 112.807 676.088 112.238 676.493 111.773C676.912 111.309 677.526 111.077 678.334 111.077C679.143 111.077 679.757 111.309 680.176 111.773C680.596 112.238 680.805 112.807 680.805 113.48C680.805 114.154 680.596 114.716 680.176 115.165C679.757 115.614 679.143 115.839 678.334 115.839C677.526 115.839 676.912 115.614 676.493 115.165C676.088 114.716 675.886 114.154 675.886 113.48ZM696.797 141.287C698.28 141.287 699.575 140.838 700.683 139.939C701.791 139.041 702.405 137.918 702.525 136.57H706.456C706.381 137.963 705.902 139.288 705.018 140.546C704.135 141.804 702.952 142.807 701.469 143.556C700.002 144.304 698.444 144.679 696.797 144.679C693.488 144.679 690.853 143.578 688.891 141.377C686.944 139.161 685.971 136.136 685.971 132.303V131.606C685.971 129.241 686.405 127.137 687.274 125.295C688.142 123.453 689.385 122.023 691.002 121.005C692.635 119.987 694.559 119.478 696.775 119.478C699.5 119.478 701.761 120.294 703.558 121.926C705.37 123.558 706.336 125.677 706.456 128.282H702.525C702.405 126.71 701.806 125.422 700.728 124.419C699.665 123.401 698.347 122.892 696.775 122.892C694.664 122.892 693.024 123.655 691.856 125.183C690.703 126.695 690.126 128.889 690.126 131.764V132.55C690.126 135.35 690.703 137.506 691.856 139.019C693.009 140.531 694.656 141.287 696.797 141.287ZM726.131 144.229C725.892 143.75 725.697 142.897 725.547 141.669C723.616 143.675 721.31 144.679 718.629 144.679C716.234 144.679 714.264 144.005 712.722 142.657C711.195 141.295 710.431 139.573 710.431 137.491C710.431 134.961 711.389 132.999 713.306 131.606C715.238 130.199 717.948 129.495 721.437 129.495H725.48V127.586C725.48 126.133 725.046 124.98 724.177 124.127C723.309 123.258 722.028 122.824 720.336 122.824C718.854 122.824 717.611 123.199 716.608 123.947C715.605 124.696 715.103 125.602 715.103 126.665H710.925C710.925 125.452 711.352 124.284 712.206 123.161C713.074 122.023 714.242 121.125 715.709 120.466C717.192 119.807 718.817 119.478 720.583 119.478C723.384 119.478 725.577 120.181 727.165 121.589C728.752 122.981 729.575 124.906 729.635 127.361V138.547C729.635 140.778 729.92 142.552 730.489 143.87V144.229H726.131ZM719.236 141.062C720.539 141.062 721.774 140.726 722.942 140.052C724.11 139.378 724.956 138.502 725.48 137.424V132.438H722.223C717.132 132.438 714.586 133.927 714.586 136.907C714.586 138.21 715.021 139.228 715.889 139.962C716.758 140.696 717.873 141.062 719.236 141.062ZM756.723 132.348C756.723 136.061 755.87 139.049 754.163 141.31C752.456 143.556 750.165 144.679 747.29 144.679C744.22 144.679 741.847 143.593 740.169 141.422L739.967 144.229H736.149V109.729H740.304V122.6C741.981 120.518 744.295 119.478 747.245 119.478C750.194 119.478 752.508 120.593 754.185 122.824C755.877 125.055 756.723 128.11 756.723 131.988V132.348ZM752.568 131.876C752.568 129.046 752.021 126.86 750.928 125.317C749.835 123.775 748.263 123.004 746.211 123.004C743.471 123.004 741.502 124.277 740.304 126.822V137.334C741.577 139.88 743.561 141.152 746.256 141.152C748.248 141.152 749.798 140.381 750.906 138.839C752.014 137.297 752.568 134.976 752.568 131.876ZM766.494 144.229H762.338V109.729H766.494V144.229ZM783.25 144.679C779.955 144.679 777.275 143.601 775.208 141.444C773.142 139.273 772.109 136.376 772.109 132.752V131.988C772.109 129.577 772.566 127.429 773.479 125.542C774.407 123.64 775.695 122.158 777.342 121.095C779.004 120.017 780.801 119.478 782.733 119.478C785.892 119.478 788.348 120.518 790.1 122.6C791.852 124.681 792.728 127.661 792.728 131.539V133.269H776.264C776.324 135.664 777.02 137.604 778.353 139.086C779.701 140.553 781.408 141.287 783.474 141.287C784.942 141.287 786.184 140.988 787.203 140.389C788.221 139.79 789.112 138.996 789.875 138.008L792.414 139.984C790.377 143.114 787.322 144.679 783.25 144.679ZM782.733 122.892C781.056 122.892 779.648 123.506 778.51 124.733C777.372 125.946 776.668 127.653 776.399 129.854H788.573V129.54C788.453 127.429 787.884 125.797 786.866 124.644C785.847 123.476 784.47 122.892 782.733 122.892ZM807.148 131.18C807.148 134.519 806.706 137.723 805.823 140.793C804.954 143.848 803.614 146.67 801.802 149.261C800.005 151.851 798.119 153.693 796.142 154.786L795.266 152.248C797.572 150.481 799.421 147.741 800.814 144.027C802.222 140.299 802.94 136.166 802.97 131.629V130.91C802.97 127.766 802.641 124.846 801.982 122.15C801.323 119.44 800.402 117.014 799.219 114.873C798.051 112.732 796.734 111.062 795.266 109.864L796.142 107.326C798.119 108.419 799.998 110.246 801.78 112.807C803.577 115.367 804.917 118.19 805.8 121.274C806.699 124.359 807.148 127.661 807.148 131.18Z" fill="white"/>
<path d="M162.901 201.237C159.202 200.173 156.507 198.871 154.815 197.328C153.138 195.771 152.299 193.854 152.299 191.578C152.299 189.003 153.325 186.877 155.376 185.199C157.443 183.507 160.123 182.661 163.417 182.661C165.664 182.661 167.663 183.096 169.415 183.964C171.181 184.833 172.544 186.031 173.502 187.558C174.476 189.085 174.962 190.755 174.962 192.567H170.627C170.627 190.59 169.999 189.04 168.741 187.917C167.483 186.779 165.708 186.21 163.417 186.21C161.291 186.21 159.629 186.682 158.431 187.625C157.248 188.554 156.657 189.849 156.657 191.511C156.657 192.844 157.218 193.974 158.341 194.903C159.479 195.816 161.403 196.655 164.114 197.418C166.839 198.182 168.965 199.028 170.493 199.956C172.035 200.87 173.173 201.94 173.907 203.168C174.655 204.396 175.03 205.841 175.03 207.503C175.03 210.154 173.997 212.28 171.93 213.882C169.864 215.469 167.101 216.263 163.642 216.263C161.396 216.263 159.3 215.836 157.353 214.983C155.406 214.114 153.902 212.931 152.838 211.434C151.79 209.936 151.266 208.237 151.266 206.335H155.601C155.601 208.312 156.327 209.877 157.78 211.03C159.247 212.168 161.201 212.737 163.642 212.737C165.918 212.737 167.663 212.272 168.875 211.344C170.088 210.416 170.695 209.15 170.695 207.548C170.695 205.946 170.133 204.711 169.01 203.842C167.887 202.959 165.851 202.09 162.901 201.237ZM190.011 216.263C186.717 216.263 184.037 215.185 181.97 213.029C179.904 210.857 178.871 207.96 178.871 204.336V203.573C178.871 201.162 179.327 199.013 180.241 197.126C181.169 195.225 182.457 193.742 184.104 192.679C185.766 191.601 187.563 191.062 189.495 191.062C192.654 191.062 195.11 192.102 196.862 194.184C198.614 196.265 199.49 199.245 199.49 203.123V204.853H183.026C183.086 207.249 183.782 209.188 185.115 210.67C186.462 212.138 188.169 212.871 190.236 212.871C191.703 212.871 192.946 212.572 193.964 211.973C194.983 211.374 195.874 210.58 196.637 209.592L199.175 211.569C197.139 214.698 194.084 216.263 190.011 216.263ZM189.495 194.476C187.818 194.476 186.41 195.09 185.272 196.318C184.134 197.531 183.43 199.238 183.161 201.439H195.334V201.124C195.215 199.013 194.646 197.381 193.627 196.228C192.609 195.06 191.232 194.476 189.495 194.476ZM216.066 195.24C215.437 195.135 214.756 195.082 214.022 195.082C211.297 195.082 209.447 196.243 208.474 198.564V215.814H204.319V191.511H208.362L208.429 194.319C209.792 192.147 211.723 191.062 214.224 191.062C215.033 191.062 215.647 191.167 216.066 191.376V195.24ZM228.33 210.176L234.349 191.511H238.594L229.879 215.814H226.712L217.908 191.511H222.153L228.33 210.176ZM252.363 216.263C249.069 216.263 246.388 215.185 244.322 213.029C242.255 210.857 241.222 207.96 241.222 204.336V203.573C241.222 201.162 241.679 199.013 242.592 197.126C243.521 195.225 244.808 193.742 246.456 192.679C248.118 191.601 249.915 191.062 251.846 191.062C255.006 191.062 257.461 192.102 259.213 194.184C260.965 196.265 261.841 199.245 261.841 203.123V204.853H245.377C245.437 207.249 246.134 209.188 247.466 210.67C248.814 212.138 250.521 212.871 252.587 212.871C254.055 212.871 255.298 212.572 256.316 211.973C257.334 211.374 258.225 210.58 258.989 209.592L261.527 211.569C259.49 214.698 256.436 216.263 252.363 216.263ZM251.846 194.476C250.169 194.476 248.762 195.09 247.624 196.318C246.486 197.531 245.782 199.238 245.512 201.439H257.686V201.124C257.566 199.013 256.997 197.381 255.979 196.228C254.961 195.06 253.583 194.476 251.846 194.476ZM278.417 195.24C277.789 195.135 277.107 195.082 276.374 195.082C273.648 195.082 271.799 196.243 270.826 198.564V215.814H266.67V191.511H270.713L270.781 194.319C272.143 192.147 274.075 191.062 276.576 191.062C277.384 191.062 277.998 191.167 278.417 191.376V195.24ZM296.409 209.367C296.409 208.244 295.982 207.376 295.128 206.762C294.29 206.133 292.815 205.594 290.704 205.145C288.607 204.696 286.938 204.156 285.695 203.528C284.467 202.899 283.554 202.15 282.955 201.281C282.371 200.413 282.079 199.38 282.079 198.182C282.079 196.19 282.917 194.506 284.594 193.128C286.286 191.751 288.443 191.062 291.063 191.062C293.818 191.062 296.049 191.773 297.756 193.196C299.478 194.618 300.339 196.437 300.339 198.654H296.162C296.162 197.516 295.675 196.535 294.702 195.711C293.743 194.888 292.53 194.476 291.063 194.476C289.551 194.476 288.368 194.805 287.514 195.464C286.661 196.123 286.234 196.984 286.234 198.047C286.234 199.05 286.631 199.807 287.424 200.316C288.218 200.825 289.648 201.311 291.714 201.776C293.796 202.24 295.48 202.794 296.768 203.438C298.056 204.082 299.007 204.86 299.621 205.774C300.25 206.672 300.564 207.773 300.564 209.075C300.564 211.247 299.695 212.991 297.958 214.309C296.222 215.612 293.968 216.263 291.198 216.263C289.251 216.263 287.529 215.919 286.032 215.23C284.534 214.541 283.359 213.583 282.505 212.355C281.667 211.112 281.248 209.772 281.248 208.334H285.403C285.478 209.727 286.032 210.835 287.065 211.658C288.113 212.467 289.491 212.871 291.198 212.871C292.77 212.871 294.028 212.557 294.971 211.928C295.93 211.284 296.409 210.431 296.409 209.367ZM323.025 185.626V191.511H327.562V194.723H323.025V209.794C323.025 210.767 323.227 211.501 323.631 211.995C324.036 212.475 324.724 212.714 325.698 212.714C326.177 212.714 326.836 212.624 327.674 212.445V215.814C326.581 216.113 325.518 216.263 324.485 216.263C322.628 216.263 321.228 215.701 320.285 214.578C319.341 213.455 318.87 211.861 318.87 209.794V194.723H314.445V191.511H318.87V185.626H323.025ZM336.591 194.453C338.433 192.192 340.829 191.062 343.779 191.062C348.915 191.062 351.505 193.959 351.55 199.754V215.814H347.395V199.732C347.38 197.98 346.976 196.684 346.182 195.846C345.403 195.007 344.183 194.588 342.521 194.588C341.173 194.588 339.99 194.948 338.972 195.666C337.954 196.385 337.16 197.328 336.591 198.496V215.814H332.436V181.314H336.591V194.453ZM372.776 215.814C372.536 215.335 372.342 214.481 372.192 213.253C370.26 215.26 367.954 216.263 365.274 216.263C362.878 216.263 360.909 215.589 359.367 214.241C357.839 212.879 357.076 211.157 357.076 209.075C357.076 206.545 358.034 204.583 359.951 203.191C361.882 201.783 364.593 201.079 368.082 201.079H372.125V199.17C372.125 197.718 371.69 196.565 370.822 195.711C369.953 194.843 368.673 194.408 366.981 194.408C365.499 194.408 364.256 194.783 363.252 195.531C362.249 196.28 361.748 197.186 361.748 198.249H357.57C357.57 197.036 357.997 195.868 358.85 194.745C359.719 193.607 360.887 192.709 362.354 192.05C363.836 191.391 365.461 191.062 367.228 191.062C370.028 191.062 372.222 191.766 373.809 193.173C375.396 194.566 376.22 196.49 376.28 198.946V210.131C376.28 212.362 376.564 214.137 377.133 215.454V215.814H372.776ZM365.88 212.647C367.183 212.647 368.418 212.31 369.586 211.636C370.754 210.962 371.6 210.086 372.125 209.008V204.022H368.868C363.777 204.022 361.231 205.512 361.231 208.491C361.231 209.794 361.665 210.812 362.534 211.546C363.402 212.28 364.518 212.647 365.88 212.647ZM388.431 185.626V191.511H392.968V194.723H388.431V209.794C388.431 210.767 388.633 211.501 389.038 211.995C389.442 212.475 390.131 212.714 391.104 212.714C391.583 212.714 392.242 212.624 393.081 212.445V215.814C391.987 216.113 390.924 216.263 389.891 216.263C388.034 216.263 386.634 215.701 385.691 214.578C384.748 213.455 384.276 211.861 384.276 209.794V194.723H379.851V191.511H384.276V185.626H388.431ZM416.036 204.561L413.43 207.279V215.814H409.275V181.314H413.43V202.18L415.654 199.507L423.223 191.511H428.277L418.821 201.663L429.377 215.814H424.503L416.036 204.561ZM442.203 216.263C438.908 216.263 436.228 215.185 434.162 213.029C432.095 210.857 431.062 207.96 431.062 204.336V203.573C431.062 201.162 431.519 199.013 432.432 197.126C433.361 195.225 434.648 193.742 436.295 192.679C437.958 191.601 439.754 191.062 441.686 191.062C444.846 191.062 447.301 192.102 449.053 194.184C450.805 196.265 451.681 199.245 451.681 203.123V204.853H435.217C435.277 207.249 435.973 209.188 437.306 210.67C438.654 212.138 440.361 212.871 442.427 212.871C443.895 212.871 445.138 212.572 446.156 211.973C447.174 211.374 448.065 210.58 448.829 209.592L451.367 211.569C449.33 214.698 446.276 216.263 442.203 216.263ZM441.686 194.476C440.009 194.476 438.601 195.09 437.463 196.318C436.325 197.531 435.622 199.238 435.352 201.439H447.526V201.124C447.406 199.013 446.837 197.381 445.819 196.228C444.801 195.06 443.423 194.476 441.686 194.476ZM466.595 216.263C463.301 216.263 460.621 215.185 458.554 213.029C456.488 210.857 455.455 207.96 455.455 204.336V203.573C455.455 201.162 455.911 199.013 456.825 197.126C457.753 195.225 459.041 193.742 460.688 192.679C462.35 191.601 464.147 191.062 466.079 191.062C469.238 191.062 471.694 192.102 473.446 194.184C475.198 196.265 476.074 199.245 476.074 203.123V204.853H459.61C459.67 207.249 460.366 209.188 461.699 210.67C463.046 212.138 464.753 212.871 466.82 212.871C468.287 212.871 469.53 212.572 470.548 211.973C471.567 211.374 472.458 210.58 473.221 209.592L475.759 211.569C473.723 214.698 470.668 216.263 466.595 216.263ZM466.079 194.476C464.402 194.476 462.994 195.09 461.856 196.318C460.718 197.531 460.014 199.238 459.745 201.439H471.918V201.124C471.799 199.013 471.23 197.381 470.211 196.228C469.193 195.06 467.816 194.476 466.079 194.476ZM501.432 203.932C501.432 207.63 500.586 210.61 498.894 212.871C497.202 215.132 494.911 216.263 492.021 216.263C489.071 216.263 486.75 215.327 485.058 213.455V225.157H480.903V191.511H484.699L484.901 194.206C486.593 192.11 488.944 191.062 491.954 191.062C494.874 191.062 497.18 192.162 498.872 194.364C500.579 196.565 501.432 199.627 501.432 203.55V203.932ZM497.277 203.46C497.277 200.72 496.693 198.556 495.525 196.969C494.357 195.382 492.755 194.588 490.718 194.588C488.203 194.588 486.316 195.704 485.058 197.935V209.547C486.301 211.763 488.203 212.871 490.763 212.871C492.755 212.871 494.334 212.085 495.502 210.513C496.685 208.926 497.277 206.575 497.277 203.46ZM523.781 185.626V191.511H528.318V194.723H523.781V209.794C523.781 210.767 523.983 211.501 524.387 211.995C524.792 212.475 525.48 212.714 526.454 212.714C526.933 212.714 527.592 212.624 528.43 212.445V215.814C527.337 216.113 526.274 216.263 525.241 216.263C523.384 216.263 521.984 215.701 521.041 214.578C520.097 213.455 519.625 211.861 519.625 209.794V194.723H515.201V191.511H519.625V185.626H523.781ZM537.347 194.453C539.189 192.192 541.585 191.062 544.535 191.062C549.671 191.062 552.261 193.959 552.306 199.754V215.814H548.151V199.732C548.136 197.98 547.732 196.684 546.938 195.846C546.159 195.007 544.939 194.588 543.277 194.588C541.929 194.588 540.746 194.948 539.728 195.666C538.71 196.385 537.916 197.328 537.347 198.496V215.814H533.192V181.314H537.347V194.453ZM568.613 216.263C565.319 216.263 562.638 215.185 560.572 213.029C558.505 210.857 557.472 207.96 557.472 204.336V203.573C557.472 201.162 557.929 199.013 558.842 197.126C559.771 195.225 561.058 193.742 562.706 192.679C564.368 191.601 566.165 191.062 568.096 191.062C571.256 191.062 573.711 192.102 575.463 194.184C577.215 196.265 578.091 199.245 578.091 203.123V204.853H561.627C561.687 207.249 562.384 209.188 563.716 210.67C565.064 212.138 566.771 212.871 568.837 212.871C570.305 212.871 571.548 212.572 572.566 211.973C573.584 211.374 574.475 210.58 575.239 209.592L577.777 211.569C575.74 214.698 572.686 216.263 568.613 216.263ZM568.096 194.476C566.419 194.476 565.012 195.09 563.874 196.318C562.736 197.531 562.032 199.238 561.762 201.439H573.936V201.124C573.816 199.013 573.247 197.381 572.229 196.228C571.211 195.06 569.833 194.476 568.096 194.476ZM608.481 209.367C608.481 208.244 608.054 207.376 607.201 206.762C606.362 206.133 604.887 205.594 602.776 205.145C600.68 204.696 599.01 204.156 597.767 203.528C596.539 202.899 595.626 202.15 595.027 201.281C594.443 200.413 594.151 199.38 594.151 198.182C594.151 196.19 594.989 194.506 596.667 193.128C598.359 191.751 600.515 191.062 603.135 191.062C605.89 191.062 608.122 191.773 609.829 193.196C611.551 194.618 612.412 196.437 612.412 198.654H608.234C608.234 197.516 607.747 196.535 606.774 195.711C605.816 194.888 604.603 194.476 603.135 194.476C601.623 194.476 600.44 194.805 599.586 195.464C598.733 196.123 598.306 196.984 598.306 198.047C598.306 199.05 598.703 199.807 599.497 200.316C600.29 200.825 601.72 201.311 603.787 201.776C605.868 202.24 607.553 202.794 608.84 203.438C610.128 204.082 611.079 204.86 611.693 205.774C612.322 206.672 612.636 207.773 612.636 209.075C612.636 211.247 611.768 212.991 610.031 214.309C608.294 215.612 606.04 216.263 603.27 216.263C601.323 216.263 599.601 215.919 598.104 215.23C596.607 214.541 595.431 213.583 594.578 212.355C593.739 211.112 593.32 209.772 593.32 208.334H597.475C597.55 209.727 598.104 210.835 599.137 211.658C600.185 212.467 601.563 212.871 603.27 212.871C604.842 212.871 606.1 212.557 607.043 211.928C608.002 211.284 608.481 210.431 608.481 209.367ZM628.134 216.263C624.84 216.263 622.16 215.185 620.093 213.029C618.027 210.857 616.994 207.96 616.994 204.336V203.573C616.994 201.162 617.45 199.013 618.364 197.126C619.292 195.225 620.58 193.742 622.227 192.679C623.889 191.601 625.686 191.062 627.618 191.062C630.777 191.062 633.233 192.102 634.985 194.184C636.737 196.265 637.613 199.245 637.613 203.123V204.853H621.149C621.209 207.249 621.905 209.188 623.238 210.67C624.585 212.138 626.292 212.871 628.359 212.871C629.826 212.871 631.069 212.572 632.087 211.973C633.106 211.374 633.997 210.58 634.76 209.592L637.298 211.569C635.262 214.698 632.207 216.263 628.134 216.263ZM627.618 194.476C625.941 194.476 624.533 195.09 623.395 196.318C622.257 197.531 621.553 199.238 621.284 201.439H633.458V201.124C633.338 199.013 632.769 197.381 631.75 196.228C630.732 195.06 629.355 194.476 627.618 194.476ZM654.189 195.24C653.56 195.135 652.879 195.082 652.145 195.082C649.42 195.082 647.57 196.243 646.597 198.564V215.814H642.442V191.511H646.485L646.552 194.319C647.915 192.147 649.847 191.062 652.347 191.062C653.156 191.062 653.77 191.167 654.189 191.376V195.24ZM666.453 210.176L672.472 191.511H676.717L668.002 215.814H664.835L656.031 191.511H660.276L666.453 210.176ZM685.23 215.814H681.075V191.511H685.23V215.814ZM680.738 185.065C680.738 184.391 680.94 183.822 681.344 183.358C681.764 182.893 682.377 182.661 683.186 182.661C683.995 182.661 684.609 182.893 685.028 183.358C685.447 183.822 685.657 184.391 685.657 185.065C685.657 185.739 685.447 186.3 685.028 186.749C684.609 187.198 683.995 187.423 683.186 187.423C682.377 187.423 681.764 187.198 681.344 186.749C680.94 186.3 680.738 185.739 680.738 185.065ZM701.649 212.871C703.131 212.871 704.427 212.422 705.535 211.524C706.643 210.625 707.257 209.502 707.376 208.155H711.307C711.232 209.547 710.753 210.872 709.87 212.13C708.986 213.388 707.803 214.391 706.321 215.14C704.853 215.889 703.296 216.263 701.649 216.263C698.34 216.263 695.704 215.162 693.743 212.961C691.796 210.745 690.823 207.72 690.823 203.887V203.191C690.823 200.825 691.257 198.721 692.125 196.879C692.994 195.037 694.237 193.607 695.854 192.589C697.486 191.571 699.41 191.062 701.626 191.062C704.352 191.062 706.613 191.878 708.41 193.51C710.222 195.142 711.187 197.261 711.307 199.866H707.376C707.257 198.294 706.658 197.006 705.58 196.003C704.516 194.985 703.199 194.476 701.626 194.476C699.515 194.476 697.875 195.24 696.708 196.767C695.555 198.279 694.978 200.473 694.978 203.348V204.134C694.978 206.934 695.555 209.09 696.708 210.603C697.861 212.115 699.508 212.871 701.649 212.871ZM726.064 216.263C722.77 216.263 720.089 215.185 718.023 213.029C715.957 210.857 714.923 207.96 714.923 204.336V203.573C714.923 201.162 715.38 199.013 716.293 197.126C717.222 195.225 718.51 193.742 720.157 192.679C721.819 191.601 723.616 191.062 725.547 191.062C728.707 191.062 731.163 192.102 732.915 194.184C734.667 196.265 735.542 199.245 735.542 203.123V204.853H719.079C719.139 207.249 719.835 209.188 721.167 210.67C722.515 212.138 724.222 212.871 726.289 212.871C727.756 212.871 728.999 212.572 730.017 211.973C731.035 211.374 731.926 210.58 732.69 209.592L735.228 211.569C733.192 214.698 730.137 216.263 726.064 216.263ZM725.547 194.476C723.87 194.476 722.463 195.09 721.325 196.318C720.187 197.531 719.483 199.238 719.213 201.439H731.387V201.124C731.267 199.013 730.698 197.381 729.68 196.228C728.662 195.06 727.284 194.476 725.547 194.476ZM756.296 215.814H752.141V181.314H756.296V215.814ZM767.482 215.814H763.327V191.511H767.482V215.814ZM762.99 185.065C762.99 184.391 763.192 183.822 763.596 183.358C764.015 182.893 764.629 182.661 765.438 182.661C766.247 182.661 766.861 182.893 767.28 183.358C767.699 183.822 767.909 184.391 767.909 185.065C767.909 185.739 767.699 186.3 767.28 186.749C766.861 187.198 766.247 187.423 765.438 187.423C764.629 187.423 764.015 187.198 763.596 186.749C763.192 186.3 762.99 185.739 762.99 185.065ZM782.171 210.176L788.191 191.511H792.436L783.721 215.814H780.554L771.75 191.511H775.995L782.171 210.176ZM806.205 216.263C802.91 216.263 800.23 215.185 798.164 213.029C796.097 210.857 795.064 207.96 795.064 204.336V203.573C795.064 201.162 795.521 199.013 796.434 197.126C797.362 195.225 798.65 193.742 800.297 192.679C801.959 191.601 803.756 191.062 805.688 191.062C808.847 191.062 811.303 192.102 813.055 194.184C814.807 196.265 815.683 199.245 815.683 203.123V204.853H799.219C799.279 207.249 799.975 209.188 801.308 210.67C802.656 212.138 804.363 212.871 806.429 212.871C807.897 212.871 809.139 212.572 810.158 211.973C811.176 211.374 812.067 210.58 812.831 209.592L815.369 211.569C813.332 214.698 810.278 216.263 806.205 216.263ZM805.688 194.476C804.011 194.476 802.603 195.09 801.465 196.318C800.327 197.531 799.624 199.238 799.354 201.439H811.528V201.124C811.408 199.013 810.839 197.381 809.821 196.228C808.803 195.06 807.425 194.476 805.688 194.476Z" fill="white"/>
<path d="M123.767 200.973H78.633M26.7891 166.658V200.973H78.633M78.633 166.658V200.973" stroke="white" stroke-width="3"/>
<path d="M52.3909 138.734L63.7378 127.081L122.627 126.143" stroke="white" stroke-width="3"/>
<path d="M73.4849 110.518L122.627 61.3757" stroke="white" stroke-width="3"/>
<path d="M938.939 39.0513V12.0356H946.565C948.916 12.0356 950.994 12.5552 952.8 13.5942C954.606 14.6333 955.997 16.1115 956.975 18.0288C957.964 19.9461 958.465 22.1479 958.478 24.6343V26.3599C958.478 28.908 957.983 31.1408 956.993 33.0581C956.016 34.9754 954.612 36.4474 952.781 37.4741C950.963 38.5008 948.841 39.0265 946.417 39.0513H938.939ZM942.502 14.9673V36.1382H946.25C948.996 36.1382 951.13 35.2847 952.651 33.5776C954.185 31.8706 954.952 29.4399 954.952 26.2856V24.7085C954.952 21.6408 954.229 19.2596 952.781 17.5649C951.346 15.8579 949.305 14.992 946.658 14.9673H942.502ZM971.67 39.4224C968.949 39.4224 966.734 38.5317 965.027 36.7505C963.32 34.9569 962.467 32.5633 962.467 29.5698V28.939C962.467 26.9474 962.844 25.1724 963.599 23.6138C964.366 22.0428 965.429 20.8182 966.79 19.9399C968.163 19.0493 969.647 18.604 971.243 18.604C973.853 18.604 975.882 19.4637 977.329 21.1831C978.776 22.9025 979.5 25.3641 979.5 28.5679V29.9966H965.899C965.949 31.9757 966.524 33.5776 967.625 34.8022C968.738 36.0145 970.148 36.6206 971.855 36.6206C973.068 36.6206 974.094 36.3732 974.936 35.8784C975.777 35.3836 976.513 34.728 977.144 33.9116L979.24 35.5444C977.558 38.1297 975.035 39.4224 971.67 39.4224ZM971.243 21.4243C969.858 21.4243 968.695 21.9315 967.755 22.9458C966.815 23.9478 966.233 25.3579 966.011 27.1763H976.067V26.9165C975.968 25.1724 975.498 23.8241 974.657 22.8716C973.816 21.9067 972.678 21.4243 971.243 21.4243ZM989.854 34.394L994.826 18.9751H998.333L991.134 39.0513H988.518L981.244 18.9751H984.751L989.854 34.394ZM1009.71 39.4224C1006.99 39.4224 1004.77 38.5317 1003.06 36.7505C1001.36 34.9569 1000.5 32.5633 1000.5 29.5698V28.939C1000.5 26.9474 1000.88 25.1724 1001.64 23.6138C1002.4 22.0428 1003.47 20.8182 1004.83 19.9399C1006.2 19.0493 1007.68 18.604 1009.28 18.604C1011.89 18.604 1013.92 19.4637 1015.37 21.1831C1016.81 22.9025 1017.54 25.3641 1017.54 28.5679V29.9966H1003.94C1003.99 31.9757 1004.56 33.5776 1005.66 34.8022C1006.78 36.0145 1008.19 36.6206 1009.89 36.6206C1011.1 36.6206 1012.13 36.3732 1012.97 35.8784C1013.81 35.3836 1014.55 34.728 1015.18 33.9116L1017.28 35.5444C1015.6 38.1297 1013.07 39.4224 1009.71 39.4224ZM1009.28 21.4243C1007.89 21.4243 1006.73 21.9315 1005.79 22.9458C1004.85 23.9478 1004.27 25.3579 1004.05 27.1763H1014.1V26.9165C1014.01 25.1724 1013.54 23.8241 1012.69 22.8716C1011.85 21.9067 1010.72 21.4243 1009.28 21.4243ZM1025.26 39.0513H1021.82V10.5513H1025.26V39.0513ZM1029.86 28.8276C1029.86 26.8608 1030.24 25.092 1031.01 23.521C1031.79 21.95 1032.86 20.7378 1034.24 19.8843C1035.62 19.0308 1037.2 18.604 1038.97 18.604C1041.7 18.604 1043.91 19.5503 1045.59 21.4429C1047.29 23.3354 1048.13 25.8527 1048.13 28.9946V29.2358C1048.13 31.1903 1047.76 32.9468 1047 34.5054C1046.26 36.0516 1045.19 37.2576 1043.79 38.1235C1042.41 38.9894 1040.81 39.4224 1039 39.4224C1036.28 39.4224 1034.08 38.4761 1032.38 36.5835C1030.7 34.6909 1029.86 32.186 1029.86 29.0688V28.8276ZM1033.31 29.2358C1033.31 31.4624 1033.82 33.2498 1034.85 34.5981C1035.89 35.9465 1037.27 36.6206 1039 36.6206C1040.75 36.6206 1042.13 35.9403 1043.16 34.5796C1044.19 33.2065 1044.7 31.2892 1044.7 28.8276C1044.7 26.6258 1044.18 24.8446 1043.12 23.4839C1042.08 22.1108 1040.7 21.4243 1038.97 21.4243C1037.27 21.4243 1035.91 22.0985 1034.87 23.4468C1033.83 24.7951 1033.31 26.7248 1033.31 29.2358ZM1069.4 29.2358C1069.4 32.2912 1068.7 34.7528 1067.3 36.6206C1065.9 38.4884 1064.01 39.4224 1061.62 39.4224C1059.19 39.4224 1057.27 38.6493 1055.87 37.103V46.77H1052.44V18.9751H1055.57L1055.74 21.2017C1057.14 19.4699 1059.08 18.604 1061.57 18.604C1063.98 18.604 1065.88 19.5132 1067.28 21.3315C1068.69 23.1499 1069.4 25.6795 1069.4 28.9204V29.2358ZM1065.96 28.8462C1065.96 26.5825 1065.48 24.7951 1064.52 23.4839C1063.55 22.1727 1062.23 21.5171 1060.55 21.5171C1058.47 21.5171 1056.91 22.4386 1055.87 24.2817V33.8745C1056.9 35.7052 1058.47 36.6206 1060.58 36.6206C1062.23 36.6206 1063.53 35.9712 1064.5 34.6724C1065.48 33.3612 1065.96 31.4191 1065.96 28.8462ZM1077 18.9751L1077.1 21.2017C1078.57 19.4699 1080.56 18.604 1083.05 18.604C1085.86 18.604 1087.77 19.6802 1088.79 21.8325C1089.46 20.8677 1090.32 20.0884 1091.38 19.4946C1092.46 18.9009 1093.73 18.604 1095.19 18.604C1099.59 18.604 1101.83 20.9357 1101.91 25.5991V39.0513H1098.47V25.8032C1098.47 24.3683 1098.14 23.2983 1097.49 22.5933C1096.83 21.8758 1095.73 21.5171 1094.19 21.5171C1092.91 21.5171 1091.85 21.9006 1091.01 22.6675C1090.17 23.422 1089.68 24.4425 1089.55 25.729V39.0513H1086.1V25.896C1086.1 22.9767 1084.67 21.5171 1081.81 21.5171C1079.56 21.5171 1078.02 22.4757 1077.19 24.3931V39.0513H1073.76V18.9751H1077ZM1115.43 39.4224C1112.71 39.4224 1110.5 38.5317 1108.79 36.7505C1107.08 34.9569 1106.23 32.5633 1106.23 29.5698V28.939C1106.23 26.9474 1106.61 25.1724 1107.36 23.6138C1108.13 22.0428 1109.19 20.8182 1110.55 19.9399C1111.92 19.0493 1113.41 18.604 1115 18.604C1117.61 18.604 1119.64 19.4637 1121.09 21.1831C1122.54 22.9025 1123.26 25.3641 1123.26 28.5679V29.9966H1109.66C1109.71 31.9757 1110.29 33.5776 1111.39 34.8022C1112.5 36.0145 1113.91 36.6206 1115.62 36.6206C1116.83 36.6206 1117.86 36.3732 1118.7 35.8784C1119.54 35.3836 1120.27 34.728 1120.91 33.9116L1123 35.5444C1121.32 38.1297 1118.8 39.4224 1115.43 39.4224ZM1115 21.4243C1113.62 21.4243 1112.46 21.9315 1111.52 22.9458C1110.58 23.9478 1110 25.3579 1109.77 27.1763H1119.83V26.9165C1119.73 25.1724 1119.26 23.8241 1118.42 22.8716C1117.58 21.9067 1116.44 21.4243 1115 21.4243ZM1130.5 18.9751L1130.61 21.4985C1132.14 19.5688 1134.15 18.604 1136.62 18.604C1140.86 18.604 1143 20.9976 1143.04 25.7847V39.0513H1139.61V25.7661C1139.6 24.3188 1139.26 23.2489 1138.61 22.5562C1137.96 21.8634 1136.96 21.5171 1135.58 21.5171C1134.47 21.5171 1133.49 21.814 1132.65 22.4077C1131.81 23.0015 1131.15 23.7808 1130.68 24.7456V39.0513H1127.25V18.9751H1130.5ZM1152.88 14.1138V18.9751H1156.62V21.6284H1152.88V34.0786C1152.88 34.8826 1153.04 35.4888 1153.38 35.897C1153.71 36.2928 1154.28 36.4907 1155.08 36.4907C1155.48 36.4907 1156.02 36.4165 1156.72 36.2681V39.0513C1155.81 39.2987 1154.93 39.4224 1154.08 39.4224C1152.55 39.4224 1151.39 38.9585 1150.61 38.0308C1149.83 37.103 1149.44 35.7856 1149.44 34.0786V21.6284H1145.79V18.9751H1149.44V14.1138H1152.88Z" fill="white"/>
<path d="M957.605 74.0674H948.922V98.1514H945.378V74.0674H936.713V71.1357H957.605V74.0674ZM967.551 98.5225C964.829 98.5225 962.615 97.6318 960.908 95.8506C959.201 94.057 958.348 91.6634 958.348 88.6699V88.0391C958.348 86.0475 958.725 84.2725 959.479 82.7139C960.246 81.1429 961.31 79.9183 962.671 79.04C964.044 78.1494 965.528 77.7041 967.124 77.7041C969.734 77.7041 971.763 78.5638 973.21 80.2832C974.657 82.0026 975.381 84.4642 975.381 87.668V89.0967H961.78C961.83 91.0758 962.405 92.6777 963.506 93.9023C964.619 95.1146 966.029 95.7207 967.736 95.7207C968.949 95.7207 969.975 95.4733 970.816 94.9785C971.658 94.4837 972.394 93.8281 973.024 93.0117L975.121 94.6445C973.439 97.2298 970.915 98.5225 967.551 98.5225ZM967.124 80.5244C965.739 80.5244 964.576 81.0316 963.636 82.0459C962.696 83.0479 962.114 84.458 961.892 86.2764H971.948V86.0166C971.849 84.2725 971.379 82.9242 970.538 81.9717C969.697 81.0068 968.559 80.5244 967.124 80.5244ZM991.06 92.8262C991.06 91.8984 990.707 91.181 990.002 90.6738C989.309 90.1543 988.091 89.709 986.347 89.3379C984.615 88.9668 983.236 88.5215 982.209 88.002C981.195 87.4824 980.44 86.8639 979.945 86.1465C979.463 85.429 979.222 84.5755 979.222 83.5859C979.222 81.9408 979.914 80.5492 981.3 79.4111C982.698 78.2731 984.479 77.7041 986.644 77.7041C988.92 77.7041 990.763 78.2917 992.173 79.4668C993.595 80.6419 994.307 82.1449 994.307 83.9756H990.855C990.855 83.0355 990.453 82.2253 989.649 81.5449C988.858 80.8646 987.856 80.5244 986.644 80.5244C985.394 80.5244 984.417 80.7965 983.712 81.3408C983.007 81.8851 982.654 82.5964 982.654 83.4746C982.654 84.3034 982.982 84.9281 983.638 85.3486C984.293 85.7692 985.475 86.1712 987.182 86.5547C988.901 86.9382 990.293 87.3958 991.356 87.9277C992.42 88.4596 993.206 89.1029 993.713 89.8574C994.232 90.5996 994.492 91.5088 994.492 92.585C994.492 94.3786 993.775 95.8197 992.34 96.9082C990.905 97.9844 989.043 98.5225 986.755 98.5225C985.147 98.5225 983.724 98.238 982.487 97.6689C981.25 97.0999 980.279 96.3083 979.574 95.2939C978.882 94.2673 978.535 93.1602 978.535 91.9727H981.968C982.03 93.123 982.487 94.0384 983.341 94.7188C984.207 95.3867 985.345 95.7207 986.755 95.7207C988.054 95.7207 989.093 95.4609 989.872 94.9414C990.664 94.4095 991.06 93.7044 991.06 92.8262ZM1003.62 73.2139V78.0752H1007.37V80.7285H1003.62V93.1787C1003.62 93.9827 1003.79 94.5889 1004.12 94.9971C1004.46 95.3929 1005.03 95.5908 1005.83 95.5908C1006.22 95.5908 1006.77 95.5166 1007.46 95.3682V98.1514C1006.56 98.3988 1005.68 98.5225 1004.83 98.5225C1003.29 98.5225 1002.14 98.0586 1001.36 97.1309C1000.58 96.2031 1000.19 94.8857 1000.19 93.1787V80.7285H996.533V78.0752H1000.19V73.2139H1003.62ZM1015.12 98.1514H1011.69V78.0752H1015.12V98.1514ZM1011.41 72.75C1011.41 72.1934 1011.58 71.7233 1011.92 71.3398C1012.26 70.9564 1012.77 70.7646 1013.44 70.7646C1014.1 70.7646 1014.61 70.9564 1014.96 71.3398C1015.3 71.7233 1015.48 72.1934 1015.48 72.75C1015.48 73.3066 1015.3 73.7705 1014.96 74.1416C1014.61 74.5127 1014.1 74.6982 1013.44 74.6982C1012.77 74.6982 1012.26 74.5127 1011.92 74.1416C1011.58 73.7705 1011.41 73.3066 1011.41 72.75ZM1023.88 78.0752L1023.99 80.5986C1025.53 78.6689 1027.53 77.7041 1030.01 77.7041C1034.25 77.7041 1036.39 80.0977 1036.43 84.8848V98.1514H1032.99V84.8662C1032.98 83.4189 1032.65 82.349 1031.99 81.6562C1031.35 80.9635 1030.34 80.6172 1028.97 80.6172C1027.85 80.6172 1026.88 80.9141 1026.04 81.5078C1025.19 82.1016 1024.54 82.8809 1024.07 83.8457V98.1514H1020.64V78.0752H1023.88ZM1040.79 87.9463C1040.79 84.8167 1041.51 82.3304 1042.96 80.4873C1044.4 78.6318 1046.32 77.7041 1048.71 77.7041C1051.16 77.7041 1053.07 78.57 1054.44 80.3018L1054.61 78.0752H1057.75V97.6689C1057.75 100.267 1056.97 102.314 1055.43 103.811C1053.89 105.307 1051.83 106.056 1049.23 106.056C1047.78 106.056 1046.36 105.746 1044.98 105.128C1043.59 104.509 1042.54 103.662 1041.81 102.586L1043.59 100.526C1045.06 102.345 1046.86 103.254 1048.99 103.254C1050.66 103.254 1051.96 102.784 1052.88 101.844C1053.82 100.904 1054.29 99.5801 1054.29 97.873V96.1475C1052.92 97.7308 1051.05 98.5225 1048.67 98.5225C1046.32 98.5225 1044.42 97.5762 1042.96 95.6836C1041.51 93.791 1040.79 91.2119 1040.79 87.9463ZM1044.24 88.3359C1044.24 90.5996 1044.7 92.3809 1045.63 93.6797C1046.56 94.9661 1047.86 95.6094 1049.53 95.6094C1051.69 95.6094 1053.28 94.626 1054.29 92.6592V83.4932C1053.24 81.5758 1051.67 80.6172 1049.56 80.6172C1047.89 80.6172 1046.59 81.2666 1045.65 82.5654C1044.71 83.8643 1044.24 85.7878 1044.24 88.3359Z" fill="white"/>
<path d="M946.899 145.209C943.844 144.331 941.618 143.255 940.22 141.981C938.834 140.694 938.142 139.111 938.142 137.231C938.142 135.103 938.989 133.347 940.684 131.961C942.391 130.564 944.605 129.865 947.326 129.865C949.182 129.865 950.833 130.223 952.28 130.941C953.74 131.658 954.866 132.648 955.657 133.91C956.461 135.171 956.863 136.551 956.863 138.047H953.282C953.282 136.415 952.763 135.134 951.724 134.207C950.685 133.266 949.219 132.796 947.326 132.796C945.57 132.796 944.197 133.186 943.207 133.965C942.23 134.732 941.741 135.802 941.741 137.175C941.741 138.276 942.205 139.21 943.133 139.977C944.073 140.732 945.662 141.424 947.901 142.055C950.153 142.686 951.909 143.385 953.171 144.152C954.445 144.906 955.385 145.791 955.991 146.805C956.61 147.819 956.919 149.013 956.919 150.386C956.919 152.576 956.065 154.332 954.358 155.656C952.651 156.967 950.369 157.623 947.512 157.623C945.656 157.623 943.924 157.27 942.316 156.565C940.708 155.847 939.465 154.87 938.587 153.633C937.721 152.396 937.288 150.992 937.288 149.421H940.869C940.869 151.054 941.469 152.347 942.669 153.299C943.881 154.239 945.495 154.709 947.512 154.709C949.392 154.709 950.833 154.326 951.835 153.559C952.837 152.792 953.338 151.747 953.338 150.423C953.338 149.1 952.874 148.079 951.946 147.362C951.019 146.632 949.336 145.915 946.899 145.209ZM965.621 132.314V137.175H969.369V139.829H965.621V152.279C965.621 153.083 965.788 153.689 966.122 154.097C966.456 154.493 967.025 154.691 967.829 154.691C968.225 154.691 968.769 154.617 969.462 154.468V157.251C968.559 157.499 967.681 157.623 966.827 157.623C965.293 157.623 964.137 157.159 963.357 156.231C962.578 155.303 962.188 153.986 962.188 152.279V139.829H958.533V137.175H962.188V132.314H965.621ZM985.79 157.251C985.592 156.856 985.431 156.151 985.308 155.136C983.712 156.794 981.807 157.623 979.593 157.623C977.614 157.623 975.987 157.066 974.713 155.953C973.451 154.827 972.82 153.404 972.82 151.685C972.82 149.595 973.612 147.974 975.195 146.824C976.791 145.661 979.03 145.08 981.912 145.08H985.252V143.502C985.252 142.303 984.893 141.35 984.176 140.645C983.458 139.928 982.401 139.569 981.003 139.569C979.778 139.569 978.752 139.878 977.923 140.497C977.094 141.115 976.68 141.863 976.68 142.742H973.229C973.229 141.74 973.581 140.775 974.286 139.847C975.004 138.907 975.968 138.165 977.181 137.621C978.405 137.076 979.747 136.804 981.207 136.804C983.52 136.804 985.332 137.386 986.644 138.548C987.955 139.699 988.635 141.288 988.685 143.317V152.557C988.685 154.4 988.92 155.866 989.39 156.955V157.251H985.79ZM980.094 154.635C981.17 154.635 982.19 154.357 983.155 153.8C984.12 153.244 984.819 152.52 985.252 151.629V147.51H982.562C978.356 147.51 976.253 148.741 976.253 151.203C976.253 152.279 976.612 153.12 977.329 153.726C978.047 154.332 978.968 154.635 980.094 154.635ZM993.249 147.046C993.249 143.917 993.973 141.431 995.42 139.587C996.867 137.732 998.785 136.804 1001.17 136.804C1003.62 136.804 1005.53 137.67 1006.91 139.402L1007.07 137.175H1010.21V156.769C1010.21 159.367 1009.43 161.414 1007.89 162.911C1006.35 164.407 1004.29 165.156 1001.69 165.156C1000.24 165.156 998.828 164.847 997.442 164.228C996.057 163.61 994.999 162.762 994.27 161.686L996.051 159.626C997.523 161.445 999.323 162.354 1001.45 162.354C1003.12 162.354 1004.42 161.884 1005.35 160.944C1006.29 160.004 1006.76 158.68 1006.76 156.973V155.248C1005.38 156.831 1003.51 157.623 1001.13 157.623C998.785 157.623 996.88 156.676 995.42 154.784C993.973 152.891 993.249 150.312 993.249 147.046ZM996.7 147.436C996.7 149.7 997.164 151.481 998.092 152.78C999.02 154.066 1000.32 154.709 1001.99 154.709C1004.15 154.709 1005.74 153.726 1006.76 151.759V142.593C1005.71 140.676 1004.13 139.717 1002.03 139.717C1000.36 139.717 999.05 140.367 998.11 141.666C997.17 142.964 996.7 144.888 996.7 147.436ZM1019.13 157.251H1015.7V137.175H1019.13V157.251ZM1015.42 131.85C1015.42 131.293 1015.59 130.823 1015.92 130.44C1016.27 130.056 1016.78 129.865 1017.44 129.865C1018.11 129.865 1018.62 130.056 1018.97 130.44C1019.31 130.823 1019.49 131.293 1019.49 131.85C1019.49 132.407 1019.31 132.871 1018.97 133.242C1018.62 133.613 1018.11 133.798 1017.44 133.798C1016.78 133.798 1016.27 133.613 1015.92 133.242C1015.59 132.871 1015.42 132.407 1015.42 131.85ZM1027.89 137.175L1028 139.699C1029.54 137.769 1031.54 136.804 1034.01 136.804C1038.26 136.804 1040.4 139.198 1040.43 143.985V157.251H1037V143.966C1036.99 142.519 1036.65 141.449 1036 140.756C1035.36 140.064 1034.35 139.717 1032.97 139.717C1031.86 139.717 1030.88 140.014 1030.04 140.608C1029.2 141.202 1028.55 141.981 1028.08 142.946V157.251H1024.64V137.175H1027.89ZM1044.79 147.046C1044.79 143.917 1045.52 141.431 1046.96 139.587C1048.41 137.732 1050.33 136.804 1052.72 136.804C1055.17 136.804 1057.08 137.67 1058.45 139.402L1058.62 137.175H1061.75V156.769C1061.75 159.367 1060.98 161.414 1059.43 162.911C1057.9 164.407 1055.83 165.156 1053.24 165.156C1051.79 165.156 1050.37 164.847 1048.99 164.228C1047.6 163.61 1046.54 162.762 1045.81 161.686L1047.6 159.626C1049.07 161.445 1050.87 162.354 1053 162.354C1054.67 162.354 1055.96 161.884 1056.89 160.944C1057.83 160.004 1058.3 158.68 1058.3 156.973V155.248C1056.93 156.831 1055.05 157.623 1052.68 157.623C1050.33 157.623 1048.42 156.676 1046.96 154.784C1045.52 152.891 1044.79 150.312 1044.79 147.046ZM1048.25 147.436C1048.25 149.7 1048.71 151.481 1049.64 152.78C1050.56 154.066 1051.86 154.709 1053.53 154.709C1055.7 154.709 1057.29 153.726 1058.3 151.759V142.593C1057.25 140.676 1055.67 139.717 1053.57 139.717C1051.9 139.717 1050.6 140.367 1049.66 141.666C1048.72 142.964 1048.25 144.888 1048.25 147.436Z" fill="white"/>
<path d="M942.502 205.775V216.352H938.939V189.336H948.903C951.86 189.336 954.173 190.09 955.843 191.6C957.525 193.109 958.366 195.106 958.366 197.593C958.366 200.215 957.544 202.238 955.898 203.66C954.266 205.07 951.922 205.775 948.866 205.775H942.502ZM942.502 202.862H948.903C950.808 202.862 952.268 202.417 953.282 201.526C954.297 200.623 954.804 199.325 954.804 197.63C954.804 196.022 954.297 194.735 953.282 193.771C952.268 192.806 950.876 192.305 949.107 192.268H942.502V202.862ZM972.078 199.355C971.559 199.269 970.996 199.226 970.39 199.226C968.138 199.226 966.611 200.184 965.807 202.102V216.352H962.374V196.275H965.714L965.77 198.595C966.895 196.801 968.491 195.904 970.557 195.904C971.225 195.904 971.732 195.991 972.078 196.164V199.355ZM973.971 206.128C973.971 204.161 974.354 202.392 975.121 200.821C975.9 199.25 976.977 198.038 978.35 197.185C979.735 196.331 981.312 195.904 983.081 195.904C985.815 195.904 988.023 196.851 989.705 198.743C991.4 200.636 992.247 203.153 992.247 206.295V206.536C992.247 208.491 991.87 210.247 991.115 211.806C990.373 213.352 989.303 214.558 987.905 215.424C986.52 216.29 984.924 216.723 983.118 216.723C980.397 216.723 978.189 215.776 976.494 213.884C974.812 211.991 973.971 209.486 973.971 206.369V206.128ZM977.422 206.536C977.422 208.763 977.935 210.55 978.962 211.898C980.001 213.247 981.386 213.921 983.118 213.921C984.862 213.921 986.248 213.241 987.274 211.88C988.301 210.507 988.814 208.59 988.814 206.128C988.814 203.926 988.289 202.145 987.237 200.784C986.198 199.411 984.813 198.725 983.081 198.725C981.386 198.725 980.02 199.399 978.98 200.747C977.941 202.095 977.422 204.025 977.422 206.536ZM995.717 206.146C995.717 203.066 996.447 200.592 997.906 198.725C999.366 196.844 1001.28 195.904 1003.64 195.904C1005.99 195.904 1007.85 196.708 1009.22 198.316V187.852H1012.66V216.352H1009.5L1009.34 214.199C1007.96 215.882 1006.05 216.723 1003.6 216.723C1001.28 216.723 999.378 215.77 997.906 213.865C996.447 211.96 995.717 209.474 995.717 206.406V206.146ZM999.149 206.536C999.149 208.812 999.619 210.593 1000.56 211.88C1001.5 213.166 1002.8 213.81 1004.46 213.81C1006.63 213.81 1008.22 212.832 1009.22 210.878V201.656C1008.2 199.764 1006.62 198.817 1004.49 198.817C1002.81 198.817 1001.5 199.467 1000.56 200.766C999.619 202.064 999.149 203.988 999.149 206.536ZM1030.4 214.366C1029.06 215.937 1027.1 216.723 1024.51 216.723C1022.37 216.723 1020.74 216.104 1019.62 214.867C1018.5 213.618 1017.94 211.775 1017.93 209.338V196.275H1021.36V209.245C1021.36 212.288 1022.6 213.81 1025.07 213.81C1027.69 213.81 1029.44 212.832 1030.3 210.878V196.275H1033.74V216.352H1030.47L1030.4 214.366ZM1047.02 213.921C1048.25 213.921 1049.32 213.55 1050.23 212.808C1051.15 212.065 1051.65 211.138 1051.75 210.024H1055C1054.94 211.175 1054.54 212.27 1053.81 213.309C1053.08 214.348 1052.1 215.176 1050.88 215.795C1049.67 216.413 1048.38 216.723 1047.02 216.723C1044.29 216.723 1042.11 215.813 1040.49 213.995C1038.88 212.164 1038.08 209.666 1038.08 206.499V205.924C1038.08 203.969 1038.44 202.231 1039.15 200.71C1039.87 199.188 1040.9 198.007 1042.23 197.166C1043.58 196.325 1045.17 195.904 1047 195.904C1049.25 195.904 1051.12 196.578 1052.61 197.927C1054.1 199.275 1054.9 201.025 1055 203.178H1051.75C1051.65 201.879 1051.16 200.815 1050.27 199.986C1049.39 199.145 1048.3 198.725 1047 198.725C1045.26 198.725 1043.9 199.355 1042.94 200.617C1041.99 201.867 1041.51 203.679 1041.51 206.054V206.703C1041.51 209.016 1041.99 210.798 1042.94 212.047C1043.89 213.296 1045.25 213.921 1047.02 213.921ZM1063.52 191.414V196.275H1067.26V198.929H1063.52V211.379C1063.52 212.183 1063.68 212.789 1064.02 213.197C1064.35 213.593 1064.92 213.791 1065.72 213.791C1066.12 213.791 1066.66 213.717 1067.36 213.568V216.352C1066.45 216.599 1065.58 216.723 1064.72 216.723C1063.19 216.723 1062.03 216.259 1061.25 215.331C1060.47 214.403 1060.08 213.086 1060.08 211.379V198.929H1056.43V196.275H1060.08V191.414H1063.52ZM1075.02 216.352H1071.59V196.275H1075.02V216.352ZM1071.31 190.95C1071.31 190.394 1071.48 189.924 1071.81 189.54C1072.16 189.157 1072.66 188.965 1073.33 188.965C1074 188.965 1074.51 189.157 1074.85 189.54C1075.2 189.924 1075.37 190.394 1075.37 190.95C1075.37 191.507 1075.2 191.971 1074.85 192.342C1074.51 192.713 1074 192.898 1073.33 192.898C1072.66 192.898 1072.16 192.713 1071.81 192.342C1071.48 191.971 1071.31 191.507 1071.31 190.95ZM1079.62 206.128C1079.62 204.161 1080 202.392 1080.77 200.821C1081.55 199.25 1082.63 198.038 1084 197.185C1085.39 196.331 1086.96 195.904 1088.73 195.904C1091.47 195.904 1093.67 196.851 1095.36 198.743C1097.05 200.636 1097.9 203.153 1097.9 206.295V206.536C1097.9 208.491 1097.52 210.247 1096.77 211.806C1096.02 213.352 1094.95 214.558 1093.56 215.424C1092.17 216.29 1090.57 216.723 1088.77 216.723C1086.05 216.723 1083.84 215.776 1082.14 213.884C1080.46 211.991 1079.62 209.486 1079.62 206.369V206.128ZM1083.07 206.536C1083.07 208.763 1083.59 210.55 1084.61 211.898C1085.65 213.247 1087.04 213.921 1088.77 213.921C1090.51 213.921 1091.9 213.241 1092.92 211.88C1093.95 210.507 1094.46 208.59 1094.46 206.128C1094.46 203.926 1093.94 202.145 1092.89 200.784C1091.85 199.411 1090.46 198.725 1088.73 198.725C1087.04 198.725 1085.67 199.399 1084.63 200.747C1083.59 202.095 1083.07 204.025 1083.07 206.536ZM1105.45 196.275L1105.56 198.799C1107.09 196.869 1109.1 195.904 1111.57 195.904C1115.82 195.904 1117.96 198.298 1117.99 203.085V216.352H1114.56V203.066C1114.55 201.619 1114.21 200.549 1113.56 199.856C1112.91 199.164 1111.91 198.817 1110.53 198.817C1109.42 198.817 1108.44 199.114 1107.6 199.708C1106.76 200.302 1106.1 201.081 1105.63 202.046V216.352H1102.2V196.275H1105.45Z" fill="white"/>
<circle cx="903.29" cy="25.567" r="18.4254" fill="black" stroke="#014000" stroke-width="4"/>
<path fill-rule="evenodd" clip-rule="evenodd" d="M897.669 10.0637V27.239H886.887C886.832 26.6894 886.803 26.1318 886.803 25.5676C886.803 18.4361 891.331 12.3621 897.669 10.0637Z" fill="#05FF00"/>
<rect x="882.864" y="25.5674" width="40.8508" height="20.4254" fill="#05FF00"/>
<rect x="884.864" y="27.5674" width="36.8508" height="16.4254" stroke="black" stroke-opacity="0.75" stroke-width="4"/>
<circle cx="903.29" cy="84.6671" r="18.4254" fill="black" stroke="#014000" stroke-width="4"/>
<path fill-rule="evenodd" clip-rule="evenodd" d="M908.816 69.1293V86.3389H897.669V69.1635C899.423 68.5273 901.316 68.1804 903.29 68.1804C905.228 68.1804 907.089 68.5149 908.816 69.1293Z" fill="#05FF00"/>
<rect x="882.864" y="84.6675" width="40.8508" height="20.4254" fill="#05FF00"/>
<rect x="884.864" y="86.6675" width="36.8508" height="16.4254" stroke="black" stroke-opacity="0.75" stroke-width="4"/>
<circle cx="903.29" cy="143.767" r="18.4254" fill="black" stroke="#014000" stroke-width="4"/>
<path fill-rule="evenodd" clip-rule="evenodd" d="M919.693 145.439H908.816V128.229C915.204 130.501 919.777 136.6 919.777 143.768C919.777 144.332 919.749 144.889 919.693 145.439Z" fill="#05FF00"/>
<rect x="882.864" y="143.768" width="40.8508" height="20.4254" fill="#05FF00"/>
<rect x="884.864" y="145.768" width="36.8508" height="16.4254" stroke="black" stroke-opacity="0.75" stroke-width="4"/>
<circle cx="903.29" cy="202.868" r="20.4254" fill="#05FF00"/>
<circle cx="903.29" cy="202.868" r="18.4254" stroke="black" stroke-opacity="0.75" stroke-width="4"/>
<rect x="882.864" y="202.868" width="40.8508" height="20.4254" fill="#05FF00"/>
<rect x="884.864" y="204.868" width="36.8508" height="16.4254" stroke="black" stroke-opacity="0.75" stroke-width="4"/>
</g>
<defs>
<clipPath id="clip0">
<rect width="1165" height="227" fill="white"/>
</clipPath>
</defs>
</svg>
