<svg width="1165" height="228" viewBox="0 0 1165 228" fill="none" xmlns="http://www.w3.org/2000/svg">
<g clip-path="url(#clip0)">
<circle cx="51.3745" cy="136.085" r="51.3745" fill="#05FF00"/>
<circle cx="51.3745" cy="136.085" r="46.8745" stroke="black" stroke-opacity="0.75" stroke-width="9"/>
<rect x="47.105" y="136.085" width="55.6441" height="51.3745" fill="#05FF00"/>
<rect x="51.605" y="140.585" width="46.6441" height="42.3745" stroke="black" stroke-opacity="0.75" stroke-width="9"/>
<rect y="136.085" width="55.1278" height="51.3745" fill="#05FF00"/>
<rect x="4.5" y="140.585" width="46.1278" height="42.3745" stroke="black" stroke-opacity="0.75" stroke-width="9"/>
<rect x="26.7891" y="140.95" width="34.7694" height="34.7694" transform="rotate(-45 26.7891 140.95)" fill="#05FF00"/>
<rect x="31.7388" y="140.95" width="27.7694" height="27.7694" transform="rotate(-45 31.7388 140.95)" stroke="black" stroke-opacity="0.75" stroke-width="7"/>
<path d="M162.901 58.0835C159.202 57.0203 156.507 55.7176 154.815 54.1753C153.138 52.618 152.299 50.7013 152.299 48.4253C152.299 45.8498 153.325 43.7235 155.376 42.0464C157.443 40.3543 160.123 39.5083 163.417 39.5083C165.664 39.5083 167.663 39.9425 169.415 40.811C171.181 41.6795 172.544 42.8774 173.502 44.4048C174.476 45.9321 174.962 47.6017 174.962 49.4136H170.627C170.627 47.437 169.999 45.8872 168.741 44.7642C167.483 43.6261 165.708 43.0571 163.417 43.0571C161.291 43.0571 159.629 43.5288 158.431 44.4722C157.248 45.4006 156.657 46.6958 156.657 48.3579C156.657 49.6906 157.218 50.8211 158.341 51.7495C159.479 52.6629 161.403 53.5015 164.114 54.2651C166.839 55.0288 168.965 55.8748 170.493 56.8032C172.035 57.7166 173.173 58.7873 173.907 60.0151C174.655 61.243 175.03 62.688 175.03 64.3501C175.03 67.0005 173.997 69.1268 171.93 70.729C169.864 72.3162 167.101 73.1099 163.642 73.1099C161.396 73.1099 159.3 72.6831 157.353 71.8296C155.406 70.9611 153.902 69.7782 152.838 68.2808C151.79 66.7834 151.266 65.0838 151.266 63.1821H155.601C155.601 65.1587 156.327 66.7235 157.78 67.8765C159.247 69.0145 161.201 69.5835 163.642 69.5835C165.918 69.5835 167.663 69.1193 168.875 68.1909C170.088 67.2625 170.695 65.9972 170.695 64.395C170.695 62.7928 170.133 61.5575 169.01 60.689C167.887 59.8055 165.851 58.937 162.901 58.0835ZM184.441 72.6606H180.286V48.3579H184.441V72.6606ZM179.949 41.9116C179.949 41.2378 180.151 40.6688 180.555 40.2046C180.974 39.7404 181.588 39.5083 182.397 39.5083C183.206 39.5083 183.819 39.7404 184.239 40.2046C184.658 40.6688 184.868 41.2378 184.868 41.9116C184.868 42.5854 184.658 43.147 184.239 43.5962C183.819 44.0454 183.206 44.27 182.397 44.27C181.588 44.27 180.974 44.0454 180.555 43.5962C180.151 43.147 179.949 42.5854 179.949 41.9116ZM196.75 42.4731V48.3579H201.287V51.5698H196.75V66.6411C196.75 67.6144 196.952 68.3481 197.356 68.8423C197.76 69.3215 198.449 69.561 199.422 69.561C199.902 69.561 200.56 69.4712 201.399 69.2915V72.6606C200.306 72.9601 199.243 73.1099 198.209 73.1099C196.353 73.1099 194.953 72.5483 194.009 71.4253C193.066 70.3022 192.594 68.7075 192.594 66.6411V51.5698H188.169V48.3579H192.594V42.4731H196.75ZM216.246 73.1099C212.951 73.1099 210.271 72.0317 208.205 69.8755C206.138 67.7043 205.105 64.8068 205.105 61.1831V60.4194C205.105 58.0086 205.562 55.8599 206.475 53.9731C207.403 52.0715 208.691 50.589 210.338 49.5259C212 48.4478 213.797 47.9087 215.729 47.9087C218.889 47.9087 221.344 48.9494 223.096 51.0308C224.848 53.1121 225.724 56.092 225.724 59.9702V61.6997H209.26C209.32 64.0955 210.016 66.0347 211.349 67.5171C212.697 68.9845 214.404 69.7183 216.47 69.7183C217.938 69.7183 219.181 69.4188 220.199 68.8198C221.217 68.2209 222.108 67.4272 222.872 66.439L225.41 68.4155C223.373 71.5451 220.319 73.1099 216.246 73.1099ZM215.729 51.3228C214.052 51.3228 212.644 51.9367 211.506 53.1646C210.368 54.3774 209.665 56.0845 209.395 58.2856H221.569V57.9712C221.449 55.8599 220.88 54.2277 219.862 53.0747C218.844 51.9067 217.466 51.3228 215.729 51.3228ZM231.384 75.4683H227.813L241.469 39.9575H245.018L231.384 75.4683ZM263.661 66.2144C263.661 65.0913 263.234 64.2228 262.38 63.6089C261.542 62.98 260.067 62.4409 257.956 61.9917C255.859 61.5425 254.19 61.0034 252.947 60.3745C251.719 59.7456 250.806 58.9969 250.207 58.1284C249.623 57.2599 249.331 56.2267 249.331 55.0288C249.331 53.0373 250.169 51.3527 251.846 49.9751C253.538 48.5975 255.694 47.9087 258.315 47.9087C261.07 47.9087 263.301 48.62 265.008 50.0425C266.73 51.465 267.591 53.2843 267.591 55.5005H263.414C263.414 54.3625 262.927 53.3817 261.954 52.5581C260.995 51.7345 259.782 51.3228 258.315 51.3228C256.803 51.3228 255.62 51.6522 254.766 52.311C253.913 52.9699 253.486 53.8309 253.486 54.894C253.486 55.8973 253.883 56.6535 254.676 57.1626C255.47 57.6717 256.9 58.1584 258.966 58.6226C261.048 59.0868 262.732 59.6408 264.02 60.2847C265.308 60.9285 266.259 61.7072 266.873 62.6206C267.501 63.519 267.816 64.6196 267.816 65.9224C267.816 68.0936 266.947 69.8381 265.21 71.1558C263.473 72.4585 261.22 73.1099 258.45 73.1099C256.503 73.1099 254.781 72.7655 253.284 72.0767C251.786 71.3879 250.611 70.4295 249.757 69.2017C248.919 67.9588 248.5 66.6187 248.5 65.1812H252.655C252.73 66.5737 253.284 67.6818 254.317 68.5054C255.365 69.314 256.743 69.7183 258.45 69.7183C260.022 69.7183 261.28 69.4038 262.223 68.7749C263.181 68.131 263.661 67.2775 263.661 66.2144ZM283.314 73.1099C280.02 73.1099 277.339 72.0317 275.273 69.8755C273.207 67.7043 272.173 64.8068 272.173 61.1831V60.4194C272.173 58.0086 272.63 55.8599 273.543 53.9731C274.472 52.0715 275.76 50.589 277.407 49.5259C279.069 48.4478 280.866 47.9087 282.797 47.9087C285.957 47.9087 288.413 48.9494 290.165 51.0308C291.917 53.1121 292.792 56.092 292.792 59.9702V61.6997H276.329C276.389 64.0955 277.085 66.0347 278.417 67.5171C279.765 68.9845 281.472 69.7183 283.539 69.7183C285.006 69.7183 286.249 69.4188 287.267 68.8198C288.285 68.2209 289.176 67.4272 289.94 66.439L292.478 68.4155C290.442 71.5451 287.387 73.1099 283.314 73.1099ZM282.797 51.3228C281.12 51.3228 279.713 51.9367 278.575 53.1646C277.437 54.3774 276.733 56.0845 276.463 58.2856H288.637V57.9712C288.517 55.8599 287.948 54.2277 286.93 53.0747C285.912 51.9067 284.534 51.3228 282.797 51.3228ZM309.369 52.0864C308.74 51.9816 308.058 51.9292 307.325 51.9292C304.599 51.9292 302.75 53.0897 301.777 55.4106V72.6606H297.622V48.3579H301.665L301.732 51.1655C303.095 48.9943 305.026 47.9087 307.527 47.9087C308.335 47.9087 308.949 48.0135 309.369 48.2231V52.0864ZM321.632 67.0229L327.652 48.3579H331.897L323.182 72.6606H320.015L311.21 48.3579H315.456L321.632 67.0229ZM340.41 72.6606H336.254V48.3579H340.41V72.6606ZM335.917 41.9116C335.917 41.2378 336.12 40.6688 336.524 40.2046C336.943 39.7404 337.557 39.5083 338.366 39.5083C339.174 39.5083 339.788 39.7404 340.208 40.2046C340.627 40.6688 340.836 41.2378 340.836 41.9116C340.836 42.5854 340.627 43.147 340.208 43.5962C339.788 44.0454 339.174 44.27 338.366 44.27C337.557 44.27 336.943 44.0454 336.524 43.5962C336.12 43.147 335.917 42.5854 335.917 41.9116ZM356.829 69.7183C358.311 69.7183 359.606 69.269 360.714 68.3706C361.822 67.4722 362.436 66.3491 362.556 65.0015H366.487C366.412 66.394 365.933 67.7192 365.049 68.9771C364.166 70.2349 362.983 71.2381 361.5 71.9868C360.033 72.7355 358.476 73.1099 356.829 73.1099C353.519 73.1099 350.884 72.0093 348.922 69.8081C346.976 67.592 346.002 64.5672 346.002 60.7339V60.0376C346.002 57.6717 346.437 55.5679 347.305 53.7261C348.174 51.8843 349.417 50.4543 351.034 49.436C352.666 48.4178 354.59 47.9087 356.806 47.9087C359.531 47.9087 361.792 48.7248 363.589 50.3569C365.401 51.9891 366.367 54.1079 366.487 56.7134H362.556C362.436 55.1411 361.837 53.8534 360.759 52.8501C359.696 51.8319 358.378 51.3228 356.806 51.3228C354.695 51.3228 353.055 52.0864 351.887 53.6138C350.734 55.1261 350.158 57.3198 350.158 60.1948V60.981C350.158 63.7811 350.734 65.9373 351.887 67.4497C353.04 68.9621 354.687 69.7183 356.829 69.7183ZM381.244 73.1099C377.949 73.1099 375.269 72.0317 373.203 69.8755C371.136 67.7043 370.103 64.8068 370.103 61.1831V60.4194C370.103 58.0086 370.56 55.8599 371.473 53.9731C372.402 52.0715 373.689 50.589 375.336 49.5259C376.999 48.4478 378.795 47.9087 380.727 47.9087C383.887 47.9087 386.342 48.9494 388.094 51.0308C389.846 53.1121 390.722 56.092 390.722 59.9702V61.6997H374.258C374.318 64.0955 375.014 66.0347 376.347 67.5171C377.695 68.9845 379.402 69.7183 381.468 69.7183C382.936 69.7183 384.179 69.4188 385.197 68.8198C386.215 68.2209 387.106 67.4272 387.87 66.439L390.408 68.4155C388.371 71.5451 385.317 73.1099 381.244 73.1099ZM380.727 51.3228C379.05 51.3228 377.642 51.9367 376.504 53.1646C375.366 54.3774 374.663 56.0845 374.393 58.2856H386.567V57.9712C386.447 55.8599 385.878 54.2277 384.86 53.0747C383.842 51.9067 382.464 51.3228 380.727 51.3228Z" fill="black"/>
<path d="M157.6 140.718H173.098V144.245H153.265V111.542H157.6V140.718ZM192.37 144.245C192.13 143.765 191.935 142.912 191.786 141.684C189.854 143.691 187.548 144.694 184.868 144.694C182.472 144.694 180.503 144.02 178.96 142.672C177.433 141.31 176.669 139.588 176.669 137.506C176.669 134.976 177.628 133.014 179.544 131.622C181.476 130.214 184.186 129.51 187.675 129.51H191.718V127.601C191.718 126.149 191.284 124.996 190.416 124.142C189.547 123.274 188.267 122.839 186.575 122.839C185.092 122.839 183.849 123.214 182.846 123.962C181.843 124.711 181.341 125.617 181.341 126.68H177.164C177.164 125.467 177.59 124.299 178.444 123.176C179.312 122.038 180.48 121.14 181.948 120.481C183.43 119.822 185.055 119.493 186.822 119.493C189.622 119.493 191.816 120.196 193.403 121.604C194.99 122.997 195.814 124.921 195.874 127.376V138.562C195.874 140.793 196.158 142.568 196.727 143.885V144.245H192.37ZM185.474 141.078C186.777 141.078 188.012 140.741 189.18 140.067C190.348 139.393 191.194 138.517 191.718 137.439V132.453H188.461C183.37 132.453 180.825 133.943 180.825 136.922C180.825 138.225 181.259 139.243 182.127 139.977C182.996 140.711 184.111 141.078 185.474 141.078ZM216.538 137.798C216.538 136.675 216.111 135.807 215.257 135.193C214.419 134.564 212.944 134.025 210.833 133.576C208.736 133.126 207.067 132.587 205.824 131.958C204.596 131.33 203.682 130.581 203.083 129.712C202.5 128.844 202.208 127.811 202.208 126.613C202.208 124.621 203.046 122.937 204.723 121.559C206.415 120.181 208.571 119.493 211.192 119.493C213.947 119.493 216.178 120.204 217.885 121.626C219.607 123.049 220.468 124.868 220.468 127.084H216.291C216.291 125.946 215.804 124.966 214.831 124.142C213.872 123.319 212.659 122.907 211.192 122.907C209.68 122.907 208.497 123.236 207.643 123.895C206.79 124.554 206.363 125.415 206.363 126.478C206.363 127.481 206.76 128.237 207.553 128.747C208.347 129.256 209.777 129.742 211.843 130.207C213.925 130.671 215.609 131.225 216.897 131.869C218.185 132.513 219.136 133.291 219.75 134.205C220.378 135.103 220.693 136.204 220.693 137.506C220.693 139.678 219.824 141.422 218.087 142.74C216.35 144.042 214.097 144.694 211.327 144.694C209.38 144.694 207.658 144.349 206.161 143.661C204.663 142.972 203.488 142.014 202.634 140.786C201.796 139.543 201.376 138.203 201.376 136.765H205.532C205.607 138.158 206.161 139.266 207.194 140.089C208.242 140.898 209.62 141.302 211.327 141.302C212.899 141.302 214.157 140.988 215.1 140.359C216.058 139.715 216.538 138.861 216.538 137.798ZM231.744 114.057V119.942H236.281V123.154H231.744V138.225C231.744 139.198 231.946 139.932 232.35 140.426C232.754 140.905 233.443 141.145 234.417 141.145C234.896 141.145 235.555 141.055 236.393 140.875V144.245C235.3 144.544 234.237 144.694 233.204 144.694C231.347 144.694 229.947 144.132 229.003 143.009C228.06 141.886 227.588 140.292 227.588 138.225V123.154H223.164V119.942H227.588V114.057H231.744ZM266.917 111.542H271.252V134.699C271.252 137.828 270.309 140.277 268.422 142.043C266.551 143.81 264.05 144.694 260.92 144.694C257.671 144.694 255.14 143.863 253.329 142.201C251.517 140.539 250.611 138.21 250.611 135.215H254.923C254.923 137.087 255.432 138.547 256.451 139.595C257.484 140.643 258.974 141.167 260.92 141.167C262.702 141.167 264.14 140.606 265.233 139.483C266.341 138.36 266.903 136.788 266.917 134.766V111.542ZM288.031 144.694C284.736 144.694 282.056 143.616 279.99 141.459C277.923 139.288 276.89 136.391 276.89 132.767V132.003C276.89 129.593 277.347 127.444 278.26 125.557C279.189 123.655 280.476 122.173 282.124 121.11C283.786 120.032 285.583 119.493 287.514 119.493C290.674 119.493 293.129 120.533 294.881 122.615C296.633 124.696 297.509 127.676 297.509 131.554V133.284H281.045C281.105 135.68 281.802 137.619 283.134 139.101C284.482 140.569 286.189 141.302 288.255 141.302C289.723 141.302 290.966 141.003 291.984 140.404C293.002 139.805 293.893 139.011 294.657 138.023L297.195 140C295.158 143.129 292.104 144.694 288.031 144.694ZM287.514 122.907C285.837 122.907 284.43 123.521 283.292 124.749C282.153 125.961 281.45 127.668 281.18 129.87H293.354V129.555C293.234 127.444 292.665 125.812 291.647 124.659C290.629 123.491 289.251 122.907 287.514 122.907ZM306.269 119.942L306.404 122.997C308.261 120.661 310.686 119.493 313.681 119.493C318.817 119.493 321.408 122.39 321.453 128.185V144.245H317.297V128.163C317.282 126.411 316.878 125.115 316.084 124.277C315.306 123.438 314.085 123.019 312.423 123.019C311.076 123.019 309.893 123.378 308.875 124.097C307.856 124.816 307.063 125.759 306.494 126.927V144.245H302.338V119.942H306.269ZM334.502 132.992L331.897 135.709V144.245H327.742V109.745H331.897V130.611L334.121 127.938L341.69 119.942H346.744L337.288 130.094L347.844 144.245H342.97L334.502 132.992ZM355.548 144.245H351.393V119.942H355.548V144.245ZM351.056 113.496C351.056 112.822 351.258 112.253 351.663 111.789C352.082 111.324 352.696 111.092 353.504 111.092C354.313 111.092 354.927 111.324 355.346 111.789C355.765 112.253 355.975 112.822 355.975 113.496C355.975 114.169 355.765 114.731 355.346 115.18C354.927 115.629 354.313 115.854 353.504 115.854C352.696 115.854 352.082 115.629 351.663 115.18C351.258 114.731 351.056 114.169 351.056 113.496ZM366.15 119.942L366.285 122.997C368.141 120.661 370.567 119.493 373.562 119.493C378.698 119.493 381.289 122.39 381.333 128.185V144.245H377.178V128.163C377.163 126.411 376.759 125.115 375.965 124.277C375.187 123.438 373.966 123.019 372.304 123.019C370.957 123.019 369.774 123.378 368.755 124.097C367.737 124.816 366.944 125.759 366.375 126.927V144.245H362.219V119.942H366.15ZM401.75 137.798C401.75 136.675 401.324 135.807 400.47 135.193C399.632 134.564 398.157 134.025 396.045 133.576C393.949 133.126 392.279 132.587 391.037 131.958C389.809 131.33 388.895 130.581 388.296 129.712C387.712 128.844 387.42 127.811 387.42 126.613C387.42 124.621 388.259 122.937 389.936 121.559C391.628 120.181 393.784 119.493 396.405 119.493C399.16 119.493 401.391 120.204 403.098 121.626C404.82 123.049 405.681 124.868 405.681 127.084H401.503C401.503 125.946 401.017 124.966 400.043 124.142C399.085 123.319 397.872 122.907 396.405 122.907C394.892 122.907 393.709 123.236 392.856 123.895C392.002 124.554 391.576 125.415 391.576 126.478C391.576 127.481 391.972 128.237 392.766 128.747C393.56 129.256 394.99 129.742 397.056 130.207C399.138 130.671 400.822 131.225 402.11 131.869C403.398 132.513 404.348 133.291 404.962 134.205C405.591 135.103 405.906 136.204 405.906 137.506C405.906 139.678 405.037 141.422 403.3 142.74C401.563 144.042 399.31 144.694 396.54 144.694C394.593 144.694 392.871 144.349 391.374 143.661C389.876 142.972 388.701 142.014 387.847 140.786C387.009 139.543 386.589 138.203 386.589 136.765H390.745C390.819 138.158 391.374 139.266 392.407 140.089C393.455 140.898 394.833 141.302 396.54 141.302C398.112 141.302 399.37 140.988 400.313 140.359C401.271 139.715 401.75 138.861 401.75 137.798ZM443.303 132.363C443.303 136.076 442.45 139.064 440.743 141.325C439.036 143.571 436.745 144.694 433.87 144.694C430.8 144.694 428.427 143.608 426.75 141.437L426.547 144.245H422.729V109.745H426.884V122.615C428.561 120.533 430.875 119.493 433.825 119.493C436.775 119.493 439.088 120.608 440.765 122.839C442.457 125.07 443.303 128.125 443.303 132.003V132.363ZM439.148 131.891C439.148 129.061 438.601 126.875 437.508 125.333C436.415 123.79 434.843 123.019 432.792 123.019C430.051 123.019 428.082 124.292 426.884 126.837V137.349C428.157 139.895 430.141 141.167 432.836 141.167C434.828 141.167 436.378 140.396 437.486 138.854C438.594 137.312 439.148 134.991 439.148 131.891ZM463.563 141.841C461.946 143.743 459.572 144.694 456.443 144.694C453.852 144.694 451.876 143.945 450.513 142.448C449.166 140.935 448.484 138.704 448.469 135.754V119.942H452.625V135.642C452.625 139.326 454.122 141.167 457.117 141.167C460.291 141.167 462.403 139.985 463.451 137.619V119.942H467.606V144.245H463.653L463.563 141.841ZM478.455 144.245H474.299V119.942H478.455V144.245ZM473.962 113.496C473.962 112.822 474.165 112.253 474.569 111.789C474.988 111.324 475.602 111.092 476.411 111.092C477.219 111.092 477.833 111.324 478.252 111.789C478.672 112.253 478.881 112.822 478.881 113.496C478.881 114.169 478.672 114.731 478.252 115.18C477.833 115.629 477.219 115.854 476.411 115.854C475.602 115.854 474.988 115.629 474.569 115.18C474.165 114.731 473.962 114.169 473.962 113.496ZM489.64 144.245H485.485V109.745H489.64V144.245ZM495.3 131.891C495.3 128.163 496.184 125.168 497.951 122.907C499.718 120.631 502.031 119.493 504.891 119.493C507.736 119.493 509.99 120.466 511.652 122.413V109.745H515.807V144.245H511.989L511.787 141.639C510.125 143.676 507.811 144.694 504.846 144.694C502.031 144.694 499.733 143.541 497.951 141.235C496.184 138.929 495.3 135.919 495.3 132.206V131.891ZM499.456 132.363C499.456 135.118 500.025 137.274 501.163 138.832C502.301 140.389 503.873 141.167 505.879 141.167C508.515 141.167 510.439 139.985 511.652 137.619V126.456C510.409 124.165 508.5 123.019 505.924 123.019C503.888 123.019 502.301 123.805 501.163 125.377C500.025 126.95 499.456 129.278 499.456 132.363ZM533.529 130.97C533.529 127.586 533.978 124.337 534.876 121.222C535.79 118.108 537.145 115.278 538.942 112.732C540.739 110.186 542.603 108.389 544.535 107.341L545.388 110.082C543.202 111.759 541.405 114.319 539.998 117.763C538.605 121.207 537.841 125.063 537.707 129.331L537.684 131.24C537.684 137.02 538.74 142.036 540.851 146.289C542.124 148.834 543.636 150.826 545.388 152.263L544.535 154.801C542.543 153.693 540.641 151.836 538.83 149.231C535.296 144.14 533.529 138.053 533.529 130.97ZM553.923 144.245H549.768V119.942H553.923V144.245ZM549.431 113.496C549.431 112.822 549.633 112.253 550.038 111.789C550.457 111.324 551.071 111.092 551.879 111.092C552.688 111.092 553.302 111.324 553.721 111.789C554.14 112.253 554.35 112.822 554.35 113.496C554.35 114.169 554.14 114.731 553.721 115.18C553.302 115.629 552.688 115.854 551.879 115.854C551.071 115.854 550.457 115.629 550.038 115.18C549.633 114.731 549.431 114.169 549.431 113.496ZM562.638 144.245V123.154H558.797V119.942H562.638V117.449C562.638 114.843 563.334 112.829 564.727 111.407C566.12 109.984 568.089 109.273 570.634 109.273C571.593 109.273 572.543 109.4 573.487 109.655L573.262 113.024C572.558 112.889 571.81 112.822 571.016 112.822C569.668 112.822 568.628 113.219 567.894 114.012C567.16 114.791 566.793 115.914 566.793 117.381V119.942H571.982V123.154H566.793V144.245H562.638ZM603 144.245C602.761 143.765 602.566 142.912 602.417 141.684C600.485 143.691 598.179 144.694 595.499 144.694C593.103 144.694 591.134 144.02 589.591 142.672C588.064 141.31 587.3 139.588 587.3 137.506C587.3 134.976 588.259 133.014 590.175 131.622C592.107 130.214 594.817 129.51 598.306 129.51H602.349V127.601C602.349 126.149 601.915 124.996 601.046 124.142C600.178 123.274 598.898 122.839 597.206 122.839C595.723 122.839 594.48 123.214 593.477 123.962C592.474 124.711 591.972 125.617 591.972 126.68H587.794C587.794 125.467 588.221 124.299 589.075 123.176C589.943 122.038 591.111 121.14 592.579 120.481C594.061 119.822 595.686 119.493 597.453 119.493C600.253 119.493 602.446 120.196 604.034 121.604C605.621 122.997 606.444 124.921 606.504 127.376V138.562C606.504 140.793 606.789 142.568 607.358 143.885V144.245H603ZM596.105 141.078C597.408 141.078 598.643 140.741 599.811 140.067C600.979 139.393 601.825 138.517 602.349 137.439V132.453H599.092C594.001 132.453 591.456 133.943 591.456 136.922C591.456 138.225 591.89 139.243 592.758 139.977C593.627 140.711 594.742 141.078 596.105 141.078ZM633.547 132.363C633.547 136.061 632.701 139.041 631.009 141.302C629.317 143.563 627.026 144.694 624.136 144.694C621.186 144.694 618.865 143.758 617.173 141.886V153.588H613.018V119.942H616.814L617.016 122.637C618.708 120.541 621.059 119.493 624.069 119.493C626.989 119.493 629.295 120.593 630.987 122.794C632.694 124.996 633.547 128.058 633.547 131.981V132.363ZM629.392 131.891C629.392 129.151 628.808 126.987 627.64 125.4C626.472 123.813 624.87 123.019 622.833 123.019C620.318 123.019 618.431 124.135 617.173 126.366V137.978C618.416 140.194 620.318 141.302 622.878 141.302C624.87 141.302 626.45 140.516 627.618 138.944C628.801 137.357 629.392 135.006 629.392 131.891ZM659.377 132.363C659.377 136.061 658.531 139.041 656.839 141.302C655.147 143.563 652.856 144.694 649.966 144.694C647.016 144.694 644.695 143.758 643.003 141.886V153.588H638.848V119.942H642.644L642.846 122.637C644.538 120.541 646.889 119.493 649.899 119.493C652.819 119.493 655.125 120.593 656.817 122.794C658.524 124.996 659.377 128.058 659.377 131.981V132.363ZM655.222 131.891C655.222 129.151 654.638 126.987 653.47 125.4C652.302 123.813 650.7 123.019 648.664 123.019C646.148 123.019 644.261 124.135 643.003 126.366V137.978C644.246 140.194 646.148 141.302 648.708 141.302C650.7 141.302 652.28 140.516 653.448 138.944C654.631 137.357 655.222 135.006 655.222 131.891ZM669.193 144.245H665.038V109.745H669.193V144.245ZM680.378 144.245H676.223V119.942H680.378V144.245ZM675.886 113.496C675.886 112.822 676.088 112.253 676.493 111.789C676.912 111.324 677.526 111.092 678.334 111.092C679.143 111.092 679.757 111.324 680.176 111.789C680.596 112.253 680.805 112.822 680.805 113.496C680.805 114.169 680.596 114.731 680.176 115.18C679.757 115.629 679.143 115.854 678.334 115.854C677.526 115.854 676.912 115.629 676.493 115.18C676.088 114.731 675.886 114.169 675.886 113.496ZM696.797 141.302C698.28 141.302 699.575 140.853 700.683 139.955C701.791 139.056 702.405 137.933 702.525 136.585H706.456C706.381 137.978 705.902 139.303 705.018 140.561C704.135 141.819 702.952 142.822 701.469 143.571C700.002 144.319 698.444 144.694 696.797 144.694C693.488 144.694 690.853 143.593 688.891 141.392C686.944 139.176 685.971 136.151 685.971 132.318V131.622C685.971 129.256 686.405 127.152 687.274 125.31C688.142 123.468 689.385 122.038 691.002 121.02C692.635 120.002 694.559 119.493 696.775 119.493C699.5 119.493 701.761 120.309 703.558 121.941C705.37 123.573 706.336 125.692 706.456 128.297H702.525C702.405 126.725 701.806 125.437 700.728 124.434C699.665 123.416 698.347 122.907 696.775 122.907C694.664 122.907 693.024 123.67 691.856 125.198C690.703 126.71 690.126 128.904 690.126 131.779V132.565C690.126 135.365 690.703 137.521 691.856 139.034C693.009 140.546 694.656 141.302 696.797 141.302ZM726.131 144.245C725.892 143.765 725.697 142.912 725.547 141.684C723.616 143.691 721.31 144.694 718.629 144.694C716.234 144.694 714.264 144.02 712.722 142.672C711.195 141.31 710.431 139.588 710.431 137.506C710.431 134.976 711.389 133.014 713.306 131.622C715.238 130.214 717.948 129.51 721.437 129.51H725.48V127.601C725.48 126.149 725.046 124.996 724.177 124.142C723.309 123.274 722.028 122.839 720.336 122.839C718.854 122.839 717.611 123.214 716.608 123.962C715.605 124.711 715.103 125.617 715.103 126.68H710.925C710.925 125.467 711.352 124.299 712.206 123.176C713.074 122.038 714.242 121.14 715.709 120.481C717.192 119.822 718.817 119.493 720.583 119.493C723.384 119.493 725.577 120.196 727.165 121.604C728.752 122.997 729.575 124.921 729.635 127.376V138.562C729.635 140.793 729.92 142.568 730.489 143.885V144.245H726.131ZM719.236 141.078C720.539 141.078 721.774 140.741 722.942 140.067C724.11 139.393 724.956 138.517 725.48 137.439V132.453H722.223C717.132 132.453 714.586 133.943 714.586 136.922C714.586 138.225 715.021 139.243 715.889 139.977C716.758 140.711 717.873 141.078 719.236 141.078ZM756.723 132.363C756.723 136.076 755.87 139.064 754.163 141.325C752.456 143.571 750.165 144.694 747.29 144.694C744.22 144.694 741.847 143.608 740.169 141.437L739.967 144.245H736.149V109.745H740.304V122.615C741.981 120.533 744.295 119.493 747.245 119.493C750.194 119.493 752.508 120.608 754.185 122.839C755.877 125.07 756.723 128.125 756.723 132.003V132.363ZM752.568 131.891C752.568 129.061 752.021 126.875 750.928 125.333C749.835 123.79 748.263 123.019 746.211 123.019C743.471 123.019 741.502 124.292 740.304 126.837V137.349C741.577 139.895 743.561 141.167 746.256 141.167C748.248 141.167 749.798 140.396 750.906 138.854C752.014 137.312 752.568 134.991 752.568 131.891ZM766.494 144.245H762.338V109.745H766.494V144.245ZM783.25 144.694C779.955 144.694 777.275 143.616 775.208 141.459C773.142 139.288 772.109 136.391 772.109 132.767V132.003C772.109 129.593 772.566 127.444 773.479 125.557C774.407 123.655 775.695 122.173 777.342 121.11C779.004 120.032 780.801 119.493 782.733 119.493C785.892 119.493 788.348 120.533 790.1 122.615C791.852 124.696 792.728 127.676 792.728 131.554V133.284H776.264C776.324 135.68 777.02 137.619 778.353 139.101C779.701 140.569 781.408 141.302 783.474 141.302C784.942 141.302 786.184 141.003 787.203 140.404C788.221 139.805 789.112 139.011 789.875 138.023L792.414 140C790.377 143.129 787.322 144.694 783.25 144.694ZM782.733 122.907C781.056 122.907 779.648 123.521 778.51 124.749C777.372 125.961 776.668 127.668 776.399 129.87H788.573V129.555C788.453 127.444 787.884 125.812 786.866 124.659C785.847 123.491 784.47 122.907 782.733 122.907ZM807.148 131.195C807.148 134.534 806.706 137.738 805.823 140.808C804.954 143.863 803.614 146.685 801.802 149.276C800.005 151.866 798.119 153.708 796.142 154.801L795.266 152.263C797.572 150.496 799.421 147.756 800.814 144.042C802.222 140.314 802.94 136.181 802.97 131.644V130.925C802.97 127.781 802.641 124.861 801.982 122.166C801.323 119.455 800.402 117.029 799.219 114.888C798.051 112.747 796.734 111.077 795.266 109.879L796.142 107.341C798.119 108.434 799.998 110.261 801.78 112.822C803.577 115.382 804.917 118.205 805.8 121.29C806.699 124.374 807.148 127.676 807.148 131.195Z" fill="black"/>
<path d="M162.901 201.252C159.202 200.189 156.507 198.886 154.815 197.344C153.138 195.786 152.299 193.87 152.299 191.594C152.299 189.018 153.325 186.892 155.376 185.215C157.443 183.523 160.123 182.677 163.417 182.677C165.664 182.677 167.663 183.111 169.415 183.979C171.181 184.848 172.544 186.046 173.502 187.573C174.476 189.1 174.962 190.77 174.962 192.582H170.627C170.627 190.605 169.999 189.055 168.741 187.932C167.483 186.794 165.708 186.225 163.417 186.225C161.291 186.225 159.629 186.697 158.431 187.64C157.248 188.569 156.657 189.864 156.657 191.526C156.657 192.859 157.218 193.989 158.341 194.918C159.479 195.831 161.403 196.67 164.114 197.433C166.839 198.197 168.965 199.043 170.493 199.971C172.035 200.885 173.173 201.955 173.907 203.183C174.655 204.411 175.03 205.856 175.03 207.518C175.03 210.169 173.997 212.295 171.93 213.897C169.864 215.484 167.101 216.278 163.642 216.278C161.396 216.278 159.3 215.851 157.353 214.998C155.406 214.129 153.902 212.946 152.838 211.449C151.79 209.952 151.266 208.252 151.266 206.35H155.601C155.601 208.327 156.327 209.892 157.78 211.045C159.247 212.183 161.201 212.752 163.642 212.752C165.918 212.752 167.663 212.288 168.875 211.359C170.088 210.431 170.695 209.165 170.695 207.563C170.695 205.961 170.133 204.726 169.01 203.857C167.887 202.974 165.851 202.105 162.901 201.252ZM190.011 216.278C186.717 216.278 184.037 215.2 181.97 213.044C179.904 210.872 178.871 207.975 178.871 204.351V203.588C178.871 201.177 179.327 199.028 180.241 197.141C181.169 195.24 182.457 193.757 184.104 192.694C185.766 191.616 187.563 191.077 189.495 191.077C192.654 191.077 195.11 192.118 196.862 194.199C198.614 196.28 199.49 199.26 199.49 203.138V204.868H183.026C183.086 207.264 183.782 209.203 185.115 210.685C186.462 212.153 188.169 212.886 190.236 212.886C191.703 212.886 192.946 212.587 193.964 211.988C194.983 211.389 195.874 210.595 196.637 209.607L199.175 211.584C197.139 214.713 194.084 216.278 190.011 216.278ZM189.495 194.491C187.818 194.491 186.41 195.105 185.272 196.333C184.134 197.546 183.43 199.253 183.161 201.454H195.334V201.139C195.215 199.028 194.646 197.396 193.627 196.243C192.609 195.075 191.232 194.491 189.495 194.491ZM216.066 195.255C215.437 195.15 214.756 195.097 214.022 195.097C211.297 195.097 209.447 196.258 208.474 198.579V215.829H204.319V191.526H208.362L208.429 194.334C209.792 192.163 211.723 191.077 214.224 191.077C215.033 191.077 215.647 191.182 216.066 191.391V195.255ZM228.33 210.191L234.349 191.526H238.594L229.879 215.829H226.712L217.908 191.526H222.153L228.33 210.191ZM252.363 216.278C249.069 216.278 246.388 215.2 244.322 213.044C242.255 210.872 241.222 207.975 241.222 204.351V203.588C241.222 201.177 241.679 199.028 242.592 197.141C243.521 195.24 244.808 193.757 246.456 192.694C248.118 191.616 249.915 191.077 251.846 191.077C255.006 191.077 257.461 192.118 259.213 194.199C260.965 196.28 261.841 199.26 261.841 203.138V204.868H245.377C245.437 207.264 246.134 209.203 247.466 210.685C248.814 212.153 250.521 212.886 252.587 212.886C254.055 212.886 255.298 212.587 256.316 211.988C257.334 211.389 258.225 210.595 258.989 209.607L261.527 211.584C259.49 214.713 256.436 216.278 252.363 216.278ZM251.846 194.491C250.169 194.491 248.762 195.105 247.624 196.333C246.486 197.546 245.782 199.253 245.512 201.454H257.686V201.139C257.566 199.028 256.997 197.396 255.979 196.243C254.961 195.075 253.583 194.491 251.846 194.491ZM278.417 195.255C277.789 195.15 277.107 195.097 276.374 195.097C273.648 195.097 271.799 196.258 270.826 198.579V215.829H266.67V191.526H270.713L270.781 194.334C272.143 192.163 274.075 191.077 276.576 191.077C277.384 191.077 277.998 191.182 278.417 191.391V195.255ZM296.409 209.383C296.409 208.26 295.982 207.391 295.128 206.777C294.29 206.148 292.815 205.609 290.704 205.16C288.607 204.711 286.938 204.172 285.695 203.543C284.467 202.914 283.554 202.165 282.955 201.297C282.371 200.428 282.079 199.395 282.079 198.197C282.079 196.205 282.917 194.521 284.594 193.143C286.286 191.766 288.443 191.077 291.063 191.077C293.818 191.077 296.049 191.788 297.756 193.211C299.478 194.633 300.339 196.453 300.339 198.669H296.162C296.162 197.531 295.675 196.55 294.702 195.726C293.743 194.903 292.53 194.491 291.063 194.491C289.551 194.491 288.368 194.82 287.514 195.479C286.661 196.138 286.234 196.999 286.234 198.062C286.234 199.066 286.631 199.822 287.424 200.331C288.218 200.84 289.648 201.327 291.714 201.791C293.796 202.255 295.48 202.809 296.768 203.453C298.056 204.097 299.007 204.875 299.621 205.789C300.25 206.687 300.564 207.788 300.564 209.091C300.564 211.262 299.695 213.006 297.958 214.324C296.222 215.627 293.968 216.278 291.198 216.278C289.251 216.278 287.529 215.934 286.032 215.245C284.534 214.556 283.359 213.598 282.505 212.37C281.667 211.127 281.248 209.787 281.248 208.349H285.403C285.478 209.742 286.032 210.85 287.065 211.674C288.113 212.482 289.491 212.886 291.198 212.886C292.77 212.886 294.028 212.572 294.971 211.943C295.93 211.299 296.409 210.446 296.409 209.383ZM323.025 185.641V191.526H327.562V194.738H323.025V209.809C323.025 210.783 323.227 211.516 323.631 212.01C324.036 212.49 324.724 212.729 325.698 212.729C326.177 212.729 326.836 212.639 327.674 212.46V215.829C326.581 216.128 325.518 216.278 324.485 216.278C322.628 216.278 321.228 215.717 320.285 214.594C319.341 213.47 318.87 211.876 318.87 209.809V194.738H314.445V191.526H318.87V185.641H323.025ZM336.591 194.469C338.433 192.207 340.829 191.077 343.779 191.077C348.915 191.077 351.505 193.974 351.55 199.769V215.829H347.395V199.747C347.38 197.995 346.976 196.7 346.182 195.861C345.403 195.023 344.183 194.603 342.521 194.603C341.173 194.603 339.99 194.963 338.972 195.681C337.954 196.4 337.16 197.344 336.591 198.511V215.829H332.436V181.329H336.591V194.469ZM372.776 215.829C372.536 215.35 372.342 214.496 372.192 213.268C370.26 215.275 367.954 216.278 365.274 216.278C362.878 216.278 360.909 215.604 359.367 214.257C357.839 212.894 357.076 211.172 357.076 209.091C357.076 206.56 358.034 204.598 359.951 203.206C361.882 201.798 364.593 201.094 368.082 201.094H372.125V199.185C372.125 197.733 371.69 196.58 370.822 195.726C369.953 194.858 368.673 194.424 366.981 194.424C365.499 194.424 364.256 194.798 363.252 195.547C362.249 196.295 361.748 197.201 361.748 198.264H357.57C357.57 197.052 357.997 195.884 358.85 194.76C359.719 193.622 360.887 192.724 362.354 192.065C363.836 191.406 365.461 191.077 367.228 191.077C370.028 191.077 372.222 191.781 373.809 193.188C375.396 194.581 376.22 196.505 376.28 198.961V210.146C376.28 212.377 376.564 214.152 377.133 215.469V215.829H372.776ZM365.88 212.662C367.183 212.662 368.418 212.325 369.586 211.651C370.754 210.977 371.6 210.101 372.125 209.023V204.037H368.868C363.777 204.037 361.231 205.527 361.231 208.507C361.231 209.809 361.665 210.828 362.534 211.561C363.402 212.295 364.518 212.662 365.88 212.662ZM388.431 185.641V191.526H392.968V194.738H388.431V209.809C388.431 210.783 388.633 211.516 389.038 212.01C389.442 212.49 390.131 212.729 391.104 212.729C391.583 212.729 392.242 212.639 393.081 212.46V215.829C391.987 216.128 390.924 216.278 389.891 216.278C388.034 216.278 386.634 215.717 385.691 214.594C384.748 213.47 384.276 211.876 384.276 209.809V194.738H379.851V191.526H384.276V185.641H388.431ZM416.036 204.576L413.43 207.294V215.829H409.275V181.329H413.43V202.195L415.654 199.522L423.223 191.526H428.277L418.821 201.678L429.377 215.829H424.503L416.036 204.576ZM442.203 216.278C438.908 216.278 436.228 215.2 434.162 213.044C432.095 210.872 431.062 207.975 431.062 204.351V203.588C431.062 201.177 431.519 199.028 432.432 197.141C433.361 195.24 434.648 193.757 436.295 192.694C437.958 191.616 439.754 191.077 441.686 191.077C444.846 191.077 447.301 192.118 449.053 194.199C450.805 196.28 451.681 199.26 451.681 203.138V204.868H435.217C435.277 207.264 435.973 209.203 437.306 210.685C438.654 212.153 440.361 212.886 442.427 212.886C443.895 212.886 445.138 212.587 446.156 211.988C447.174 211.389 448.065 210.595 448.829 209.607L451.367 211.584C449.33 214.713 446.276 216.278 442.203 216.278ZM441.686 194.491C440.009 194.491 438.601 195.105 437.463 196.333C436.325 197.546 435.622 199.253 435.352 201.454H447.526V201.139C447.406 199.028 446.837 197.396 445.819 196.243C444.801 195.075 443.423 194.491 441.686 194.491ZM466.595 216.278C463.301 216.278 460.621 215.2 458.554 213.044C456.488 210.872 455.455 207.975 455.455 204.351V203.588C455.455 201.177 455.911 199.028 456.825 197.141C457.753 195.24 459.041 193.757 460.688 192.694C462.35 191.616 464.147 191.077 466.079 191.077C469.238 191.077 471.694 192.118 473.446 194.199C475.198 196.28 476.074 199.26 476.074 203.138V204.868H459.61C459.67 207.264 460.366 209.203 461.699 210.685C463.046 212.153 464.753 212.886 466.82 212.886C468.287 212.886 469.53 212.587 470.548 211.988C471.567 211.389 472.458 210.595 473.221 209.607L475.759 211.584C473.723 214.713 470.668 216.278 466.595 216.278ZM466.079 194.491C464.402 194.491 462.994 195.105 461.856 196.333C460.718 197.546 460.014 199.253 459.745 201.454H471.918V201.139C471.799 199.028 471.23 197.396 470.211 196.243C469.193 195.075 467.816 194.491 466.079 194.491ZM501.432 203.947C501.432 207.646 500.586 210.625 498.894 212.886C497.202 215.148 494.911 216.278 492.021 216.278C489.071 216.278 486.75 215.342 485.058 213.47V225.173H480.903V191.526H484.699L484.901 194.221C486.593 192.125 488.944 191.077 491.954 191.077C494.874 191.077 497.18 192.177 498.872 194.379C500.579 196.58 501.432 199.642 501.432 203.565V203.947ZM497.277 203.475C497.277 200.735 496.693 198.571 495.525 196.984C494.357 195.397 492.755 194.603 490.718 194.603C488.203 194.603 486.316 195.719 485.058 197.95V209.562C486.301 211.778 488.203 212.886 490.763 212.886C492.755 212.886 494.334 212.1 495.502 210.528C496.685 208.941 497.277 206.59 497.277 203.475ZM523.781 185.641V191.526H528.318V194.738H523.781V209.809C523.781 210.783 523.983 211.516 524.387 212.01C524.792 212.49 525.48 212.729 526.454 212.729C526.933 212.729 527.592 212.639 528.43 212.46V215.829C527.337 216.128 526.274 216.278 525.241 216.278C523.384 216.278 521.984 215.717 521.041 214.594C520.097 213.47 519.625 211.876 519.625 209.809V194.738H515.201V191.526H519.625V185.641H523.781ZM537.347 194.469C539.189 192.207 541.585 191.077 544.535 191.077C549.671 191.077 552.261 193.974 552.306 199.769V215.829H548.151V199.747C548.136 197.995 547.732 196.7 546.938 195.861C546.159 195.023 544.939 194.603 543.277 194.603C541.929 194.603 540.746 194.963 539.728 195.681C538.71 196.4 537.916 197.344 537.347 198.511V215.829H533.192V181.329H537.347V194.469ZM568.613 216.278C565.319 216.278 562.638 215.2 560.572 213.044C558.505 210.872 557.472 207.975 557.472 204.351V203.588C557.472 201.177 557.929 199.028 558.842 197.141C559.771 195.24 561.058 193.757 562.706 192.694C564.368 191.616 566.165 191.077 568.096 191.077C571.256 191.077 573.711 192.118 575.463 194.199C577.215 196.28 578.091 199.26 578.091 203.138V204.868H561.627C561.687 207.264 562.384 209.203 563.716 210.685C565.064 212.153 566.771 212.886 568.837 212.886C570.305 212.886 571.548 212.587 572.566 211.988C573.584 211.389 574.475 210.595 575.239 209.607L577.777 211.584C575.74 214.713 572.686 216.278 568.613 216.278ZM568.096 194.491C566.419 194.491 565.012 195.105 563.874 196.333C562.736 197.546 562.032 199.253 561.762 201.454H573.936V201.139C573.816 199.028 573.247 197.396 572.229 196.243C571.211 195.075 569.833 194.491 568.096 194.491ZM608.481 209.383C608.481 208.26 608.054 207.391 607.201 206.777C606.362 206.148 604.887 205.609 602.776 205.16C600.68 204.711 599.01 204.172 597.767 203.543C596.539 202.914 595.626 202.165 595.027 201.297C594.443 200.428 594.151 199.395 594.151 198.197C594.151 196.205 594.989 194.521 596.667 193.143C598.359 191.766 600.515 191.077 603.135 191.077C605.89 191.077 608.122 191.788 609.829 193.211C611.551 194.633 612.412 196.453 612.412 198.669H608.234C608.234 197.531 607.747 196.55 606.774 195.726C605.816 194.903 604.603 194.491 603.135 194.491C601.623 194.491 600.44 194.82 599.586 195.479C598.733 196.138 598.306 196.999 598.306 198.062C598.306 199.066 598.703 199.822 599.497 200.331C600.29 200.84 601.72 201.327 603.787 201.791C605.868 202.255 607.553 202.809 608.84 203.453C610.128 204.097 611.079 204.875 611.693 205.789C612.322 206.687 612.636 207.788 612.636 209.091C612.636 211.262 611.768 213.006 610.031 214.324C608.294 215.627 606.04 216.278 603.27 216.278C601.323 216.278 599.601 215.934 598.104 215.245C596.607 214.556 595.431 213.598 594.578 212.37C593.739 211.127 593.32 209.787 593.32 208.349H597.475C597.55 209.742 598.104 210.85 599.137 211.674C600.185 212.482 601.563 212.886 603.27 212.886C604.842 212.886 606.1 212.572 607.043 211.943C608.002 211.299 608.481 210.446 608.481 209.383ZM628.134 216.278C624.84 216.278 622.16 215.2 620.093 213.044C618.027 210.872 616.994 207.975 616.994 204.351V203.588C616.994 201.177 617.45 199.028 618.364 197.141C619.292 195.24 620.58 193.757 622.227 192.694C623.889 191.616 625.686 191.077 627.618 191.077C630.777 191.077 633.233 192.118 634.985 194.199C636.737 196.28 637.613 199.26 637.613 203.138V204.868H621.149C621.209 207.264 621.905 209.203 623.238 210.685C624.585 212.153 626.292 212.886 628.359 212.886C629.826 212.886 631.069 212.587 632.087 211.988C633.106 211.389 633.997 210.595 634.76 209.607L637.298 211.584C635.262 214.713 632.207 216.278 628.134 216.278ZM627.618 194.491C625.941 194.491 624.533 195.105 623.395 196.333C622.257 197.546 621.553 199.253 621.284 201.454H633.458V201.139C633.338 199.028 632.769 197.396 631.75 196.243C630.732 195.075 629.355 194.491 627.618 194.491ZM654.189 195.255C653.56 195.15 652.879 195.097 652.145 195.097C649.42 195.097 647.57 196.258 646.597 198.579V215.829H642.442V191.526H646.485L646.552 194.334C647.915 192.163 649.847 191.077 652.347 191.077C653.156 191.077 653.77 191.182 654.189 191.391V195.255ZM666.453 210.191L672.472 191.526H676.717L668.002 215.829H664.835L656.031 191.526H660.276L666.453 210.191ZM685.23 215.829H681.075V191.526H685.23V215.829ZM680.738 185.08C680.738 184.406 680.94 183.837 681.344 183.373C681.764 182.909 682.377 182.677 683.186 182.677C683.995 182.677 684.609 182.909 685.028 183.373C685.447 183.837 685.657 184.406 685.657 185.08C685.657 185.754 685.447 186.315 685.028 186.764C684.609 187.214 683.995 187.438 683.186 187.438C682.377 187.438 681.764 187.214 681.344 186.764C680.94 186.315 680.738 185.754 680.738 185.08ZM701.649 212.886C703.131 212.886 704.427 212.437 705.535 211.539C706.643 210.64 707.257 209.517 707.376 208.17H711.307C711.232 209.562 710.753 210.887 709.87 212.145C708.986 213.403 707.803 214.406 706.321 215.155C704.853 215.904 703.296 216.278 701.649 216.278C698.34 216.278 695.704 215.177 693.743 212.976C691.796 210.76 690.823 207.735 690.823 203.902V203.206C690.823 200.84 691.257 198.736 692.125 196.894C692.994 195.052 694.237 193.622 695.854 192.604C697.486 191.586 699.41 191.077 701.626 191.077C704.352 191.077 706.613 191.893 708.41 193.525C710.222 195.157 711.187 197.276 711.307 199.882H707.376C707.257 198.309 706.658 197.022 705.58 196.018C704.516 195 703.199 194.491 701.626 194.491C699.515 194.491 697.875 195.255 696.708 196.782C695.555 198.294 694.978 200.488 694.978 203.363V204.149C694.978 206.949 695.555 209.106 696.708 210.618C697.861 212.13 699.508 212.886 701.649 212.886ZM726.064 216.278C722.77 216.278 720.089 215.2 718.023 213.044C715.957 210.872 714.923 207.975 714.923 204.351V203.588C714.923 201.177 715.38 199.028 716.293 197.141C717.222 195.24 718.51 193.757 720.157 192.694C721.819 191.616 723.616 191.077 725.547 191.077C728.707 191.077 731.163 192.118 732.915 194.199C734.667 196.28 735.542 199.26 735.542 203.138V204.868H719.079C719.139 207.264 719.835 209.203 721.167 210.685C722.515 212.153 724.222 212.886 726.289 212.886C727.756 212.886 728.999 212.587 730.017 211.988C731.035 211.389 731.926 210.595 732.69 209.607L735.228 211.584C733.192 214.713 730.137 216.278 726.064 216.278ZM725.547 194.491C723.87 194.491 722.463 195.105 721.325 196.333C720.187 197.546 719.483 199.253 719.213 201.454H731.387V201.139C731.267 199.028 730.698 197.396 729.68 196.243C728.662 195.075 727.284 194.491 725.547 194.491ZM756.296 215.829H752.141V181.329H756.296V215.829ZM767.482 215.829H763.327V191.526H767.482V215.829ZM762.99 185.08C762.99 184.406 763.192 183.837 763.596 183.373C764.015 182.909 764.629 182.677 765.438 182.677C766.247 182.677 766.861 182.909 767.28 183.373C767.699 183.837 767.909 184.406 767.909 185.08C767.909 185.754 767.699 186.315 767.28 186.764C766.861 187.214 766.247 187.438 765.438 187.438C764.629 187.438 764.015 187.214 763.596 186.764C763.192 186.315 762.99 185.754 762.99 185.08ZM782.171 210.191L788.191 191.526H792.436L783.721 215.829H780.554L771.75 191.526H775.995L782.171 210.191ZM806.205 216.278C802.91 216.278 800.23 215.2 798.164 213.044C796.097 210.872 795.064 207.975 795.064 204.351V203.588C795.064 201.177 795.521 199.028 796.434 197.141C797.362 195.24 798.65 193.757 800.297 192.694C801.959 191.616 803.756 191.077 805.688 191.077C808.847 191.077 811.303 192.118 813.055 194.199C814.807 196.28 815.683 199.26 815.683 203.138V204.868H799.219C799.279 207.264 799.975 209.203 801.308 210.685C802.656 212.153 804.363 212.886 806.429 212.886C807.897 212.886 809.139 212.587 810.158 211.988C811.176 211.389 812.067 210.595 812.831 209.607L815.369 211.584C813.332 214.713 810.278 216.278 806.205 216.278ZM805.688 194.491C804.011 194.491 802.603 195.105 801.465 196.333C800.327 197.546 799.624 199.253 799.354 201.454H811.528V201.139C811.408 199.028 810.839 197.396 809.821 196.243C808.803 195.075 807.425 194.491 805.688 194.491Z" fill="black"/>
<path d="M123.767 200.988H78.633M26.7891 166.673V200.988H78.633M78.633 166.673V200.988" stroke="black" stroke-width="3"/>
<path d="M52.3909 138.75L63.7378 127.096L122.627 126.158" stroke="black" stroke-width="3"/>
<path d="M73.4849 110.533L122.627 61.3909" stroke="black" stroke-width="3"/>
<path d="M938.939 39.0667V12.051H946.565C948.916 12.051 950.994 12.5706 952.8 13.6096C954.606 14.6487 955.997 16.1269 956.975 18.0442C957.964 19.9615 958.465 22.1633 958.478 24.6497V26.3752C958.478 28.9234 957.983 31.1562 956.993 33.0735C956.016 34.9908 954.612 36.4628 952.781 37.4895C950.963 38.5162 948.841 39.0419 946.417 39.0667H938.939ZM942.502 14.9827V36.1536H946.25C948.996 36.1536 951.13 35.3 952.651 33.593C954.185 31.886 954.952 29.4553 954.952 26.301V24.7239C954.952 21.6562 954.229 19.275 952.781 17.5803C951.346 15.8733 949.305 15.0074 946.658 14.9827H942.502ZM971.67 39.4377C968.949 39.4377 966.734 38.5471 965.027 36.7659C963.32 34.9722 962.467 32.5787 962.467 29.5852V28.9543C962.467 26.9628 962.844 25.1877 963.599 23.6292C964.366 22.0582 965.429 20.8336 966.79 19.9553C968.163 19.0647 969.647 18.6194 971.243 18.6194C973.853 18.6194 975.882 19.4791 977.329 21.1985C978.776 22.9179 979.5 25.3795 979.5 28.5833V30.012H965.899C965.949 31.9911 966.524 33.593 967.625 34.8176C968.738 36.0299 970.148 36.636 971.855 36.636C973.068 36.636 974.094 36.3886 974.936 35.8938C975.777 35.399 976.513 34.7434 977.144 33.927L979.24 35.5598C977.558 38.1451 975.035 39.4377 971.67 39.4377ZM971.243 21.4397C969.858 21.4397 968.695 21.9469 967.755 22.9612C966.815 23.9631 966.233 25.3733 966.011 27.1917H976.067V26.9319C975.968 25.1877 975.498 23.8394 974.657 22.887C973.816 21.9221 972.678 21.4397 971.243 21.4397ZM989.854 34.4094L994.826 18.9905H998.333L991.134 39.0667H988.518L981.244 18.9905H984.751L989.854 34.4094ZM1009.71 39.4377C1006.99 39.4377 1004.77 38.5471 1003.06 36.7659C1001.36 34.9722 1000.5 32.5787 1000.5 29.5852V28.9543C1000.5 26.9628 1000.88 25.1877 1001.64 23.6292C1002.4 22.0582 1003.47 20.8336 1004.83 19.9553C1006.2 19.0647 1007.68 18.6194 1009.28 18.6194C1011.89 18.6194 1013.92 19.4791 1015.37 21.1985C1016.81 22.9179 1017.54 25.3795 1017.54 28.5833V30.012H1003.94C1003.99 31.9911 1004.56 33.593 1005.66 34.8176C1006.78 36.0299 1008.19 36.636 1009.89 36.636C1011.1 36.636 1012.13 36.3886 1012.97 35.8938C1013.81 35.399 1014.55 34.7434 1015.18 33.927L1017.28 35.5598C1015.6 38.1451 1013.07 39.4377 1009.71 39.4377ZM1009.28 21.4397C1007.89 21.4397 1006.73 21.9469 1005.79 22.9612C1004.85 23.9631 1004.27 25.3733 1004.05 27.1917H1014.1V26.9319C1014.01 25.1877 1013.54 23.8394 1012.69 22.887C1011.85 21.9221 1010.72 21.4397 1009.28 21.4397ZM1025.26 39.0667H1021.82V10.5667H1025.26V39.0667ZM1029.86 28.843C1029.86 26.8762 1030.24 25.1073 1031.01 23.5364C1031.79 21.9654 1032.86 20.7532 1034.24 19.8997C1035.62 19.0461 1037.2 18.6194 1038.97 18.6194C1041.7 18.6194 1043.91 19.5657 1045.59 21.4583C1047.29 23.3508 1048.13 25.8681 1048.13 29.01V29.2512C1048.13 31.2056 1047.76 32.9622 1047 34.5208C1046.26 36.067 1045.19 37.273 1043.79 38.1389C1042.41 39.0048 1040.81 39.4377 1039 39.4377C1036.28 39.4377 1034.08 38.4915 1032.38 36.5989C1030.7 34.7063 1029.86 32.2014 1029.86 29.0842V28.843ZM1033.31 29.2512C1033.31 31.4778 1033.82 33.2652 1034.85 34.6135C1035.89 35.9618 1037.27 36.636 1039 36.636C1040.75 36.636 1042.13 35.9556 1043.16 34.595C1044.19 33.2219 1044.7 31.3046 1044.7 28.843C1044.7 26.6412 1044.18 24.8599 1043.12 23.4993C1042.08 22.1262 1040.7 21.4397 1038.97 21.4397C1037.27 21.4397 1035.91 22.1139 1034.87 23.4622C1033.83 24.8105 1033.31 26.7402 1033.31 29.2512ZM1069.4 29.2512C1069.4 32.3066 1068.7 34.7681 1067.3 36.636C1065.9 38.5038 1064.01 39.4377 1061.62 39.4377C1059.19 39.4377 1057.27 38.6646 1055.87 37.1184V46.7854H1052.44V18.9905H1055.57L1055.74 21.217C1057.14 19.4853 1059.08 18.6194 1061.57 18.6194C1063.98 18.6194 1065.88 19.5286 1067.28 21.3469C1068.69 23.1653 1069.4 25.6949 1069.4 28.9358V29.2512ZM1065.96 28.8616C1065.96 26.5979 1065.48 24.8105 1064.52 23.4993C1063.55 22.1881 1062.23 21.5325 1060.55 21.5325C1058.47 21.5325 1056.91 22.454 1055.87 24.2971V33.8899C1056.9 35.7206 1058.47 36.636 1060.58 36.636C1062.23 36.636 1063.53 35.9866 1064.5 34.6877C1065.48 33.3765 1065.96 31.4345 1065.96 28.8616ZM1077 18.9905L1077.1 21.217C1078.57 19.4853 1080.56 18.6194 1083.05 18.6194C1085.86 18.6194 1087.77 19.6956 1088.79 21.8479C1089.46 20.8831 1090.32 20.1038 1091.38 19.51C1092.46 18.9163 1093.73 18.6194 1095.19 18.6194C1099.59 18.6194 1101.83 20.9511 1101.91 25.6145V39.0667H1098.47V25.8186C1098.47 24.3837 1098.14 23.3137 1097.49 22.6086C1096.83 21.8912 1095.73 21.5325 1094.19 21.5325C1092.91 21.5325 1091.85 21.9159 1091.01 22.6829C1090.17 23.4374 1089.68 24.4579 1089.55 25.7444V39.0667H1086.1V25.9114C1086.1 22.9921 1084.67 21.5325 1081.81 21.5325C1079.56 21.5325 1078.02 22.4911 1077.19 24.4084V39.0667H1073.76V18.9905H1077ZM1115.43 39.4377C1112.71 39.4377 1110.5 38.5471 1108.79 36.7659C1107.08 34.9722 1106.23 32.5787 1106.23 29.5852V28.9543C1106.23 26.9628 1106.61 25.1877 1107.36 23.6292C1108.13 22.0582 1109.19 20.8336 1110.55 19.9553C1111.92 19.0647 1113.41 18.6194 1115 18.6194C1117.61 18.6194 1119.64 19.4791 1121.09 21.1985C1122.54 22.9179 1123.26 25.3795 1123.26 28.5833V30.012H1109.66C1109.71 31.9911 1110.29 33.593 1111.39 34.8176C1112.5 36.0299 1113.91 36.636 1115.62 36.636C1116.83 36.636 1117.86 36.3886 1118.7 35.8938C1119.54 35.399 1120.27 34.7434 1120.91 33.927L1123 35.5598C1121.32 38.1451 1118.8 39.4377 1115.43 39.4377ZM1115 21.4397C1113.62 21.4397 1112.46 21.9469 1111.52 22.9612C1110.58 23.9631 1110 25.3733 1109.77 27.1917H1119.83V26.9319C1119.73 25.1877 1119.26 23.8394 1118.42 22.887C1117.58 21.9221 1116.44 21.4397 1115 21.4397ZM1130.5 18.9905L1130.61 21.5139C1132.14 19.5842 1134.15 18.6194 1136.62 18.6194C1140.86 18.6194 1143 21.0129 1143.04 25.8V39.0667H1139.61V25.7815C1139.6 24.3342 1139.26 23.2642 1138.61 22.5715C1137.96 21.8788 1136.96 21.5325 1135.58 21.5325C1134.47 21.5325 1133.49 21.8293 1132.65 22.4231C1131.81 23.0168 1131.15 23.7961 1130.68 24.761V39.0667H1127.25V18.9905H1130.5ZM1152.88 14.1292V18.9905H1156.62V21.6438H1152.88V34.094C1152.88 34.898 1153.04 35.5042 1153.38 35.9124C1153.71 36.3082 1154.28 36.5061 1155.08 36.5061C1155.48 36.5061 1156.02 36.4319 1156.72 36.2834V39.0667C1155.81 39.314 1154.93 39.4377 1154.08 39.4377C1152.55 39.4377 1151.39 38.9739 1150.61 38.0461C1149.83 37.1184 1149.44 35.801 1149.44 34.094V21.6438H1145.79V18.9905H1149.44V14.1292H1152.88Z" fill="black"/>
<path d="M957.605 74.0828H948.922V98.1667H945.378V74.0828H936.713V71.1511H957.605V74.0828ZM967.551 98.5378C964.829 98.5378 962.615 97.6472 960.908 95.866C959.201 94.0723 958.348 91.6788 958.348 88.6853V88.0544C958.348 86.0629 958.725 84.2878 959.479 82.7292C960.246 81.1583 961.31 79.9337 962.671 79.0554C964.044 78.1648 965.528 77.7195 967.124 77.7195C969.734 77.7195 971.763 78.5792 973.21 80.2986C974.657 82.018 975.381 84.4796 975.381 87.6833V89.1121H961.78C961.83 91.0912 962.405 92.6931 963.506 93.9177C964.619 95.13 966.029 95.7361 967.736 95.7361C968.949 95.7361 969.975 95.4887 970.816 94.9939C971.658 94.4991 972.394 93.8435 973.024 93.0271L975.121 94.6599C973.439 97.2452 970.915 98.5378 967.551 98.5378ZM967.124 80.5398C965.739 80.5398 964.576 81.047 963.636 82.0613C962.696 83.0632 962.114 84.4734 961.892 86.2917H971.948V86.032C971.849 84.2878 971.379 82.9395 970.538 81.9871C969.697 81.0222 968.559 80.5398 967.124 80.5398ZM991.06 92.8416C991.06 91.9138 990.707 91.1964 990.002 90.6892C989.309 90.1697 988.091 89.7244 986.347 89.3533C984.615 88.9822 983.236 88.5369 982.209 88.0173C981.195 87.4978 980.44 86.8793 979.945 86.1619C979.463 85.4444 979.222 84.5909 979.222 83.6013C979.222 81.9561 979.914 80.5645 981.3 79.4265C982.698 78.2885 984.479 77.7195 986.644 77.7195C988.92 77.7195 990.763 78.307 992.173 79.4822C993.595 80.6573 994.307 82.1602 994.307 83.991H990.855C990.855 83.0509 990.453 82.2406 989.649 81.5603C988.858 80.88 987.856 80.5398 986.644 80.5398C985.394 80.5398 984.417 80.8119 983.712 81.3562C983.007 81.9005 982.654 82.6117 982.654 83.49C982.654 84.3188 982.982 84.9434 983.638 85.364C984.293 85.7846 985.475 86.1866 987.182 86.5701C988.901 86.9535 990.293 87.4112 991.356 87.9431C992.42 88.475 993.206 89.1182 993.713 89.8728C994.232 90.615 994.492 91.5242 994.492 92.6003C994.492 94.394 993.775 95.835 992.34 96.9236C990.905 97.9998 989.043 98.5378 986.755 98.5378C985.147 98.5378 983.724 98.2533 982.487 97.6843C981.25 97.1153 980.279 96.3236 979.574 95.3093C978.882 94.2826 978.535 93.1755 978.535 91.988H981.968C982.03 93.1384 982.487 94.0538 983.341 94.7341C984.207 95.4021 985.345 95.7361 986.755 95.7361C988.054 95.7361 989.093 95.4763 989.872 94.9568C990.664 94.4249 991.06 93.7198 991.06 92.8416ZM1003.62 73.2292V78.0906H1007.37V80.7439H1003.62V93.1941C1003.62 93.9981 1003.79 94.6042 1004.12 95.0125C1004.46 95.4083 1005.03 95.6062 1005.83 95.6062C1006.22 95.6062 1006.77 95.532 1007.46 95.3835V98.1667C1006.56 98.4141 1005.68 98.5378 1004.83 98.5378C1003.29 98.5378 1002.14 98.074 1001.36 97.1462C1000.58 96.2185 1000.19 94.9011 1000.19 93.1941V80.7439H996.533V78.0906H1000.19V73.2292H1003.62ZM1015.12 98.1667H1011.69V78.0906H1015.12V98.1667ZM1011.41 72.7654C1011.41 72.2087 1011.58 71.7387 1011.92 71.3552C1012.26 70.9718 1012.77 70.78 1013.44 70.78C1014.1 70.78 1014.61 70.9718 1014.96 71.3552C1015.3 71.7387 1015.48 72.2087 1015.48 72.7654C1015.48 73.322 1015.3 73.7859 1014.96 74.157C1014.61 74.5281 1014.1 74.7136 1013.44 74.7136C1012.77 74.7136 1012.26 74.5281 1011.92 74.157C1011.58 73.7859 1011.41 73.322 1011.41 72.7654ZM1023.88 78.0906L1023.99 80.614C1025.53 78.6843 1027.53 77.7195 1030.01 77.7195C1034.25 77.7195 1036.39 80.113 1036.43 84.9001V98.1667H1032.99V84.8816C1032.98 83.4343 1032.65 82.3643 1031.99 81.6716C1031.35 80.9789 1030.34 80.6326 1028.97 80.6326C1027.85 80.6326 1026.88 80.9294 1026.04 81.5232C1025.19 82.1169 1024.54 82.8962 1024.07 83.8611V98.1667H1020.64V78.0906H1023.88ZM1040.79 87.9617C1040.79 84.8321 1041.51 82.3458 1042.96 80.5027C1044.4 78.6472 1046.32 77.7195 1048.71 77.7195C1051.16 77.7195 1053.07 78.5854 1054.44 80.3171L1054.61 78.0906H1057.75V97.6843C1057.75 100.282 1056.97 102.329 1055.43 103.826C1053.89 105.323 1051.83 106.071 1049.23 106.071C1047.78 106.071 1046.36 105.762 1044.98 105.143C1043.59 104.525 1042.54 103.677 1041.81 102.601L1043.59 100.542C1045.06 102.36 1046.86 103.269 1048.99 103.269C1050.66 103.269 1051.96 102.799 1052.88 101.859C1053.82 100.919 1054.29 99.5955 1054.29 97.8884V96.1628C1052.92 97.7462 1051.05 98.5378 1048.67 98.5378C1046.32 98.5378 1044.42 97.5916 1042.96 95.699C1041.51 93.8064 1040.79 91.2273 1040.79 87.9617ZM1044.24 88.3513C1044.24 90.615 1044.7 92.3962 1045.63 93.6951C1046.56 94.9815 1047.86 95.6248 1049.53 95.6248C1051.69 95.6248 1053.28 94.6414 1054.29 92.6746V83.5085C1053.24 81.5912 1051.67 80.6326 1049.56 80.6326C1047.89 80.6326 1046.59 81.282 1045.65 82.5808C1044.71 83.8796 1044.24 85.8031 1044.24 88.3513Z" fill="black"/>
<path d="M946.899 145.225C943.844 144.347 941.618 143.27 940.22 141.996C938.834 140.71 938.142 139.127 938.142 137.246C938.142 135.119 938.989 133.362 940.684 131.977C942.391 130.579 944.605 129.88 947.326 129.88C949.182 129.88 950.833 130.239 952.28 130.956C953.74 131.674 954.866 132.663 955.657 133.925C956.461 135.187 956.863 136.566 956.863 138.063H953.282C953.282 136.43 952.763 135.15 951.724 134.222C950.685 133.282 949.219 132.812 947.326 132.812C945.57 132.812 944.197 133.201 943.207 133.981C942.23 134.748 941.741 135.818 941.741 137.191C941.741 138.292 942.205 139.226 943.133 139.992C944.073 140.747 945.662 141.44 947.901 142.071C950.153 142.701 951.909 143.4 953.171 144.167C954.445 144.922 955.385 145.806 955.991 146.821C956.61 147.835 956.919 149.029 956.919 150.402C956.919 152.591 956.065 154.348 954.358 155.671C952.651 156.982 950.369 157.638 947.512 157.638C945.656 157.638 943.924 157.285 942.316 156.58C940.708 155.863 939.465 154.886 938.587 153.649C937.721 152.412 937.288 151.008 937.288 149.437H940.869C940.869 151.07 941.469 152.362 942.669 153.315C943.881 154.255 945.495 154.725 947.512 154.725C949.392 154.725 950.833 154.341 951.835 153.574C952.837 152.808 953.338 151.762 953.338 150.439C953.338 149.115 952.874 148.095 951.946 147.377C951.019 146.647 949.336 145.93 946.899 145.225ZM965.621 132.329V137.191H969.369V139.844H965.621V152.294C965.621 153.098 965.788 153.704 966.122 154.113C966.456 154.508 967.025 154.706 967.829 154.706C968.225 154.706 968.769 154.632 969.462 154.484V157.267C968.559 157.514 967.681 157.638 966.827 157.638C965.293 157.638 964.137 157.174 963.357 156.246C962.578 155.319 962.188 154.001 962.188 152.294V139.844H958.533V137.191H962.188V132.329H965.621ZM985.79 157.267C985.592 156.871 985.431 156.166 985.308 155.152C983.712 156.809 981.807 157.638 979.593 157.638C977.614 157.638 975.987 157.081 974.713 155.968C973.451 154.842 972.82 153.42 972.82 151.7C972.82 149.61 973.612 147.99 975.195 146.839C976.791 145.676 979.03 145.095 981.912 145.095H985.252V143.518C985.252 142.318 984.893 141.365 984.176 140.66C983.458 139.943 982.401 139.584 981.003 139.584C979.778 139.584 978.752 139.893 977.923 140.512C977.094 141.13 976.68 141.879 976.68 142.757H973.229C973.229 141.755 973.581 140.79 974.286 139.863C975.004 138.922 975.968 138.18 977.181 137.636C978.405 137.092 979.747 136.82 981.207 136.82C983.52 136.82 985.332 137.401 986.644 138.564C987.955 139.714 988.635 141.304 988.685 143.332V152.573C988.685 154.416 988.92 155.881 989.39 156.97V157.267H985.79ZM980.094 154.651C981.17 154.651 982.19 154.372 983.155 153.816C984.12 153.259 984.819 152.535 985.252 151.645V147.526H982.562C978.356 147.526 976.253 148.756 976.253 151.218C976.253 152.294 976.612 153.135 977.329 153.741C978.047 154.348 978.968 154.651 980.094 154.651ZM993.249 147.062C993.249 143.932 993.973 141.446 995.42 139.603C996.867 137.747 998.785 136.82 1001.17 136.82C1003.62 136.82 1005.53 137.685 1006.91 139.417L1007.07 137.191H1010.21V156.784C1010.21 159.382 1009.43 161.429 1007.89 162.926C1006.35 164.423 1004.29 165.171 1001.69 165.171C1000.24 165.171 998.828 164.862 997.442 164.243C996.057 163.625 994.999 162.778 994.27 161.701L996.051 159.642C997.523 161.46 999.323 162.369 1001.45 162.369C1003.12 162.369 1004.42 161.899 1005.35 160.959C1006.29 160.019 1006.76 158.696 1006.76 156.989V155.263C1005.38 156.846 1003.51 157.638 1001.13 157.638C998.785 157.638 996.88 156.692 995.42 154.799C993.973 152.906 993.249 150.327 993.249 147.062ZM996.7 147.451C996.7 149.715 997.164 151.496 998.092 152.795C999.02 154.082 1000.32 154.725 1001.99 154.725C1004.15 154.725 1005.74 153.741 1006.76 151.775V142.609C1005.71 140.691 1004.13 139.733 1002.03 139.733C1000.36 139.733 999.05 140.382 998.11 141.681C997.17 142.98 996.7 144.903 996.7 147.451ZM1019.13 157.267H1015.7V137.191H1019.13V157.267ZM1015.42 131.865C1015.42 131.309 1015.59 130.839 1015.92 130.455C1016.27 130.072 1016.78 129.88 1017.44 129.88C1018.11 129.88 1018.62 130.072 1018.97 130.455C1019.31 130.839 1019.49 131.309 1019.49 131.865C1019.49 132.422 1019.31 132.886 1018.97 133.257C1018.62 133.628 1018.11 133.814 1017.44 133.814C1016.78 133.814 1016.27 133.628 1015.92 133.257C1015.59 132.886 1015.42 132.422 1015.42 131.865ZM1027.89 137.191L1028 139.714C1029.54 137.784 1031.54 136.82 1034.01 136.82C1038.26 136.82 1040.4 139.213 1040.43 144V157.267H1037V143.982C1036.99 142.534 1036.65 141.464 1036 140.772C1035.36 140.079 1034.35 139.733 1032.97 139.733C1031.86 139.733 1030.88 140.03 1030.04 140.623C1029.2 141.217 1028.55 141.996 1028.08 142.961V157.267H1024.64V137.191H1027.89ZM1044.79 147.062C1044.79 143.932 1045.52 141.446 1046.96 139.603C1048.41 137.747 1050.33 136.82 1052.72 136.82C1055.17 136.82 1057.08 137.685 1058.45 139.417L1058.62 137.191H1061.75V156.784C1061.75 159.382 1060.98 161.429 1059.43 162.926C1057.9 164.423 1055.83 165.171 1053.24 165.171C1051.79 165.171 1050.37 164.862 1048.99 164.243C1047.6 163.625 1046.54 162.778 1045.81 161.701L1047.6 159.642C1049.07 161.46 1050.87 162.369 1053 162.369C1054.67 162.369 1055.96 161.899 1056.89 160.959C1057.83 160.019 1058.3 158.696 1058.3 156.989V155.263C1056.93 156.846 1055.05 157.638 1052.68 157.638C1050.33 157.638 1048.42 156.692 1046.96 154.799C1045.52 152.906 1044.79 150.327 1044.79 147.062ZM1048.25 147.451C1048.25 149.715 1048.71 151.496 1049.64 152.795C1050.56 154.082 1051.86 154.725 1053.53 154.725C1055.7 154.725 1057.29 153.741 1058.3 151.775V142.609C1057.25 140.691 1055.67 139.733 1053.57 139.733C1051.9 139.733 1050.6 140.382 1049.66 141.681C1048.72 142.98 1048.25 144.903 1048.25 147.451Z" fill="black"/>
<path d="M942.502 205.791V216.367H938.939V189.351H948.903C951.86 189.351 954.173 190.106 955.843 191.615C957.525 193.124 958.366 195.122 958.366 197.608C958.366 200.231 957.544 202.253 955.898 203.676C954.266 205.086 951.922 205.791 948.866 205.791H942.502ZM942.502 202.878H948.903C950.808 202.878 952.268 202.432 953.282 201.542C954.297 200.639 954.804 199.34 954.804 197.645C954.804 196.037 954.297 194.751 953.282 193.786C952.268 192.821 950.876 192.32 949.107 192.283H942.502V202.878ZM972.078 199.371C971.559 199.284 970.996 199.241 970.39 199.241C968.138 199.241 966.611 200.2 965.807 202.117V216.367H962.374V196.291H965.714L965.77 198.61C966.895 196.816 968.491 195.92 970.557 195.92C971.225 195.92 971.732 196.006 972.078 196.179V199.371ZM973.971 206.143C973.971 204.177 974.354 202.408 975.121 200.837C975.9 199.266 976.977 198.053 978.35 197.2C979.735 196.346 981.312 195.92 983.081 195.92C985.815 195.92 988.023 196.866 989.705 198.759C991.4 200.651 992.247 203.168 992.247 206.31V206.552C992.247 208.506 991.87 210.262 991.115 211.821C990.373 213.367 989.303 214.573 987.905 215.439C986.52 216.305 984.924 216.738 983.118 216.738C980.397 216.738 978.189 215.792 976.494 213.899C974.812 212.007 973.971 209.502 973.971 206.385V206.143ZM977.422 206.552C977.422 208.778 977.935 210.566 978.962 211.914C980.001 213.262 981.386 213.936 983.118 213.936C984.862 213.936 986.248 213.256 987.274 211.895C988.301 210.522 988.814 208.605 988.814 206.143C988.814 203.941 988.289 202.16 987.237 200.8C986.198 199.427 984.813 198.74 983.081 198.74C981.386 198.74 980.02 199.414 978.98 200.762C977.941 202.111 977.422 204.04 977.422 206.552ZM995.717 206.162C995.717 203.082 996.447 200.608 997.906 198.74C999.366 196.86 1001.28 195.92 1003.64 195.92C1005.99 195.92 1007.85 196.724 1009.22 198.332V187.867H1012.66V216.367H1009.5L1009.34 214.215C1007.96 215.897 1006.05 216.738 1003.6 216.738C1001.28 216.738 999.378 215.786 997.906 213.881C996.447 211.976 995.717 209.489 995.717 206.422V206.162ZM999.149 206.552C999.149 208.828 999.619 210.609 1000.56 211.895C1001.5 213.182 1002.8 213.825 1004.46 213.825C1006.63 213.825 1008.22 212.848 1009.22 210.893V201.672C1008.2 199.779 1006.62 198.833 1004.49 198.833C1002.81 198.833 1001.5 199.482 1000.56 200.781C999.619 202.08 999.149 204.003 999.149 206.552ZM1030.4 214.382C1029.06 215.953 1027.1 216.738 1024.51 216.738C1022.37 216.738 1020.74 216.12 1019.62 214.883C1018.5 213.633 1017.94 211.79 1017.93 209.353V196.291H1021.36V209.26C1021.36 212.303 1022.6 213.825 1025.07 213.825C1027.69 213.825 1029.44 212.848 1030.3 210.893V196.291H1033.74V216.367H1030.47L1030.4 214.382ZM1047.02 213.936C1048.25 213.936 1049.32 213.565 1050.23 212.823C1051.15 212.081 1051.65 211.153 1051.75 210.04H1055C1054.94 211.19 1054.54 212.285 1053.81 213.324C1053.08 214.363 1052.1 215.192 1050.88 215.81C1049.67 216.429 1048.38 216.738 1047.02 216.738C1044.29 216.738 1042.11 215.829 1040.49 214.01C1038.88 212.18 1038.08 209.681 1038.08 206.514V205.939C1038.08 203.985 1038.44 202.247 1039.15 200.725C1039.87 199.204 1040.9 198.023 1042.23 197.181C1043.58 196.34 1045.17 195.92 1047 195.92C1049.25 195.92 1051.12 196.594 1052.61 197.942C1054.1 199.29 1054.9 201.041 1055 203.193H1051.75C1051.65 201.894 1051.16 200.83 1050.27 200.002C1049.39 199.161 1048.3 198.74 1047 198.74C1045.26 198.74 1043.9 199.371 1042.94 200.633C1041.99 201.882 1041.51 203.694 1041.51 206.069V206.719C1041.51 209.032 1041.99 210.813 1042.94 212.062C1043.89 213.312 1045.25 213.936 1047.02 213.936ZM1063.52 191.429V196.291H1067.26V198.944H1063.52V211.394C1063.52 212.198 1063.68 212.804 1064.02 213.213C1064.35 213.608 1064.92 213.806 1065.72 213.806C1066.12 213.806 1066.66 213.732 1067.36 213.584V216.367C1066.45 216.614 1065.58 216.738 1064.72 216.738C1063.19 216.738 1062.03 216.274 1061.25 215.346C1060.47 214.419 1060.08 213.101 1060.08 211.394V198.944H1056.43V196.291H1060.08V191.429H1063.52ZM1075.02 216.367H1071.59V196.291H1075.02V216.367ZM1071.31 190.966C1071.31 190.409 1071.48 189.939 1071.81 189.555C1072.16 189.172 1072.66 188.98 1073.33 188.98C1074 188.98 1074.51 189.172 1074.85 189.555C1075.2 189.939 1075.37 190.409 1075.37 190.966C1075.37 191.522 1075.2 191.986 1074.85 192.357C1074.51 192.728 1074 192.914 1073.33 192.914C1072.66 192.914 1072.16 192.728 1071.81 192.357C1071.48 191.986 1071.31 191.522 1071.31 190.966ZM1079.62 206.143C1079.62 204.177 1080 202.408 1080.77 200.837C1081.55 199.266 1082.63 198.053 1084 197.2C1085.39 196.346 1086.96 195.92 1088.73 195.92C1091.47 195.92 1093.67 196.866 1095.36 198.759C1097.05 200.651 1097.9 203.168 1097.9 206.31V206.552C1097.9 208.506 1097.52 210.262 1096.77 211.821C1096.02 213.367 1094.95 214.573 1093.56 215.439C1092.17 216.305 1090.57 216.738 1088.77 216.738C1086.05 216.738 1083.84 215.792 1082.14 213.899C1080.46 212.007 1079.62 209.502 1079.62 206.385V206.143ZM1083.07 206.552C1083.07 208.778 1083.59 210.566 1084.61 211.914C1085.65 213.262 1087.04 213.936 1088.77 213.936C1090.51 213.936 1091.9 213.256 1092.92 211.895C1093.95 210.522 1094.46 208.605 1094.46 206.143C1094.46 203.941 1093.94 202.16 1092.89 200.8C1091.85 199.427 1090.46 198.74 1088.73 198.74C1087.04 198.74 1085.67 199.414 1084.63 200.762C1083.59 202.111 1083.07 204.04 1083.07 206.552ZM1105.45 196.291L1105.56 198.814C1107.09 196.885 1109.1 195.92 1111.57 195.92C1115.82 195.92 1117.96 198.313 1117.99 203.1V216.367H1114.56V203.082C1114.55 201.635 1114.21 200.565 1113.56 199.872C1112.91 199.179 1111.91 198.833 1110.53 198.833C1109.42 198.833 1108.44 199.13 1107.6 199.723C1106.76 200.317 1106.1 201.096 1105.63 202.061V216.367H1102.2V196.291H1105.45Z" fill="black"/>
<circle cx="903.29" cy="25.5824" r="18.4254" fill="#006E00" stroke="#014000" stroke-width="4"/>
<path fill-rule="evenodd" clip-rule="evenodd" d="M897.669 10.0791V27.2544H886.887C886.832 26.7048 886.803 26.1472 886.803 25.5829C886.803 18.4515 891.331 12.3775 897.669 10.0791Z" fill="#05FF00"/>
<rect x="882.864" y="25.5828" width="40.8508" height="20.4254" fill="#05FF00"/>
<rect x="884.864" y="27.5828" width="36.8508" height="16.4254" stroke="black" stroke-opacity="0.75" stroke-width="4"/>
<circle cx="903.29" cy="84.6825" r="18.4254" fill="#006E00" stroke="#014000" stroke-width="4"/>
<path fill-rule="evenodd" clip-rule="evenodd" d="M908.816 69.1447V86.3542H897.669V69.1789C899.423 68.5427 901.316 68.1958 903.29 68.1958C905.228 68.1958 907.089 68.5303 908.816 69.1447Z" fill="#05FF00"/>
<rect x="882.864" y="84.6829" width="40.8508" height="20.4254" fill="#05FF00"/>
<rect x="884.864" y="86.6829" width="36.8508" height="16.4254" stroke="black" stroke-opacity="0.75" stroke-width="4"/>
<circle cx="903.29" cy="143.783" r="18.4254" fill="#006E00" stroke="#014000" stroke-width="4"/>
<path fill-rule="evenodd" clip-rule="evenodd" d="M919.693 145.454H908.816V128.245C915.204 130.517 919.777 136.616 919.777 143.783C919.777 144.347 919.749 144.905 919.693 145.454Z" fill="#05FF00"/>
<rect x="882.864" y="143.783" width="40.8508" height="20.4254" fill="#05FF00"/>
<rect x="884.864" y="145.783" width="36.8508" height="16.4254" stroke="black" stroke-opacity="0.75" stroke-width="4"/>
<circle cx="903.29" cy="202.883" r="20.4254" fill="#05FF00"/>
<circle cx="903.29" cy="202.883" r="18.4254" stroke="black" stroke-opacity="0.75" stroke-width="4"/>
<rect x="882.864" y="202.883" width="40.8508" height="20.4254" fill="#05FF00"/>
<rect x="884.864" y="204.883" width="36.8508" height="16.4254" stroke="black" stroke-opacity="0.75" stroke-width="4"/>
</g>
<defs>
<clipPath id="clip0">
<rect width="1165" height="227" fill="white" transform="translate(0 0.0153809)"/>
</clipPath>
</defs>
</svg>
