<svg width="1332" height="199" viewBox="0 0 1332 199" fill="none" xmlns="http://www.w3.org/2000/svg">
<circle cx="565.622" cy="107.341" r="51.3745" fill="#05FF00"/>
<circle cx="565.622" cy="107.341" r="46.8745" stroke="black" stroke-opacity="0.75" stroke-width="9"/>
<rect x="561.352" y="107.341" width="55.6441" height="51.3745" fill="#05FF00"/>
<rect x="565.852" y="111.841" width="46.6441" height="42.3745" stroke="black" stroke-opacity="0.75" stroke-width="9"/>
<rect x="514.247" y="107.341" width="55.1278" height="51.3745" fill="#05FF00"/>
<rect x="518.747" y="111.841" width="46.1278" height="42.3745" stroke="black" stroke-opacity="0.75" stroke-width="9"/>
<rect x="541.036" y="112.206" width="34.7694" height="34.7694" transform="rotate(-45 541.036 112.206)" fill="#05FF00"/>
<rect x="545.986" y="112.206" width="27.7694" height="27.7694" transform="rotate(-45 545.986 112.206)" stroke="black" stroke-opacity="0.75" stroke-width="7"/>
<path d="M522.355 90.5H524.355V88.5V77.6973H530.059C534.04 77.6973 537.414 76.7798 539.879 74.6504L539.88 74.6496C542.401 72.4698 543.559 69.4165 543.559 65.792C543.559 62.2791 542.346 59.2973 539.843 57.0509C537.351 54.8005 534.018 53.7969 530.104 53.7969H518.043H516.043V55.7969V88.5V90.5H518.043H522.355ZM530.104 70.1709H524.355V61.3457H530.329C532.097 61.3863 533.251 61.8764 534.027 62.6142C534.797 63.3473 535.247 64.349 535.247 65.8369C535.247 67.466 534.777 68.4324 534.08 69.0554C533.342 69.7005 532.118 70.1709 530.104 70.1709Z" fill="white" stroke="black" stroke-width="4"/>
<path d="M677.148 29.3388C673.449 28.2756 670.754 26.9729 669.062 25.4306C667.385 23.8733 666.546 21.9566 666.546 19.6806C666.546 17.105 667.572 14.9787 669.624 13.3017C671.69 11.6096 674.37 10.7636 677.665 10.7636C679.911 10.7636 681.91 11.1978 683.662 12.0663C685.429 12.9348 686.791 14.1327 687.75 15.6601C688.723 17.1874 689.209 18.857 689.209 20.6688H684.875C684.875 18.6923 684.246 17.1425 682.988 16.0194C681.73 14.8814 679.956 14.3124 677.665 14.3124C675.538 14.3124 673.876 14.7841 672.678 15.7274C671.495 16.6558 670.904 17.9511 670.904 19.6132C670.904 20.9459 671.465 22.0764 672.588 23.0048C673.726 23.9182 675.651 24.7567 678.361 25.5204C681.086 26.2841 683.212 27.1301 684.74 28.0585C686.282 28.9719 687.42 30.0425 688.154 31.2704C688.903 32.4983 689.277 33.9433 689.277 35.6054C689.277 38.2558 688.244 40.3821 686.177 41.9843C684.111 43.5715 681.348 44.3651 677.889 44.3651C675.643 44.3651 673.547 43.9384 671.6 43.0849C669.653 42.2164 668.149 41.0334 667.085 39.536C666.037 38.0386 665.513 36.3391 665.513 34.4374H669.848C669.848 36.414 670.574 37.9787 672.027 39.1317C673.494 40.2698 675.448 40.8388 677.889 40.8388C680.165 40.8388 681.91 40.3746 683.123 39.4462C684.335 38.5178 684.942 37.2525 684.942 35.6503C684.942 34.0481 684.38 32.8127 683.257 31.9442C682.134 31.0608 680.098 30.1923 677.148 29.3388ZM698.688 43.9159H694.533V19.6132H698.688V43.9159ZM694.196 13.1669C694.196 12.4931 694.398 11.9241 694.802 11.4599C695.222 10.9957 695.835 10.7636 696.644 10.7636C697.453 10.7636 698.067 10.9957 698.486 11.4599C698.905 11.9241 699.115 12.4931 699.115 13.1669C699.115 13.8407 698.905 14.4022 698.486 14.8515C698.067 15.3007 697.453 15.5253 696.644 15.5253C695.835 15.5253 695.222 15.3007 694.802 14.8515C694.398 14.4022 694.196 13.8407 694.196 13.1669ZM710.997 13.7284V19.6132H715.534V22.8251H710.997V37.8964C710.997 38.8697 711.199 39.6034 711.603 40.0976C712.007 40.5767 712.696 40.8163 713.669 40.8163C714.149 40.8163 714.807 40.7265 715.646 40.5468V43.9159C714.553 44.2154 713.49 44.3651 712.457 44.3651C710.6 44.3651 709.2 43.8036 708.256 42.6806C707.313 41.5575 706.841 39.9628 706.841 37.8964V22.8251H702.417V19.6132H706.841V13.7284H710.997ZM730.493 44.3651C727.198 44.3651 724.518 43.287 722.452 41.1308C720.385 38.9595 719.352 36.0621 719.352 32.4384V31.6747C719.352 29.2639 719.809 27.1151 720.722 25.2284C721.651 23.3267 722.938 21.8443 724.585 20.7812C726.248 19.703 728.044 19.164 729.976 19.164C733.136 19.164 735.591 20.2047 737.343 22.286C739.095 24.3674 739.971 27.3472 739.971 31.2255V32.955H723.507C723.567 35.3508 724.264 37.2899 725.596 38.7724C726.944 40.2398 728.651 40.9735 730.717 40.9735C732.185 40.9735 733.428 40.6741 734.446 40.0751C735.464 39.4761 736.355 38.6825 737.119 37.6942L739.657 39.6708C737.62 42.8004 734.566 44.3651 730.493 44.3651ZM729.976 22.578C728.299 22.578 726.891 23.192 725.753 24.4198C724.615 25.6327 723.912 27.3397 723.642 29.5409H735.816V29.2265C735.696 27.1151 735.127 25.483 734.109 24.33C733.091 23.162 731.713 22.578 729.976 22.578ZM745.631 46.7235H742.06L755.716 11.2128H759.265L745.631 46.7235ZM777.908 37.4696C777.908 36.3466 777.481 35.4781 776.627 34.8642C775.789 34.2353 774.314 33.6962 772.203 33.247C770.106 32.7978 768.437 32.2587 767.194 31.6298C765.966 31.0009 765.053 30.2522 764.454 29.3837C763.87 28.5152 763.578 27.482 763.578 26.2841C763.578 24.2925 764.416 22.608 766.093 21.2304C767.785 19.8528 769.942 19.164 772.562 19.164C775.317 19.164 777.548 19.8752 779.255 21.2978C780.977 22.7203 781.838 24.5396 781.838 26.7558H777.661C777.661 25.6177 777.174 24.6369 776.201 23.8134C775.242 22.9898 774.029 22.578 772.562 22.578C771.05 22.578 769.867 22.9075 769.013 23.5663C768.16 24.2252 767.733 25.0862 767.733 26.1493C767.733 27.1526 768.13 27.9088 768.923 28.4179C769.717 28.927 771.147 29.4136 773.213 29.8778C775.295 30.342 776.979 30.8961 778.267 31.5399C779.555 32.1838 780.506 32.9625 781.12 33.8759C781.749 34.7743 782.063 35.8749 782.063 37.1776C782.063 39.3489 781.194 41.0933 779.458 42.411C777.721 43.7138 775.467 44.3651 772.697 44.3651C770.75 44.3651 769.028 44.0207 767.531 43.3319C766.033 42.6431 764.858 41.6848 764.004 40.4569C763.166 39.2141 762.747 37.8739 762.747 36.4364H766.902C766.977 37.829 767.531 38.9371 768.564 39.7606C769.612 40.5692 770.99 40.9735 772.697 40.9735C774.269 40.9735 775.527 40.6591 776.47 40.0302C777.429 39.3863 777.908 38.5328 777.908 37.4696ZM797.561 44.3651C794.267 44.3651 791.586 43.287 789.52 41.1308C787.454 38.9595 786.42 36.0621 786.42 32.4384V31.6747C786.42 29.2639 786.877 27.1151 787.791 25.2284C788.719 23.3267 790.007 21.8443 791.654 20.7812C793.316 19.703 795.113 19.164 797.044 19.164C800.204 19.164 802.66 20.2047 804.412 22.286C806.164 24.3674 807.04 27.3472 807.04 31.2255V32.955H790.576C790.636 35.3508 791.332 37.2899 792.665 38.7724C794.012 40.2398 795.719 40.9735 797.786 40.9735C799.253 40.9735 800.496 40.6741 801.514 40.0751C802.532 39.4761 803.423 38.6825 804.187 37.6942L806.725 39.6708C804.689 42.8004 801.634 44.3651 797.561 44.3651ZM797.044 22.578C795.367 22.578 793.96 23.192 792.822 24.4198C791.684 25.6327 790.98 27.3397 790.71 29.5409H802.884V29.2265C802.764 27.1151 802.195 25.483 801.177 24.33C800.159 23.162 798.781 22.578 797.044 22.578ZM823.616 23.3417C822.987 23.2369 822.306 23.1845 821.572 23.1845C818.847 23.1845 816.997 24.345 816.024 26.6659V43.9159H811.869V19.6132H815.912L815.979 22.4208C817.342 20.2496 819.273 19.164 821.774 19.164C822.583 19.164 823.196 19.2688 823.616 19.4784V23.3417ZM835.879 38.2782L841.899 19.6132H846.144L837.429 43.9159H834.262L825.458 19.6132H829.703L835.879 38.2782ZM854.657 43.9159H850.501V19.6132H854.657V43.9159ZM850.165 13.1669C850.165 12.4931 850.367 11.9241 850.771 11.4599C851.19 10.9957 851.804 10.7636 852.613 10.7636C853.421 10.7636 854.035 10.9957 854.455 11.4599C854.874 11.9241 855.083 12.4931 855.083 13.1669C855.083 13.8407 854.874 14.4022 854.455 14.8515C854.035 15.3007 853.421 15.5253 852.613 15.5253C851.804 15.5253 851.19 15.3007 850.771 14.8515C850.367 14.4022 850.165 13.8407 850.165 13.1669ZM871.076 40.9735C872.558 40.9735 873.853 40.5243 874.961 39.6259C876.069 38.7274 876.683 37.6044 876.803 36.2567H880.734C880.659 37.6493 880.18 38.9745 879.296 40.2323C878.413 41.4901 877.23 42.4934 875.748 43.2421C874.28 43.9908 872.723 44.3651 871.076 44.3651C867.766 44.3651 865.131 43.2645 863.169 41.0634C861.223 38.8472 860.25 35.8225 860.25 31.9892V31.2929C860.25 28.927 860.684 26.8231 861.552 24.9813C862.421 23.1395 863.664 21.7095 865.281 20.6913C866.913 19.6731 868.837 19.164 871.053 19.164C873.778 19.164 876.04 19.98 877.836 21.6122C879.648 23.2444 880.614 25.3632 880.734 27.9687H876.803C876.683 26.3964 876.084 25.1086 875.006 24.1054C873.943 23.0871 872.625 22.578 871.053 22.578C868.942 22.578 867.302 23.3417 866.134 24.869C864.981 26.3814 864.405 28.5751 864.405 31.4501V32.2362C864.405 35.0364 864.981 37.1926 866.134 38.705C867.287 40.2173 868.934 40.9735 871.076 40.9735ZM895.491 44.3651C892.196 44.3651 889.516 43.287 887.45 41.1308C885.383 38.9595 884.35 36.0621 884.35 32.4384V31.6747C884.35 29.2639 884.807 27.1151 885.72 25.2284C886.649 23.3267 887.936 21.8443 889.583 20.7812C891.246 19.703 893.042 19.164 894.974 19.164C898.134 19.164 900.589 20.2047 902.341 22.286C904.093 24.3674 904.969 27.3472 904.969 31.2255V32.955H888.505C888.565 35.3508 889.262 37.2899 890.594 38.7724C891.942 40.2398 893.649 40.9735 895.715 40.9735C897.183 40.9735 898.426 40.6741 899.444 40.0751C900.462 39.4761 901.353 38.6825 902.117 37.6942L904.655 39.6708C902.618 42.8004 899.564 44.3651 895.491 44.3651ZM894.974 22.578C893.297 22.578 891.889 23.192 890.751 24.4198C889.613 25.6327 888.91 27.3397 888.64 29.5409H900.814V29.2265C900.694 27.1151 900.125 25.483 899.107 24.33C898.089 23.162 896.711 22.578 894.974 22.578Z" fill="white"/>
<path d="M671.847 111.974H687.345V115.5H667.512V82.7969H671.847V111.974ZM706.617 115.5C706.377 115.021 706.182 114.167 706.033 112.939C704.101 114.946 701.795 115.949 699.115 115.949C696.719 115.949 694.75 115.275 693.208 113.928C691.68 112.565 690.917 110.843 690.917 108.762C690.917 106.231 691.875 104.27 693.792 102.877C695.723 101.469 698.433 100.766 701.922 100.766H705.965V98.8565C705.965 97.404 705.531 96.251 704.663 95.3975C703.794 94.529 702.514 94.0947 700.822 94.0947C699.339 94.0947 698.097 94.4691 697.093 95.2178C696.09 95.9665 695.588 96.8724 695.588 97.9356H691.411C691.411 96.7227 691.837 95.5547 692.691 94.4316C693.559 93.2936 694.727 92.3952 696.195 91.7363C697.677 91.0775 699.302 90.7481 701.069 90.7481C703.869 90.7481 706.063 91.4518 707.65 92.8594C709.237 94.252 710.061 96.1761 710.121 98.6318V109.817C710.121 112.049 710.405 113.823 710.974 115.141V115.5H706.617ZM699.721 112.333C701.024 112.333 702.259 111.996 703.427 111.322C704.595 110.648 705.441 109.772 705.965 108.694V103.708H702.708C697.617 103.708 695.072 105.198 695.072 108.178C695.072 109.48 695.506 110.499 696.375 111.232C697.243 111.966 698.359 112.333 699.721 112.333ZM730.785 109.054C730.785 107.931 730.358 107.062 729.504 106.448C728.666 105.819 727.191 105.28 725.08 104.831C722.983 104.382 721.314 103.843 720.071 103.214C718.843 102.585 717.93 101.836 717.331 100.968C716.747 100.099 716.455 99.0661 716.455 97.8682C716.455 95.8766 717.293 94.1921 718.97 92.8145C720.662 91.4369 722.819 90.7481 725.439 90.7481C728.194 90.7481 730.425 91.4593 732.132 92.8818C733.854 94.3044 734.715 96.1237 734.715 98.3399H730.538C730.538 97.2018 730.051 96.221 729.078 95.3975C728.119 94.5739 726.906 94.1621 725.439 94.1621C723.927 94.1621 722.744 94.4915 721.89 95.1504C721.037 95.8093 720.61 96.6703 720.61 97.7334C720.61 98.7367 721.007 99.4928 721.8 100.002C722.594 100.511 724.024 100.998 726.09 101.462C728.172 101.926 729.856 102.48 731.144 103.124C732.432 103.768 733.383 104.547 733.997 105.46C734.625 106.358 734.94 107.459 734.94 108.762C734.94 110.933 734.071 112.677 732.334 113.995C730.597 115.298 728.344 115.949 725.574 115.949C723.627 115.949 721.905 115.605 720.408 114.916C718.91 114.227 717.735 113.269 716.881 112.041C716.043 110.798 715.624 109.458 715.624 108.021H719.779C719.854 109.413 720.408 110.521 721.441 111.345C722.489 112.153 723.867 112.558 725.574 112.558C727.146 112.558 728.404 112.243 729.347 111.614C730.306 110.97 730.785 110.117 730.785 109.054ZM745.991 85.3125V91.1973H750.528V94.4092H745.991V109.48C745.991 110.454 746.193 111.188 746.597 111.682C747.001 112.161 747.69 112.4 748.664 112.4C749.143 112.4 749.802 112.311 750.64 112.131V115.5C749.547 115.799 748.484 115.949 747.451 115.949C745.594 115.949 744.194 115.388 743.25 114.265C742.307 113.142 741.835 111.547 741.835 109.48V94.4092H737.411V91.1973H741.835V85.3125H745.991ZM781.165 82.7969H785.5V105.954C785.5 109.084 784.556 111.532 782.669 113.299C780.798 115.066 778.297 115.949 775.167 115.949C771.918 115.949 769.388 115.118 767.576 113.456C765.764 111.794 764.858 109.466 764.858 106.471H769.17C769.17 108.342 769.68 109.802 770.698 110.851C771.731 111.899 773.221 112.423 775.167 112.423C776.949 112.423 778.387 111.861 779.48 110.738C780.588 109.615 781.15 108.043 781.165 106.021V82.7969ZM802.278 115.949C798.984 115.949 796.303 114.871 794.237 112.715C792.17 110.544 791.137 107.646 791.137 104.022V103.259C791.137 100.848 791.594 98.6992 792.507 96.8125C793.436 94.9108 794.723 93.4284 796.371 92.3652C798.033 91.2871 799.83 90.7481 801.761 90.7481C804.921 90.7481 807.376 91.7887 809.128 93.8701C810.88 95.9515 811.756 98.9313 811.756 102.81V104.539H795.292C795.352 106.935 796.049 108.874 797.381 110.356C798.729 111.824 800.436 112.558 802.502 112.558C803.97 112.558 805.213 112.258 806.231 111.659C807.249 111.06 808.14 110.267 808.904 109.278L811.442 111.255C809.405 114.384 806.351 115.949 802.278 115.949ZM801.761 94.1621C800.084 94.1621 798.677 94.776 797.539 96.0039C796.401 97.2168 795.697 98.9238 795.427 101.125H807.601V100.811C807.481 98.6992 806.912 97.0671 805.894 95.9141C804.876 94.7461 803.498 94.1621 801.761 94.1621ZM820.516 91.1973L820.651 94.252C822.508 91.916 824.933 90.7481 827.928 90.7481C833.064 90.7481 835.655 93.6455 835.7 99.4404V115.5H831.544V99.418C831.529 97.666 831.125 96.3708 830.332 95.5322C829.553 94.6937 828.333 94.2744 826.67 94.2744C825.323 94.2744 824.14 94.6338 823.122 95.3525C822.103 96.0713 821.31 97.0147 820.741 98.1826V115.5H816.585V91.1973H820.516ZM848.75 104.247L846.144 106.965V115.5H841.989V81H846.144V101.866L848.368 99.1934L855.937 91.1973H860.991L851.535 101.35L862.091 115.5H857.217L848.75 104.247ZM869.795 115.5H865.64V91.1973H869.795V115.5ZM865.303 84.751C865.303 84.0772 865.505 83.5081 865.91 83.044C866.329 82.5798 866.943 82.3477 867.751 82.3477C868.56 82.3477 869.174 82.5798 869.593 83.044C870.013 83.5081 870.222 84.0772 870.222 84.751C870.222 85.4248 870.013 85.9863 869.593 86.4356C869.174 86.8848 868.56 87.1094 867.751 87.1094C866.943 87.1094 866.329 86.8848 865.91 86.4356C865.505 85.9863 865.303 85.4248 865.303 84.751ZM880.397 91.1973L880.532 94.252C882.389 91.916 884.814 90.7481 887.809 90.7481C892.945 90.7481 895.536 93.6455 895.581 99.4404V115.5H891.425V99.418C891.41 97.666 891.006 96.3708 890.212 95.5322C889.434 94.6937 888.213 94.2744 886.551 94.2744C885.204 94.2744 884.021 94.6338 883.002 95.3525C881.984 96.0713 881.191 97.0147 880.622 98.1826V115.5H876.466V91.1973H880.397ZM915.998 109.054C915.998 107.931 915.571 107.062 914.717 106.448C913.879 105.819 912.404 105.28 910.292 104.831C908.196 104.382 906.527 103.843 905.284 103.214C904.056 102.585 903.142 101.836 902.543 100.968C901.959 100.099 901.667 99.0661 901.667 97.8682C901.667 95.8766 902.506 94.1921 904.183 92.8145C905.875 91.4369 908.031 90.7481 910.652 90.7481C913.407 90.7481 915.638 91.4593 917.345 92.8818C919.067 94.3044 919.928 96.1237 919.928 98.3399H915.75C915.75 97.2018 915.264 96.221 914.291 95.3975C913.332 94.5739 912.119 94.1621 910.652 94.1621C909.139 94.1621 907.957 94.4915 907.103 95.1504C906.25 95.8093 905.823 96.6703 905.823 97.7334C905.823 98.7367 906.22 99.4928 907.013 100.002C907.807 100.511 909.237 100.998 911.303 101.462C913.385 101.926 915.069 102.48 916.357 103.124C917.645 103.768 918.596 104.547 919.209 105.46C919.838 106.358 920.153 107.459 920.153 108.762C920.153 110.933 919.284 112.677 917.547 113.995C915.81 115.298 913.557 115.949 910.787 115.949C908.84 115.949 907.118 115.605 905.621 114.916C904.123 114.227 902.948 113.269 902.094 112.041C901.256 110.798 900.836 109.458 900.836 108.021H904.992C905.067 109.413 905.621 110.521 906.654 111.345C907.702 112.153 909.08 112.558 910.787 112.558C912.359 112.558 913.617 112.243 914.56 111.614C915.518 110.97 915.998 110.117 915.998 109.054ZM957.55 103.618C957.55 107.332 956.697 110.319 954.99 112.58C953.283 114.826 950.992 115.949 948.117 115.949C945.047 115.949 942.674 114.864 940.997 112.692L940.794 115.5H936.976V81H941.131V93.8701C942.808 91.7887 945.122 90.7481 948.072 90.7481C951.022 90.7481 953.335 91.8636 955.012 94.0947C956.704 96.3259 957.55 99.3805 957.55 103.259V103.618ZM953.395 103.146C953.395 100.316 952.848 98.1302 951.755 96.5879C950.662 95.0456 949.09 94.2744 947.039 94.2744C944.298 94.2744 942.329 95.5472 941.131 98.0928V108.604C942.404 111.15 944.388 112.423 947.083 112.423C949.075 112.423 950.625 111.652 951.733 110.109C952.841 108.567 953.395 106.246 953.395 103.146ZM977.81 113.097C976.193 114.998 973.819 115.949 970.69 115.949C968.099 115.949 966.123 115.201 964.76 113.703C963.413 112.191 962.731 109.96 962.716 107.01V91.1973H966.872V106.897C966.872 110.581 968.369 112.423 971.364 112.423C974.538 112.423 976.65 111.24 977.698 108.874V91.1973H981.853V115.5H977.9L977.81 113.097ZM992.702 115.5H988.546V91.1973H992.702V115.5ZM988.209 84.751C988.209 84.0772 988.412 83.5081 988.816 83.044C989.235 82.5798 989.849 82.3477 990.658 82.3477C991.466 82.3477 992.08 82.5798 992.5 83.044C992.919 83.5081 993.128 84.0772 993.128 84.751C993.128 85.4248 992.919 85.9863 992.5 86.4356C992.08 86.8848 991.466 87.1094 990.658 87.1094C989.849 87.1094 989.235 86.8848 988.816 86.4356C988.412 85.9863 988.209 85.4248 988.209 84.751ZM1003.89 115.5H999.732V81H1003.89V115.5ZM1009.55 103.146C1009.55 99.418 1010.43 96.4232 1012.2 94.1621C1013.96 91.8861 1016.28 90.7481 1019.14 90.7481C1021.98 90.7481 1024.24 91.7214 1025.9 93.668V81H1030.05V115.5H1026.24L1026.03 112.895C1024.37 114.931 1022.06 115.949 1019.09 115.949C1016.28 115.949 1013.98 114.796 1012.2 112.49C1010.43 110.184 1009.55 107.174 1009.55 103.461V103.146ZM1013.7 103.618C1013.7 106.373 1014.27 108.53 1015.41 110.087C1016.55 111.644 1018.12 112.423 1020.13 112.423C1022.76 112.423 1024.69 111.24 1025.9 108.874V97.7109C1024.66 95.4199 1022.75 94.2744 1020.17 94.2744C1018.13 94.2744 1016.55 95.0606 1015.41 96.6328C1014.27 98.2051 1013.7 100.534 1013.7 103.618ZM1047.78 102.226C1047.78 98.8415 1048.23 95.5921 1049.12 92.4775C1050.04 89.363 1051.39 86.5329 1053.19 83.9873C1054.99 81.4417 1056.85 79.6449 1058.78 78.5967L1059.64 81.3369C1057.45 83.014 1055.65 85.5746 1054.24 89.0186C1052.85 92.4626 1052.09 96.3184 1051.95 100.586L1051.93 102.495C1051.93 108.275 1052.99 113.291 1055.1 117.544C1056.37 120.09 1057.88 122.081 1059.64 123.519L1058.78 126.057C1056.79 124.949 1054.89 123.092 1053.08 120.486C1049.54 115.395 1047.78 109.308 1047.78 102.226ZM1068.17 115.5H1064.02V91.1973H1068.17V115.5ZM1063.68 84.751C1063.68 84.0772 1063.88 83.5081 1064.28 83.044C1064.7 82.5798 1065.32 82.3477 1066.13 82.3477C1066.94 82.3477 1067.55 82.5798 1067.97 83.044C1068.39 83.5081 1068.6 84.0772 1068.6 84.751C1068.6 85.4248 1068.39 85.9863 1067.97 86.4356C1067.55 86.8848 1066.94 87.1094 1066.13 87.1094C1065.32 87.1094 1064.7 86.8848 1064.28 86.4356C1063.88 85.9863 1063.68 85.4248 1063.68 84.751ZM1076.89 115.5V94.4092H1073.04V91.1973H1076.89V88.7041C1076.89 86.0986 1077.58 84.0846 1078.97 82.6621C1080.37 81.2396 1082.34 80.5283 1084.88 80.5283C1085.84 80.5283 1086.79 80.6556 1087.73 80.9102L1087.51 84.2793C1086.81 84.1445 1086.06 84.0772 1085.26 84.0772C1083.92 84.0772 1082.87 84.474 1082.14 85.2676C1081.41 86.0462 1081.04 87.1693 1081.04 88.6367V91.1973H1086.23V94.4092H1081.04V115.5H1076.89ZM1117.25 115.5C1117.01 115.021 1116.81 114.167 1116.66 112.939C1114.73 114.946 1112.43 115.949 1109.75 115.949C1107.35 115.949 1105.38 115.275 1103.84 113.928C1102.31 112.565 1101.55 110.843 1101.55 108.762C1101.55 106.231 1102.51 104.27 1104.42 102.877C1106.35 101.469 1109.06 100.766 1112.55 100.766H1116.6V98.8565C1116.6 97.404 1116.16 96.251 1115.29 95.3975C1114.42 94.529 1113.14 94.0947 1111.45 94.0947C1109.97 94.0947 1108.73 94.4691 1107.72 95.2178C1106.72 95.9665 1106.22 96.8724 1106.22 97.9356H1102.04C1102.04 96.7227 1102.47 95.5547 1103.32 94.4316C1104.19 93.2936 1105.36 92.3952 1106.83 91.7363C1108.31 91.0775 1109.93 90.7481 1111.7 90.7481C1114.5 90.7481 1116.69 91.4518 1118.28 92.8594C1119.87 94.252 1120.69 96.1761 1120.75 98.6318V109.817C1120.75 112.049 1121.04 113.823 1121.6 115.141V115.5H1117.25ZM1110.35 112.333C1111.65 112.333 1112.89 111.996 1114.06 111.322C1115.23 110.648 1116.07 109.772 1116.6 108.694V103.708H1113.34C1108.25 103.708 1105.7 105.198 1105.7 108.178C1105.7 109.48 1106.14 110.499 1107.01 111.232C1107.87 111.966 1108.99 112.333 1110.35 112.333ZM1147.79 103.618C1147.79 107.317 1146.95 110.297 1145.26 112.558C1143.56 114.819 1141.27 115.949 1138.38 115.949C1135.43 115.949 1133.11 115.013 1131.42 113.142V124.844H1127.27V91.1973H1131.06L1131.26 93.8926C1132.96 91.7962 1135.31 90.7481 1138.32 90.7481C1141.24 90.7481 1143.54 91.8486 1145.23 94.0498C1146.94 96.251 1147.79 99.3132 1147.79 103.236V103.618ZM1143.64 103.146C1143.64 100.406 1143.06 98.2425 1141.89 96.6553C1140.72 95.068 1139.12 94.2744 1137.08 94.2744C1134.56 94.2744 1132.68 95.39 1131.42 97.6211V109.233C1132.66 111.45 1134.56 112.558 1137.13 112.558C1139.12 112.558 1140.7 111.771 1141.86 110.199C1143.05 108.612 1143.64 106.261 1143.64 103.146ZM1173.62 103.618C1173.62 107.317 1172.78 110.297 1171.09 112.558C1169.39 114.819 1167.1 115.949 1164.21 115.949C1161.26 115.949 1158.94 115.013 1157.25 113.142V124.844H1153.1V91.1973H1156.89L1157.09 93.8926C1158.79 91.7962 1161.14 90.7481 1164.15 90.7481C1167.07 90.7481 1169.37 91.8486 1171.06 94.0498C1172.77 96.251 1173.62 99.3132 1173.62 103.236V103.618ZM1169.47 103.146C1169.47 100.406 1168.89 98.2425 1167.72 96.6553C1166.55 95.068 1164.95 94.2744 1162.91 94.2744C1160.4 94.2744 1158.51 95.39 1157.25 97.6211V109.233C1158.49 111.45 1160.4 112.558 1162.96 112.558C1164.95 112.558 1166.53 111.771 1167.69 110.199C1168.88 108.612 1169.47 106.261 1169.47 103.146ZM1183.44 115.5H1179.28V81H1183.44V115.5ZM1194.63 115.5H1190.47V91.1973H1194.63V115.5ZM1190.13 84.751C1190.13 84.0772 1190.34 83.5081 1190.74 83.044C1191.16 82.5798 1191.77 82.3477 1192.58 82.3477C1193.39 82.3477 1194 82.5798 1194.42 83.044C1194.84 83.5081 1195.05 84.0772 1195.05 84.751C1195.05 85.4248 1194.84 85.9863 1194.42 86.4356C1194 86.8848 1193.39 87.1094 1192.58 87.1094C1191.77 87.1094 1191.16 86.8848 1190.74 86.4356C1190.34 85.9863 1190.13 85.4248 1190.13 84.751ZM1211.04 112.558C1212.53 112.558 1213.82 112.108 1214.93 111.21C1216.04 110.312 1216.65 109.188 1216.77 107.841H1220.7C1220.63 109.233 1220.15 110.559 1219.27 111.816C1218.38 113.074 1217.2 114.077 1215.72 114.826C1214.25 115.575 1212.69 115.949 1211.04 115.949C1207.74 115.949 1205.1 114.849 1203.14 112.647C1201.19 110.431 1200.22 107.407 1200.22 103.573V102.877C1200.22 100.511 1200.65 98.4072 1201.52 96.5654C1202.39 94.7236 1203.63 93.2936 1205.25 92.2754C1206.88 91.2572 1208.81 90.7481 1211.02 90.7481C1213.75 90.7481 1216.01 91.5641 1217.81 93.1963C1219.62 94.8285 1220.58 96.9473 1220.7 99.5527H1216.77C1216.65 97.9805 1216.05 96.6927 1214.98 95.6895C1213.91 94.6712 1212.59 94.1621 1211.02 94.1621C1208.91 94.1621 1207.27 94.9258 1206.1 96.4531C1204.95 97.9655 1204.37 100.159 1204.37 103.034V103.82C1204.37 106.62 1204.95 108.777 1206.1 110.289C1207.26 111.801 1208.9 112.558 1211.04 112.558ZM1240.38 115.5C1240.14 115.021 1239.94 114.167 1239.79 112.939C1237.86 114.946 1235.56 115.949 1232.88 115.949C1230.48 115.949 1228.51 115.275 1226.97 113.928C1225.44 112.565 1224.68 110.843 1224.68 108.762C1224.68 106.231 1225.64 104.27 1227.55 102.877C1229.48 101.469 1232.2 100.766 1235.68 100.766H1239.73V98.8565C1239.73 97.404 1239.29 96.251 1238.42 95.3975C1237.56 94.529 1236.28 94.0947 1234.58 94.0947C1233.1 94.0947 1231.86 94.4691 1230.85 95.2178C1229.85 95.9665 1229.35 96.8724 1229.35 97.9356H1225.17C1225.17 96.7227 1225.6 95.5547 1226.45 94.4316C1227.32 93.2936 1228.49 92.3952 1229.96 91.7363C1231.44 91.0775 1233.06 90.7481 1234.83 90.7481C1237.63 90.7481 1239.82 91.4518 1241.41 92.8594C1243 94.252 1243.82 96.1761 1243.88 98.6318V109.817C1243.88 112.049 1244.17 113.823 1244.74 115.141V115.5H1240.38ZM1233.48 112.333C1234.79 112.333 1236.02 111.996 1237.19 111.322C1238.36 110.648 1239.2 109.772 1239.73 108.694V103.708H1236.47C1231.38 103.708 1228.83 105.198 1228.83 108.178C1228.83 109.48 1229.27 110.499 1230.14 111.232C1231 111.966 1232.12 112.333 1233.48 112.333ZM1270.97 103.618C1270.97 107.332 1270.12 110.319 1268.41 112.58C1266.7 114.826 1264.41 115.949 1261.54 115.949C1258.47 115.949 1256.09 114.864 1254.42 112.692L1254.21 115.5H1250.4V81H1254.55V93.8701C1256.23 91.7887 1258.54 90.7481 1261.49 90.7481C1264.44 90.7481 1266.76 91.8636 1268.43 94.0947C1270.12 96.3259 1270.97 99.3805 1270.97 103.259V103.618ZM1266.81 103.146C1266.81 100.316 1266.27 98.1302 1265.18 96.5879C1264.08 95.0456 1262.51 94.2744 1260.46 94.2744C1257.72 94.2744 1255.75 95.5472 1254.55 98.0928V108.604C1255.82 111.15 1257.81 112.423 1260.5 112.423C1262.49 112.423 1264.04 111.652 1265.15 110.109C1266.26 108.567 1266.81 106.246 1266.81 103.146ZM1280.74 115.5H1276.59V81H1280.74V115.5ZM1297.5 115.949C1294.2 115.949 1291.52 114.871 1289.46 112.715C1287.39 110.544 1286.36 107.646 1286.36 104.022V103.259C1286.36 100.848 1286.81 98.6992 1287.73 96.8125C1288.65 94.9108 1289.94 93.4284 1291.59 92.3652C1293.25 91.2871 1295.05 90.7481 1296.98 90.7481C1300.14 90.7481 1302.6 91.7887 1304.35 93.8701C1306.1 95.9515 1306.98 98.9313 1306.98 102.81V104.539H1290.51C1290.57 106.935 1291.27 108.874 1292.6 110.356C1293.95 111.824 1295.65 112.558 1297.72 112.558C1299.19 112.558 1300.43 112.258 1301.45 111.659C1302.47 111.06 1303.36 110.267 1304.12 109.278L1306.66 111.255C1304.62 114.384 1301.57 115.949 1297.5 115.949ZM1296.98 94.1621C1295.3 94.1621 1293.9 94.776 1292.76 96.0039C1291.62 97.2168 1290.92 98.9238 1290.65 101.125H1302.82V100.811C1302.7 98.6992 1302.13 97.0671 1301.11 95.9141C1300.09 94.7461 1298.72 94.1621 1296.98 94.1621ZM1321.4 102.45C1321.4 105.789 1320.95 108.994 1320.07 112.063C1319.2 115.118 1317.86 117.941 1316.05 120.531C1314.25 123.122 1312.37 124.964 1310.39 126.057L1309.51 123.519C1311.82 121.752 1313.67 119.011 1315.06 115.298C1316.47 111.569 1317.19 107.437 1317.22 102.899V102.181C1317.22 99.0361 1316.89 96.1162 1316.23 93.4209C1315.57 90.7106 1314.65 88.2848 1313.47 86.1436C1312.3 84.0023 1310.98 82.3327 1309.51 81.1348L1310.39 78.5967C1312.37 79.6898 1314.24 81.5166 1316.03 84.0772C1317.82 86.6377 1319.16 89.4603 1320.05 92.5449C1320.95 95.6296 1321.4 98.9313 1321.4 102.45Z" fill="white"/>
<path d="M677.148 172.507C673.449 171.444 670.754 170.141 669.062 168.599C667.385 167.041 666.546 165.125 666.546 162.849C666.546 160.273 667.572 158.147 669.624 156.47C671.69 154.778 674.37 153.932 677.665 153.932C679.911 153.932 681.91 154.366 683.662 155.234C685.429 156.103 686.791 157.301 687.75 158.828C688.723 160.356 689.209 162.025 689.209 163.837H684.875C684.875 161.86 684.246 160.311 682.988 159.188C681.73 158.05 679.956 157.481 677.665 157.481C675.538 157.481 673.876 157.952 672.678 158.896C671.495 159.824 670.904 161.119 670.904 162.781C670.904 164.114 671.465 165.245 672.588 166.173C673.726 167.086 675.651 167.925 678.361 168.689C681.086 169.452 683.212 170.298 684.74 171.227C686.282 172.14 687.42 173.211 688.154 174.439C688.903 175.666 689.277 177.111 689.277 178.774C689.277 181.424 688.244 183.55 686.177 185.152C684.111 186.74 681.348 187.533 677.889 187.533C675.643 187.533 673.547 187.107 671.6 186.253C669.653 185.385 668.149 184.202 667.085 182.704C666.037 181.207 665.513 179.507 665.513 177.606H669.848C669.848 179.582 670.574 181.147 672.027 182.3C673.494 183.438 675.448 184.007 677.889 184.007C680.165 184.007 681.91 183.543 683.123 182.614C684.335 181.686 684.942 180.421 684.942 178.818C684.942 177.216 684.38 175.981 683.257 175.112C682.134 174.229 680.098 173.36 677.148 172.507ZM704.258 187.533C700.964 187.533 698.284 186.455 696.217 184.299C694.151 182.128 693.118 179.23 693.118 175.607V174.843C693.118 172.432 693.574 170.283 694.488 168.397C695.416 166.495 696.704 165.012 698.351 163.949C700.013 162.871 701.81 162.332 703.742 162.332C706.901 162.332 709.357 163.373 711.109 165.454C712.861 167.536 713.737 170.515 713.737 174.394V176.123H697.273C697.333 178.519 698.029 180.458 699.362 181.941C700.709 183.408 702.417 184.142 704.483 184.142C705.95 184.142 707.193 183.842 708.211 183.243C709.23 182.644 710.121 181.851 710.884 180.862L713.422 182.839C711.386 185.969 708.331 187.533 704.258 187.533ZM703.742 165.746C702.065 165.746 700.657 166.36 699.519 167.588C698.381 168.801 697.677 170.508 697.408 172.709H709.582V172.395C709.462 170.283 708.893 168.651 707.875 167.498C706.856 166.33 705.479 165.746 703.742 165.746ZM730.313 166.51C729.684 166.405 729.003 166.353 728.269 166.353C725.544 166.353 723.694 167.513 722.721 169.834V187.084H718.566V162.781H722.609L722.676 165.589C724.039 163.418 725.971 162.332 728.471 162.332C729.28 162.332 729.894 162.437 730.313 162.647V166.51ZM742.577 181.446L748.596 162.781H752.841L744.126 187.084H740.959L732.155 162.781H736.4L742.577 181.446ZM766.61 187.533C763.316 187.533 760.635 186.455 758.569 184.299C756.502 182.128 755.469 179.23 755.469 175.607V174.843C755.469 172.432 755.926 170.283 756.839 168.397C757.768 166.495 759.056 165.012 760.703 163.949C762.365 162.871 764.162 162.332 766.093 162.332C769.253 162.332 771.708 163.373 773.46 165.454C775.212 167.536 776.088 170.515 776.088 174.394V176.123H759.625C759.684 178.519 760.381 180.458 761.713 181.941C763.061 183.408 764.768 184.142 766.834 184.142C768.302 184.142 769.545 183.842 770.563 183.243C771.581 182.644 772.472 181.851 773.236 180.862L775.774 182.839C773.737 185.969 770.683 187.533 766.61 187.533ZM766.093 165.746C764.416 165.746 763.009 166.36 761.871 167.588C760.733 168.801 760.029 170.508 759.759 172.709H771.933V172.395C771.813 170.283 771.244 168.651 770.226 167.498C769.208 166.33 767.83 165.746 766.093 165.746ZM792.665 166.51C792.036 166.405 791.354 166.353 790.621 166.353C787.895 166.353 786.046 167.513 785.073 169.834V187.084H780.917V162.781H784.96L785.028 165.589C786.39 163.418 788.322 162.332 790.823 162.332C791.631 162.332 792.245 162.437 792.665 162.647V166.51ZM810.656 180.638C810.656 179.515 810.229 178.646 809.375 178.032C808.537 177.403 807.062 176.864 804.951 176.415C802.854 175.966 801.185 175.427 799.942 174.798C798.714 174.169 797.801 173.42 797.202 172.552C796.618 171.683 796.326 170.65 796.326 169.452C796.326 167.461 797.164 165.776 798.841 164.399C800.533 163.021 802.69 162.332 805.31 162.332C808.065 162.332 810.296 163.043 812.003 164.466C813.725 165.888 814.586 167.708 814.586 169.924H810.409C810.409 168.786 809.922 167.805 808.949 166.982C807.99 166.158 806.778 165.746 805.31 165.746C803.798 165.746 802.615 166.076 801.761 166.734C800.908 167.393 800.481 168.254 800.481 169.317C800.481 170.321 800.878 171.077 801.671 171.586C802.465 172.095 803.895 172.582 805.961 173.046C808.043 173.51 809.727 174.064 811.015 174.708C812.303 175.352 813.254 176.131 813.868 177.044C814.497 177.942 814.811 179.043 814.811 180.346C814.811 182.517 813.943 184.261 812.206 185.579C810.469 186.882 808.215 187.533 805.445 187.533C803.498 187.533 801.776 187.189 800.279 186.5C798.781 185.811 797.606 184.853 796.752 183.625C795.914 182.382 795.495 181.042 795.495 179.605H799.65C799.725 180.997 800.279 182.105 801.312 182.929C802.36 183.737 803.738 184.142 805.445 184.142C807.017 184.142 808.275 183.827 809.218 183.198C810.177 182.554 810.656 181.701 810.656 180.638ZM837.272 156.897V162.781H841.809V165.993H837.272V181.065C837.272 182.038 837.474 182.772 837.878 183.266C838.283 183.745 838.972 183.984 839.945 183.984C840.424 183.984 841.083 183.895 841.921 183.715V187.084C840.828 187.384 839.765 187.533 838.732 187.533C836.875 187.533 835.475 186.972 834.532 185.849C833.588 184.726 833.117 183.131 833.117 181.065V165.993H828.692V162.781H833.117V156.897H837.272ZM850.838 165.724C852.68 163.463 855.076 162.332 858.026 162.332C863.162 162.332 865.752 165.23 865.797 171.025V187.084H861.642V171.002C861.627 169.25 861.223 167.955 860.429 167.116C859.651 166.278 858.43 165.858 856.768 165.858C855.42 165.858 854.237 166.218 853.219 166.937C852.201 167.655 851.407 168.599 850.838 169.767V187.084H846.683V152.584H850.838V165.724ZM887.023 187.084C886.783 186.605 886.589 185.751 886.439 184.524C884.507 186.53 882.201 187.533 879.521 187.533C877.125 187.533 875.156 186.859 873.614 185.512C872.086 184.149 871.323 182.427 871.323 180.346C871.323 177.815 872.281 175.854 874.198 174.461C876.129 173.053 878.84 172.35 882.329 172.35H886.372V170.441C886.372 168.988 885.937 167.835 885.069 166.982C884.2 166.113 882.92 165.679 881.228 165.679C879.746 165.679 878.503 166.053 877.5 166.802C876.496 167.551 875.995 168.456 875.995 169.52H871.817C871.817 168.307 872.244 167.139 873.097 166.016C873.966 164.878 875.134 163.979 876.601 163.32C878.083 162.662 879.708 162.332 881.475 162.332C884.275 162.332 886.469 163.036 888.056 164.443C889.643 165.836 890.467 167.76 890.527 170.216V181.401C890.527 183.633 890.811 185.407 891.38 186.725V187.084H887.023ZM880.127 183.917C881.43 183.917 882.666 183.58 883.833 182.906C885.001 182.233 885.847 181.357 886.372 180.278V175.292H883.115C878.024 175.292 875.478 176.782 875.478 179.762C875.478 181.065 875.912 182.083 876.781 182.817C877.649 183.55 878.765 183.917 880.127 183.917ZM902.678 156.897V162.781H907.215V165.993H902.678V181.065C902.678 182.038 902.88 182.772 903.285 183.266C903.689 183.745 904.378 183.984 905.351 183.984C905.83 183.984 906.489 183.895 907.328 183.715V187.084C906.235 187.384 905.171 187.533 904.138 187.533C902.281 187.533 900.881 186.972 899.938 185.849C898.995 184.726 898.523 183.131 898.523 181.065V165.993H894.098V162.781H898.523V156.897H902.678ZM930.283 175.831L927.677 178.549V187.084H923.522V152.584H927.677V173.45L929.901 170.777L937.47 162.781H942.524L933.068 172.934L943.625 187.084H938.75L930.283 175.831ZM956.45 187.533C953.155 187.533 950.475 186.455 948.409 184.299C946.342 182.128 945.309 179.23 945.309 175.607V174.843C945.309 172.432 945.766 170.283 946.679 168.397C947.608 166.495 948.895 165.012 950.542 163.949C952.205 162.871 954.001 162.332 955.933 162.332C959.093 162.332 961.548 163.373 963.3 165.454C965.052 167.536 965.928 170.515 965.928 174.394V176.123H949.464C949.524 178.519 950.221 180.458 951.553 181.941C952.901 183.408 954.608 184.142 956.674 184.142C958.142 184.142 959.385 183.842 960.403 183.243C961.421 182.644 962.312 181.851 963.076 180.862L965.614 182.839C963.577 185.969 960.523 187.533 956.45 187.533ZM955.933 165.746C954.256 165.746 952.848 166.36 951.71 167.588C950.572 168.801 949.869 170.508 949.599 172.709H961.773V172.395C961.653 170.283 961.084 168.651 960.066 167.498C959.048 166.33 957.67 165.746 955.933 165.746ZM980.842 187.533C977.548 187.533 974.868 186.455 972.801 184.299C970.735 182.128 969.702 179.23 969.702 175.607V174.843C969.702 172.432 970.158 170.283 971.072 168.397C972 166.495 973.288 165.012 974.935 163.949C976.597 162.871 978.394 162.332 980.326 162.332C983.485 162.332 985.941 163.373 987.693 165.454C989.445 167.536 990.321 170.515 990.321 174.394V176.123H973.857C973.917 178.519 974.613 180.458 975.946 181.941C977.293 183.408 979 184.142 981.067 184.142C982.534 184.142 983.777 183.842 984.795 183.243C985.814 182.644 986.705 181.851 987.468 180.862L990.006 182.839C987.97 185.969 984.915 187.533 980.842 187.533ZM980.326 165.746C978.649 165.746 977.241 166.36 976.103 167.588C974.965 168.801 974.261 170.508 973.992 172.709H986.166V172.395C986.046 170.283 985.477 168.651 984.458 167.498C983.44 166.33 982.063 165.746 980.326 165.746ZM1015.68 175.202C1015.68 178.901 1014.83 181.881 1013.14 184.142C1011.45 186.403 1009.16 187.533 1006.27 187.533C1003.32 187.533 1001 186.597 999.305 184.726V196.428H995.15V162.781H998.946L999.148 165.477C1000.84 163.38 1003.19 162.332 1006.2 162.332C1009.12 162.332 1011.43 163.433 1013.12 165.634C1014.83 167.835 1015.68 170.897 1015.68 174.82V175.202ZM1011.52 174.731C1011.52 171.99 1010.94 169.827 1009.77 168.239C1008.6 166.652 1007 165.858 1004.97 165.858C1002.45 165.858 1000.56 166.974 999.305 169.205V180.817C1000.55 183.034 1002.45 184.142 1005.01 184.142C1007 184.142 1008.58 183.356 1009.75 181.783C1010.93 180.196 1011.52 177.845 1011.52 174.731ZM1038.03 156.897V162.781H1042.56V165.993H1038.03V181.065C1038.03 182.038 1038.23 182.772 1038.63 183.266C1039.04 183.745 1039.73 183.984 1040.7 183.984C1041.18 183.984 1041.84 183.895 1042.68 183.715V187.084C1041.58 187.384 1040.52 187.533 1039.49 187.533C1037.63 187.533 1036.23 186.972 1035.29 185.849C1034.34 184.726 1033.87 183.131 1033.87 181.065V165.993H1029.45V162.781H1033.87V156.897H1038.03ZM1051.59 165.724C1053.44 163.463 1055.83 162.332 1058.78 162.332C1063.92 162.332 1066.51 165.23 1066.55 171.025V187.084H1062.4V171.002C1062.38 169.25 1061.98 167.955 1061.19 167.116C1060.41 166.278 1059.19 165.858 1057.52 165.858C1056.18 165.858 1054.99 166.218 1053.98 166.937C1052.96 167.655 1052.16 168.599 1051.59 169.767V187.084H1047.44V152.584H1051.59V165.724ZM1082.86 187.533C1079.57 187.533 1076.89 186.455 1074.82 184.299C1072.75 182.128 1071.72 179.23 1071.72 175.607V174.843C1071.72 172.432 1072.18 170.283 1073.09 168.397C1074.02 166.495 1075.31 165.012 1076.95 163.949C1078.61 162.871 1080.41 162.332 1082.34 162.332C1085.5 162.332 1087.96 163.373 1089.71 165.454C1091.46 167.536 1092.34 170.515 1092.34 174.394V176.123H1075.87C1075.93 178.519 1076.63 180.458 1077.96 181.941C1079.31 183.408 1081.02 184.142 1083.08 184.142C1084.55 184.142 1085.79 183.842 1086.81 183.243C1087.83 182.644 1088.72 181.851 1089.49 180.862L1092.02 182.839C1089.99 185.969 1086.93 187.533 1082.86 187.533ZM1082.34 165.746C1080.67 165.746 1079.26 166.36 1078.12 167.588C1076.98 168.801 1076.28 170.508 1076.01 172.709H1088.18V172.395C1088.06 170.283 1087.49 168.651 1086.48 167.498C1085.46 166.33 1084.08 165.746 1082.34 165.746ZM1122.73 180.638C1122.73 179.515 1122.3 178.646 1121.45 178.032C1120.61 177.403 1119.13 176.864 1117.02 176.415C1114.93 175.966 1113.26 175.427 1112.01 174.798C1110.79 174.169 1109.87 173.42 1109.27 172.552C1108.69 171.683 1108.4 170.65 1108.4 169.452C1108.4 167.461 1109.24 165.776 1110.91 164.399C1112.61 163.021 1114.76 162.332 1117.38 162.332C1120.14 162.332 1122.37 163.043 1124.08 164.466C1125.8 165.888 1126.66 167.708 1126.66 169.924H1122.48C1122.48 168.786 1121.99 167.805 1121.02 166.982C1120.06 166.158 1118.85 165.746 1117.38 165.746C1115.87 165.746 1114.69 166.076 1113.83 166.734C1112.98 167.393 1112.55 168.254 1112.55 169.317C1112.55 170.321 1112.95 171.077 1113.74 171.586C1114.54 172.095 1115.97 172.582 1118.03 173.046C1120.12 173.51 1121.8 174.064 1123.09 174.708C1124.38 175.352 1125.33 176.131 1125.94 177.044C1126.57 177.942 1126.88 179.043 1126.88 180.346C1126.88 182.517 1126.01 184.261 1124.28 185.579C1122.54 186.882 1120.29 187.533 1117.52 187.533C1115.57 187.533 1113.85 187.189 1112.35 186.5C1110.85 185.811 1109.68 184.853 1108.82 183.625C1107.99 182.382 1107.57 181.042 1107.57 179.605H1111.72C1111.8 180.997 1112.35 182.105 1113.38 182.929C1114.43 183.737 1115.81 184.142 1117.52 184.142C1119.09 184.142 1120.35 183.827 1121.29 183.198C1122.25 182.554 1122.73 181.701 1122.73 180.638ZM1142.38 187.533C1139.09 187.533 1136.41 186.455 1134.34 184.299C1132.27 182.128 1131.24 179.23 1131.24 175.607V174.843C1131.24 172.432 1131.7 170.283 1132.61 168.397C1133.54 166.495 1134.83 165.012 1136.47 163.949C1138.14 162.871 1139.93 162.332 1141.86 162.332C1145.02 162.332 1147.48 163.373 1149.23 165.454C1150.98 167.536 1151.86 170.515 1151.86 174.394V176.123H1135.4C1135.46 178.519 1136.15 180.458 1137.48 181.941C1138.83 183.408 1140.54 184.142 1142.61 184.142C1144.07 184.142 1145.32 183.842 1146.33 183.243C1147.35 182.644 1148.24 181.851 1149.01 180.862L1151.55 182.839C1149.51 185.969 1146.45 187.533 1142.38 187.533ZM1141.86 165.746C1140.19 165.746 1138.78 166.36 1137.64 167.588C1136.5 168.801 1135.8 170.508 1135.53 172.709H1147.7V172.395C1147.58 170.283 1147.02 168.651 1146 167.498C1144.98 166.33 1143.6 165.746 1141.86 165.746ZM1168.44 166.51C1167.81 166.405 1167.13 166.353 1166.39 166.353C1163.67 166.353 1161.82 167.513 1160.84 169.834V187.084H1156.69V162.781H1160.73L1160.8 165.589C1162.16 163.418 1164.09 162.332 1166.59 162.332C1167.4 162.332 1168.02 162.437 1168.44 162.647V166.51ZM1180.7 181.446L1186.72 162.781H1190.96L1182.25 187.084H1179.08L1170.28 162.781H1174.52L1180.7 181.446ZM1199.48 187.084H1195.32V162.781H1199.48V187.084ZM1194.98 156.335C1194.98 155.661 1195.19 155.092 1195.59 154.628C1196.01 154.164 1196.62 153.932 1197.43 153.932C1198.24 153.932 1198.86 154.164 1199.27 154.628C1199.69 155.092 1199.9 155.661 1199.9 156.335C1199.9 157.009 1199.69 157.57 1199.27 158.02C1198.86 158.469 1198.24 158.693 1197.43 158.693C1196.62 158.693 1196.01 158.469 1195.59 158.02C1195.19 157.57 1194.98 157.009 1194.98 156.335ZM1215.9 184.142C1217.38 184.142 1218.67 183.692 1219.78 182.794C1220.89 181.896 1221.5 180.773 1221.62 179.425H1225.55C1225.48 180.817 1225 182.143 1224.12 183.4C1223.23 184.658 1222.05 185.662 1220.57 186.41C1219.1 187.159 1217.54 187.533 1215.9 187.533C1212.59 187.533 1209.95 186.433 1207.99 184.232C1206.04 182.015 1205.07 178.991 1205.07 175.157V174.461C1205.07 172.095 1205.5 169.991 1206.37 168.15C1207.24 166.308 1208.48 164.878 1210.1 163.859C1211.73 162.841 1213.66 162.332 1215.87 162.332C1218.6 162.332 1220.86 163.148 1222.66 164.78C1224.47 166.413 1225.43 168.531 1225.55 171.137H1221.62C1221.5 169.565 1220.9 168.277 1219.83 167.274C1218.76 166.255 1217.45 165.746 1215.87 165.746C1213.76 165.746 1212.12 166.51 1210.95 168.037C1209.8 169.55 1209.23 171.743 1209.23 174.618V175.404C1209.23 178.205 1209.8 180.361 1210.95 181.873C1212.11 183.386 1213.75 184.142 1215.9 184.142ZM1240.31 187.533C1237.02 187.533 1234.34 186.455 1232.27 184.299C1230.2 182.128 1229.17 179.23 1229.17 175.607V174.843C1229.17 172.432 1229.63 170.283 1230.54 168.397C1231.47 166.495 1232.76 165.012 1234.4 163.949C1236.07 162.871 1237.86 162.332 1239.79 162.332C1242.95 162.332 1245.41 163.373 1247.16 165.454C1248.91 167.536 1249.79 170.515 1249.79 174.394V176.123H1233.33C1233.39 178.519 1234.08 180.458 1235.41 181.941C1236.76 183.408 1238.47 184.142 1240.54 184.142C1242 184.142 1243.25 183.842 1244.26 183.243C1245.28 182.644 1246.17 181.851 1246.94 180.862L1249.48 182.839C1247.44 185.969 1244.38 187.533 1240.31 187.533ZM1239.79 165.746C1238.12 165.746 1236.71 166.36 1235.57 167.588C1234.43 168.801 1233.73 170.508 1233.46 172.709H1245.63V172.395C1245.51 170.283 1244.95 168.651 1243.93 167.498C1242.91 166.33 1241.53 165.746 1239.79 165.746ZM1270.54 187.084H1266.39V152.584H1270.54V187.084ZM1281.73 187.084H1277.57V162.781H1281.73V187.084ZM1277.24 156.335C1277.24 155.661 1277.44 155.092 1277.84 154.628C1278.26 154.164 1278.88 153.932 1279.69 153.932C1280.49 153.932 1281.11 154.164 1281.53 154.628C1281.95 155.092 1282.16 155.661 1282.16 156.335C1282.16 157.009 1281.95 157.57 1281.53 158.02C1281.11 158.469 1280.49 158.693 1279.69 158.693C1278.88 158.693 1278.26 158.469 1277.84 158.02C1277.44 157.57 1277.24 157.009 1277.24 156.335ZM1296.42 181.446L1302.44 162.781H1306.68L1297.97 187.084H1294.8L1286 162.781H1290.24L1296.42 181.446ZM1320.45 187.533C1317.16 187.533 1314.48 186.455 1312.41 184.299C1310.34 182.128 1309.31 179.23 1309.31 175.607V174.843C1309.31 172.432 1309.77 170.283 1310.68 168.397C1311.61 166.495 1312.9 165.012 1314.54 163.949C1316.21 162.871 1318 162.332 1319.94 162.332C1323.09 162.332 1325.55 163.373 1327.3 165.454C1329.05 167.536 1329.93 170.515 1329.93 174.394V176.123H1313.47C1313.53 178.519 1314.22 180.458 1315.56 181.941C1316.9 183.408 1318.61 184.142 1320.68 184.142C1322.14 184.142 1323.39 183.842 1324.4 183.243C1325.42 182.644 1326.31 181.851 1327.08 180.862L1329.62 182.839C1327.58 185.969 1324.52 187.533 1320.45 187.533ZM1319.94 165.746C1318.26 165.746 1316.85 166.36 1315.71 167.588C1314.57 168.801 1313.87 170.508 1313.6 172.709H1325.77V172.395C1325.66 170.283 1325.09 168.651 1324.07 167.498C1323.05 166.33 1321.67 165.746 1319.94 165.746Z" fill="white"/>
<path d="M94.1886 32.3457H83.6769V61.5H79.3868V32.3457H68.8976V28.7969H94.1886V32.3457ZM102.903 61.5H98.7482V37.1973H102.903V61.5ZM98.4113 30.751C98.4113 30.0772 98.6134 29.5081 99.0177 29.044C99.437 28.5798 100.051 28.3477 100.859 28.3477C101.668 28.3477 102.282 28.5798 102.701 29.044C103.121 29.5081 103.33 30.0772 103.33 30.751C103.33 31.4248 103.121 31.9863 102.701 32.4356C102.282 32.8848 101.668 33.1094 100.859 33.1094C100.051 33.1094 99.437 32.8848 99.0177 32.4356C98.6134 31.9863 98.4113 31.4248 98.4113 30.751ZM119.659 61.9492C116.365 61.9492 113.685 60.8711 111.618 58.7149C109.552 56.5436 108.519 53.6462 108.519 50.0225V49.2588C108.519 46.848 108.975 44.6992 109.889 42.8125C110.817 40.9108 112.105 39.4284 113.752 38.3652C115.414 37.2871 117.211 36.7481 119.143 36.7481C122.302 36.7481 124.758 37.7887 126.51 39.8701C128.262 41.9515 129.138 44.9313 129.138 48.8096V50.5391H112.674C112.734 52.9349 113.43 54.874 114.763 56.3565C116.11 57.8239 117.818 58.5576 119.884 58.5576C121.351 58.5576 122.594 58.2581 123.612 57.6592C124.631 57.0602 125.522 56.2666 126.285 55.2783L128.823 57.2549C126.787 60.3844 123.732 61.9492 119.659 61.9492ZM119.143 40.1621C117.466 40.1621 116.058 40.776 114.92 42.0039C113.782 43.2168 113.078 44.9238 112.809 47.125H124.983V46.8106C124.863 44.6992 124.294 43.0671 123.276 41.9141C122.257 40.7461 120.88 40.1621 119.143 40.1621ZM145.714 40.9258C145.085 40.821 144.404 40.7686 143.67 40.7686C140.945 40.7686 139.095 41.929 138.122 44.25V61.5H133.967V37.1973H138.01L138.077 40.0049C139.44 37.8337 141.372 36.7481 143.872 36.7481C144.681 36.7481 145.295 36.8529 145.714 37.0625V40.9258ZM160.808 48.2256C160.808 44.8415 161.257 41.5921 162.155 38.4775C163.069 35.363 164.424 32.5329 166.221 29.9873C168.018 27.4417 169.882 25.6449 171.814 24.5967L172.667 27.3369C170.481 29.014 168.684 31.5746 167.276 35.0186C165.884 38.4626 165.12 42.3184 164.985 46.5859L164.963 48.4951C164.963 54.2751 166.019 59.2913 168.13 63.544C169.403 66.0895 170.915 68.0811 172.667 69.5186L171.814 72.0566C169.822 70.9486 167.92 69.0918 166.109 66.4863C162.575 61.3952 160.808 55.3083 160.808 48.2256ZM176.014 61.5V28.7969H186.548C189.438 28.7969 192.036 29.4557 194.342 30.7734C196.648 32.0762 198.445 33.9255 199.733 36.3213C201.035 38.7022 201.694 41.375 201.709 44.3399V45.8447C201.709 48.8395 201.073 51.5274 199.8 53.9082C198.542 56.2741 196.76 58.1309 194.454 59.4785C192.163 60.8112 189.603 61.485 186.773 61.5H176.014ZM183.898 34.8838V55.4356H186.638C188.899 55.4356 190.636 54.6344 191.849 53.0322C193.062 51.415 193.668 49.0192 193.668 45.8447V44.4297C193.668 41.2702 193.062 38.8893 191.849 37.2871C190.636 35.6849 188.869 34.8838 186.548 34.8838H183.898ZM216.511 61.9492C213.217 61.9492 210.536 60.8711 208.47 58.7149C206.403 56.5436 205.37 53.6462 205.37 50.0225V49.2588C205.37 46.848 205.827 44.6992 206.74 42.8125C207.669 40.9108 208.957 39.4284 210.604 38.3652C212.266 37.2871 214.063 36.7481 215.994 36.7481C219.154 36.7481 221.609 37.7887 223.361 39.8701C225.113 41.9515 225.989 44.9313 225.989 48.8096V50.5391H209.526C209.585 52.9349 210.282 54.874 211.614 56.3565C212.962 57.8239 214.669 58.5576 216.735 58.5576C218.203 58.5576 219.446 58.2581 220.464 57.6592C221.482 57.0602 222.373 56.2666 223.137 55.2783L225.675 57.2549C223.638 60.3844 220.584 61.9492 216.511 61.9492ZM215.994 40.1621C214.317 40.1621 212.91 40.776 211.772 42.0039C210.634 43.2168 209.93 44.9238 209.66 47.125H221.834V46.8106C221.714 44.6992 221.145 43.0671 220.127 41.9141C219.109 40.7461 217.731 40.1621 215.994 40.1621ZM238.523 55.8623L244.542 37.1973H248.787L240.072 61.5H236.905L228.101 37.1973H232.346L238.523 55.8623ZM262.556 61.9492C259.262 61.9492 256.581 60.8711 254.515 58.7149C252.448 56.5436 251.415 53.6462 251.415 50.0225V49.2588C251.415 46.848 251.872 44.6992 252.785 42.8125C253.714 40.9108 255.001 39.4284 256.649 38.3652C258.311 37.2871 260.108 36.7481 262.039 36.7481C265.199 36.7481 267.654 37.7887 269.406 39.8701C271.158 41.9515 272.034 44.9313 272.034 48.8096V50.5391H255.57C255.63 52.9349 256.327 54.874 257.659 56.3565C259.007 57.8239 260.714 58.5576 262.78 58.5576C264.248 58.5576 265.491 58.2581 266.509 57.6592C267.527 57.0602 268.418 56.2666 269.182 55.2783L271.72 57.2549C269.683 60.3844 266.629 61.9492 262.556 61.9492ZM262.039 40.1621C260.362 40.1621 258.955 40.776 257.817 42.0039C256.679 43.2168 255.975 44.9238 255.705 47.125H267.879V46.8106C267.759 44.6992 267.19 43.0671 266.172 41.9141C265.154 40.7461 263.776 40.1621 262.039 40.1621ZM281.378 61.5H277.223V27H281.378V61.5ZM286.948 49.124C286.948 46.7432 287.413 44.6019 288.341 42.7002C289.284 40.7985 290.587 39.3311 292.249 38.2979C293.926 37.2647 295.835 36.7481 297.977 36.7481C301.286 36.7481 303.959 37.8936 305.995 40.1846C308.047 42.4756 309.072 45.5228 309.072 49.3262V49.6182C309.072 51.9841 308.616 54.1104 307.702 55.9971C306.804 57.8688 305.509 59.3288 303.817 60.377C302.139 61.4251 300.208 61.9492 298.022 61.9492C294.727 61.9492 292.054 60.8037 290.003 58.5127C287.967 56.2217 286.948 53.1895 286.948 49.416V49.124ZM291.126 49.6182C291.126 52.3135 291.748 54.4772 292.99 56.1094C294.248 57.7415 295.925 58.5576 298.022 58.5576C300.133 58.5576 301.81 57.7341 303.053 56.0869C304.296 54.4248 304.917 52.1038 304.917 49.124C304.917 46.4587 304.281 44.3024 303.008 42.6553C301.75 40.9932 300.073 40.1621 297.977 40.1621C295.925 40.1621 294.271 40.9782 293.013 42.6104C291.755 44.2425 291.126 46.5785 291.126 49.6182ZM334.813 49.6182C334.813 53.3167 333.967 56.2966 332.275 58.5576C330.582 60.8187 328.291 61.9492 325.401 61.9492C322.452 61.9492 320.131 61.0134 318.439 59.1416V70.8438H314.283V37.1973H318.079L318.281 39.8926C319.973 37.7962 322.324 36.7481 325.334 36.7481C328.254 36.7481 330.56 37.8486 332.252 40.0498C333.959 42.251 334.813 45.3132 334.813 49.2363V49.6182ZM330.657 49.1465C330.657 46.4063 330.073 44.2425 328.905 42.6553C327.737 41.068 326.135 40.2744 324.099 40.2744C321.583 40.2744 319.696 41.39 318.439 43.6211V55.2334C319.681 57.4496 321.583 58.5576 324.144 58.5576C326.135 58.5576 327.715 57.7715 328.883 56.1992C330.066 54.612 330.657 52.2611 330.657 49.1465ZM344.022 37.1973L344.134 39.8926C345.916 37.7962 348.319 36.7481 351.344 36.7481C354.743 36.7481 357.056 38.0508 358.284 40.6563C359.093 39.4883 360.141 38.5449 361.429 37.8262C362.732 37.1074 364.266 36.7481 366.033 36.7481C371.364 36.7481 374.074 39.5706 374.164 45.2158V61.5H370.009V45.4629C370.009 43.7259 369.612 42.4307 368.818 41.5772C368.025 40.7087 366.692 40.2744 364.82 40.2744C363.278 40.2744 361.998 40.7386 360.98 41.667C359.961 42.5804 359.37 43.8158 359.205 45.3731V61.5H355.027V45.5752C355.027 42.0413 353.298 40.2744 349.839 40.2744C347.114 40.2744 345.249 41.4349 344.246 43.7559V61.5H340.091V37.1973H344.022ZM390.538 61.9492C387.244 61.9492 384.564 60.8711 382.497 58.7149C380.431 56.5436 379.398 53.6462 379.398 50.0225V49.2588C379.398 46.848 379.854 44.6992 380.768 42.8125C381.696 40.9108 382.984 39.4284 384.631 38.3652C386.293 37.2871 388.09 36.7481 390.022 36.7481C393.181 36.7481 395.637 37.7887 397.389 39.8701C399.141 41.9515 400.017 44.9313 400.017 48.8096V50.5391H383.553C383.613 52.9349 384.309 54.874 385.642 56.3565C386.989 57.8239 388.696 58.5576 390.763 58.5576C392.23 58.5576 393.473 58.2581 394.491 57.6592C395.51 57.0602 396.401 56.2666 397.164 55.2783L399.702 57.2549C397.666 60.3844 394.611 61.9492 390.538 61.9492ZM390.022 40.1621C388.345 40.1621 386.937 40.776 385.799 42.0039C384.661 43.2168 383.957 44.9238 383.688 47.125H395.861V46.8106C395.742 44.6992 395.173 43.0671 394.154 41.9141C393.136 40.7461 391.759 40.1621 390.022 40.1621ZM408.776 37.1973L408.911 40.252C410.768 37.916 413.194 36.7481 416.189 36.7481C421.325 36.7481 423.915 39.6455 423.96 45.4404V61.5H419.805V45.418C419.79 43.666 419.386 42.3708 418.592 41.5322C417.813 40.6937 416.593 40.2744 414.931 40.2744C413.583 40.2744 412.4 40.6338 411.382 41.3525C410.364 42.0713 409.57 43.0147 409.001 44.1826V61.5H404.846V37.1973H408.776ZM435.864 31.3125V37.1973H440.401V40.4092H435.864V55.4805C435.864 56.4538 436.067 57.1875 436.471 57.6816C436.875 58.1608 437.564 58.4004 438.537 58.4004C439.016 58.4004 439.675 58.3106 440.514 58.1309V61.5C439.421 61.7995 438.358 61.9492 437.324 61.9492C435.468 61.9492 434.068 61.3877 433.124 60.2647C432.181 59.1416 431.709 57.5469 431.709 55.4805V40.4092H427.284V37.1973H431.709V31.3125H435.864ZM445.141 68.0137L442.782 66.3965C444.19 64.4349 444.924 62.4134 444.984 60.332V56.5811H449.049V59.8379C449.049 61.3503 448.675 62.8626 447.926 64.375C447.192 65.8874 446.264 67.1003 445.141 68.0137ZM138.167 88.8838H128.352V115.5H120.468V88.8838H110.832V82.7969H138.167V88.8838ZM152.273 115.949C148.978 115.949 146.298 114.871 144.232 112.715C142.165 110.544 141.132 107.646 141.132 104.022V103.259C141.132 100.848 141.589 98.6992 142.502 96.8125C143.43 94.9108 144.718 93.4284 146.365 92.3652C148.027 91.2871 149.824 90.7481 151.756 90.7481C154.915 90.7481 157.371 91.7887 159.123 93.8701C160.875 95.9515 161.751 98.9313 161.751 102.81V104.539H145.287C145.347 106.935 146.043 108.874 147.376 110.356C148.724 111.824 150.431 112.558 152.497 112.558C153.965 112.558 155.207 112.258 156.226 111.659C157.244 111.06 158.135 110.267 158.899 109.278L161.437 111.255C159.4 114.384 156.345 115.949 152.273 115.949ZM151.756 94.1621C150.079 94.1621 148.671 94.776 147.533 96.0039C146.395 97.2168 145.692 98.9238 145.422 101.125H157.596V100.811C157.476 98.6992 156.907 97.0671 155.889 95.9141C154.871 94.7461 153.493 94.1621 151.756 94.1621ZM180.731 109.054C180.731 107.931 180.304 107.062 179.45 106.448C178.612 105.819 177.137 105.28 175.026 104.831C172.929 104.382 171.26 103.843 170.017 103.214C168.789 102.585 167.875 101.836 167.276 100.968C166.693 100.099 166.401 99.0661 166.401 97.8682C166.401 95.8766 167.239 94.1921 168.916 92.8145C170.608 91.4369 172.764 90.7481 175.385 90.7481C178.14 90.7481 180.371 91.4593 182.078 92.8818C183.8 94.3044 184.661 96.1237 184.661 98.3399H180.484C180.484 97.2018 179.997 96.221 179.024 95.3975C178.065 94.5739 176.852 94.1621 175.385 94.1621C173.873 94.1621 172.69 94.4915 171.836 95.1504C170.983 95.8093 170.556 96.6703 170.556 97.7334C170.556 98.7367 170.953 99.4928 171.746 100.002C172.54 100.511 173.97 100.998 176.036 101.462C178.118 101.926 179.802 102.48 181.09 103.124C182.378 103.768 183.329 104.547 183.943 105.46C184.571 106.358 184.886 107.459 184.886 108.762C184.886 110.933 184.017 112.677 182.28 113.995C180.543 115.298 178.29 115.949 175.52 115.949C173.573 115.949 171.851 115.605 170.354 114.916C168.856 114.227 167.681 113.269 166.827 112.041C165.989 110.798 165.569 109.458 165.569 108.021H169.725C169.8 109.413 170.354 110.521 171.387 111.345C172.435 112.153 173.813 112.558 175.52 112.558C177.092 112.558 178.35 112.243 179.293 111.614C180.251 110.97 180.731 110.117 180.731 109.054ZM195.937 85.3125V91.1973H200.474V94.4092H195.937V109.48C195.937 110.454 196.139 111.188 196.543 111.682C196.947 112.161 197.636 112.4 198.609 112.4C199.089 112.4 199.748 112.311 200.586 112.131V115.5C199.493 115.799 198.43 115.949 197.397 115.949C195.54 115.949 194.14 115.388 193.196 114.265C192.253 113.142 191.781 111.547 191.781 109.48V94.4092H187.357V91.1973H191.781V85.3125H195.937ZM209.862 115.5H205.707V91.1973H209.862V115.5ZM205.37 84.751C205.37 84.0772 205.572 83.5081 205.977 83.044C206.396 82.5798 207.01 82.3477 207.818 82.3477C208.627 82.3477 209.241 82.5798 209.66 83.044C210.08 83.5081 210.289 84.0772 210.289 84.751C210.289 85.4248 210.08 85.9863 209.66 86.4356C209.241 86.8848 208.627 87.1094 207.818 87.1094C207.01 87.1094 206.396 86.8848 205.977 86.4356C205.572 85.9863 205.37 85.4248 205.37 84.751ZM220.464 91.1973L220.599 94.252C222.456 91.916 224.881 90.7481 227.876 90.7481C233.012 90.7481 235.603 93.6455 235.648 99.4404V115.5H231.492V99.418C231.477 97.666 231.073 96.3708 230.279 95.5322C229.501 94.6937 228.28 94.2744 226.618 94.2744C225.271 94.2744 224.088 94.6338 223.069 95.3525C222.051 96.0713 221.258 97.0147 220.689 98.1826V115.5H216.533V91.1973H220.464ZM240.926 103.146C240.926 99.3581 241.802 96.3483 243.554 94.1172C245.306 91.8711 247.627 90.7481 250.517 90.7481C253.482 90.7481 255.795 91.7962 257.457 93.8926L257.659 91.1973H261.455V114.916C261.455 118.061 260.519 120.539 258.648 122.351C256.791 124.162 254.29 125.068 251.146 125.068C249.394 125.068 247.679 124.694 246.002 123.945C244.325 123.197 243.045 122.171 242.161 120.868L244.318 118.375C246.099 120.576 248.278 121.677 250.854 121.677C252.875 121.677 254.447 121.108 255.57 119.97C256.708 118.832 257.277 117.229 257.277 115.163V113.074C255.615 114.991 253.347 115.949 250.472 115.949C247.627 115.949 245.321 114.804 243.554 112.513C241.802 110.222 240.926 107.1 240.926 103.146ZM245.104 103.618C245.104 106.358 245.665 108.515 246.788 110.087C247.911 111.644 249.484 112.423 251.505 112.423C254.125 112.423 256.05 111.232 257.277 108.852V97.7559C256.005 95.4349 254.095 94.2744 251.55 94.2744C249.528 94.2744 247.949 95.0606 246.811 96.6328C245.673 98.2051 245.104 100.534 245.104 103.618ZM267.609 122.014L265.251 120.396C266.659 118.435 267.392 116.413 267.452 114.332V110.581H271.518V113.838C271.518 115.35 271.143 116.863 270.395 118.375C269.661 119.887 268.733 121.1 267.609 122.014ZM304.378 106.808C304.378 105.655 303.966 104.756 303.143 104.112C302.334 103.468 300.904 102.802 298.853 102.113C296.801 101.424 295.124 100.758 293.821 100.114C289.584 98.0329 287.465 95.1729 287.465 91.5342C287.465 89.7223 287.989 88.1276 289.037 86.75C290.1 85.3574 291.598 84.2793 293.529 83.5156C295.461 82.737 297.632 82.3477 300.043 82.3477C302.394 82.3477 304.498 82.7669 306.355 83.6055C308.226 84.444 309.679 85.6419 310.712 87.1992C311.745 88.7415 312.262 90.5085 312.262 92.5H304.401C304.401 91.1673 303.989 90.1341 303.165 89.4004C302.357 88.6667 301.256 88.2998 299.863 88.2998C298.456 88.2998 297.34 88.6143 296.517 89.2432C295.708 89.8571 295.304 90.6432 295.304 91.6016C295.304 92.4401 295.753 93.2038 296.651 93.8926C297.55 94.5664 299.13 95.2702 301.391 96.0039C303.652 96.7227 305.509 97.5013 306.961 98.3399C310.495 100.376 312.262 103.184 312.262 106.763C312.262 109.623 311.184 111.869 309.027 113.501C306.871 115.133 303.914 115.949 300.155 115.949C297.505 115.949 295.102 115.478 292.945 114.534C290.804 113.576 289.187 112.273 288.094 110.626C287.016 108.964 286.477 107.055 286.477 104.898H294.383C294.383 106.65 294.832 107.946 295.731 108.784C296.644 109.608 298.119 110.02 300.155 110.02C301.458 110.02 302.484 109.743 303.233 109.188C303.996 108.619 304.378 107.826 304.378 106.808ZM322.616 85.3125V91.1973H327.153V94.4092H322.616V109.48C322.616 110.454 322.818 111.188 323.223 111.682C323.627 112.161 324.316 112.4 325.289 112.4C325.768 112.4 326.427 112.311 327.266 112.131V115.5C326.173 115.799 325.109 115.949 324.076 115.949C322.22 115.949 320.819 115.388 319.876 114.265C318.933 113.142 318.461 111.547 318.461 109.48V94.4092H314.036V91.1973H318.461V85.3125H322.616ZM347.031 115.5C346.792 115.021 346.597 114.167 346.447 112.939C344.516 114.946 342.21 115.949 339.529 115.949C337.134 115.949 335.165 115.275 333.622 113.928C332.095 112.565 331.331 110.843 331.331 108.762C331.331 106.231 332.29 104.27 334.206 102.877C336.138 101.469 338.848 100.766 342.337 100.766H346.38V98.8565C346.38 97.404 345.946 96.251 345.077 95.3975C344.209 94.529 342.929 94.0947 341.236 94.0947C339.754 94.0947 338.511 94.4691 337.508 95.2178C336.505 95.9665 336.003 96.8724 336.003 97.9356H331.825C331.825 96.7227 332.252 95.5547 333.106 94.4316C333.974 93.2936 335.142 92.3952 336.609 91.7363C338.092 91.0775 339.717 90.7481 341.484 90.7481C344.284 90.7481 346.477 91.4518 348.065 92.8594C349.652 94.252 350.475 96.1761 350.535 98.6318V109.817C350.535 112.049 350.82 113.823 351.389 115.141V115.5H347.031ZM340.136 112.333C341.439 112.333 342.674 111.996 343.842 111.322C345.01 110.648 345.856 109.772 346.38 108.694V103.708H343.123C338.032 103.708 335.486 105.198 335.486 108.178C335.486 109.48 335.921 110.499 336.789 111.232C337.658 111.966 338.773 112.333 340.136 112.333ZM356.061 103.146C356.061 99.3581 356.937 96.3483 358.689 94.1172C360.441 91.8711 362.762 90.7481 365.651 90.7481C368.616 90.7481 370.93 91.7962 372.592 93.8926L372.794 91.1973H376.59V114.916C376.59 118.061 375.654 120.539 373.782 122.351C371.926 124.162 369.425 125.068 366.28 125.068C364.528 125.068 362.814 124.694 361.137 123.945C359.46 123.197 358.179 122.171 357.296 120.868L359.452 118.375C361.234 120.576 363.413 121.677 365.988 121.677C368.01 121.677 369.582 121.108 370.705 119.97C371.843 118.832 372.412 117.229 372.412 115.163V113.074C370.75 114.991 368.482 115.949 365.607 115.949C362.762 115.949 360.456 114.804 358.689 112.513C356.937 110.222 356.061 107.1 356.061 103.146ZM360.238 103.618C360.238 106.358 360.8 108.515 361.923 110.087C363.046 111.644 364.618 112.423 366.64 112.423C369.26 112.423 371.184 111.232 372.412 108.852V97.7559C371.139 95.4349 369.23 94.2744 366.685 94.2744C364.663 94.2744 363.083 95.0606 361.945 96.6328C360.807 98.2051 360.238 100.534 360.238 103.618ZM387.394 115.5H383.238V91.1973H387.394V115.5ZM382.901 84.751C382.901 84.0772 383.104 83.5081 383.508 83.044C383.927 82.5798 384.541 82.3477 385.35 82.3477C386.158 82.3477 386.772 82.5798 387.192 83.044C387.611 83.5081 387.82 84.0772 387.82 84.751C387.82 85.4248 387.611 85.9863 387.192 86.4356C386.772 86.8848 386.158 87.1094 385.35 87.1094C384.541 87.1094 383.927 86.8848 383.508 86.4356C383.104 85.9863 382.901 85.4248 382.901 84.751ZM397.995 91.1973L398.13 94.252C399.987 91.916 402.413 90.7481 405.407 90.7481C410.543 90.7481 413.134 93.6455 413.179 99.4404V115.5H409.024V99.418C409.009 97.666 408.604 96.3708 407.811 95.5322C407.032 94.6937 405.812 94.2744 404.15 94.2744C402.802 94.2744 401.619 94.6338 400.601 95.3525C399.582 96.0713 398.789 97.0147 398.22 98.1826V115.5H394.065V91.1973H397.995ZM418.457 103.146C418.457 99.3581 419.333 96.3483 421.085 94.1172C422.837 91.8711 425.158 90.7481 428.048 90.7481C431.013 90.7481 433.326 91.7962 434.988 93.8926L435.191 91.1973H438.986V114.916C438.986 118.061 438.051 120.539 436.179 122.351C434.322 124.162 431.821 125.068 428.677 125.068C426.925 125.068 425.21 124.694 423.533 123.945C421.856 123.197 420.576 122.171 419.693 120.868L421.849 118.375C423.631 120.576 425.809 121.677 428.385 121.677C430.406 121.677 431.979 121.108 433.102 119.97C434.24 118.832 434.809 117.229 434.809 115.163V113.074C433.147 114.991 430.878 115.949 428.003 115.949C425.158 115.949 422.852 114.804 421.085 112.513C419.333 110.222 418.457 107.1 418.457 103.146ZM422.635 103.618C422.635 106.358 423.196 108.515 424.319 110.087C425.443 111.644 427.015 112.423 429.036 112.423C431.657 112.423 433.581 111.232 434.809 108.852V97.7559C433.536 95.4349 431.627 94.2744 429.081 94.2744C427.06 94.2744 425.48 95.0606 424.342 96.6328C423.204 98.2051 422.635 100.534 422.635 103.618ZM445.141 122.014L442.782 120.396C444.19 118.435 444.924 116.413 444.984 114.332V110.581H449.049V113.838C449.049 115.35 448.675 116.863 447.926 118.375C447.192 119.887 446.264 121.1 445.141 122.014ZM159.37 156.124C159.37 153.743 159.834 151.602 160.763 149.7C161.706 147.799 163.009 146.331 164.671 145.298C166.348 144.265 168.257 143.748 170.399 143.748C173.708 143.748 176.381 144.894 178.417 147.185C180.469 149.476 181.494 152.523 181.494 156.326V156.618C181.494 158.984 181.038 161.11 180.124 162.997C179.226 164.869 177.93 166.329 176.238 167.377C174.561 168.425 172.63 168.949 170.443 168.949C167.149 168.949 164.476 167.804 162.425 165.513C160.388 163.222 159.37 160.189 159.37 156.416V156.124ZM163.548 156.618C163.548 159.313 164.169 161.477 165.412 163.109C166.67 164.742 168.347 165.558 170.443 165.558C172.555 165.558 174.232 164.734 175.475 163.087C176.718 161.425 177.339 159.104 177.339 156.124C177.339 153.459 176.703 151.302 175.43 149.655C174.172 147.993 172.495 147.162 170.399 147.162C168.347 147.162 166.693 147.978 165.435 149.61C164.177 151.243 163.548 153.578 163.548 156.618ZM198.452 147.926C197.823 147.821 197.142 147.769 196.408 147.769C193.683 147.769 191.834 148.929 190.86 151.25V168.5H186.705V144.197H190.748L190.816 147.005C192.178 144.834 194.11 143.748 196.61 143.748C197.419 143.748 198.033 143.853 198.452 144.063V147.926ZM220.913 157.404V168.5H213.029V135.797H226.079C228.58 135.797 230.789 136.261 232.705 137.189C234.637 138.103 236.127 139.413 237.175 141.12C238.238 142.812 238.77 144.736 238.77 146.893C238.77 150.082 237.624 152.635 235.333 154.552C233.057 156.453 229.928 157.404 225.944 157.404H220.913ZM220.913 151.317H226.079C227.607 151.317 228.767 150.936 229.561 150.172C230.369 149.408 230.774 148.33 230.774 146.938C230.774 145.41 230.362 144.19 229.538 143.276C228.715 142.363 227.592 141.899 226.169 141.884H220.913V151.317ZM255.413 147.926C254.784 147.821 254.103 147.769 253.369 147.769C250.644 147.769 248.795 148.929 247.821 151.25V168.5H243.666V144.197H247.709L247.776 147.005C249.139 144.834 251.071 143.748 253.571 143.748C254.38 143.748 254.994 143.853 255.413 144.063V147.926ZM257.704 156.124C257.704 153.743 258.168 151.602 259.097 149.7C260.04 147.799 261.343 146.331 263.005 145.298C264.682 144.265 266.591 143.748 268.733 143.748C272.042 143.748 274.715 144.894 276.751 147.185C278.803 149.476 279.828 152.523 279.828 156.326V156.618C279.828 158.984 279.372 161.11 278.458 162.997C277.56 164.869 276.264 166.329 274.572 167.377C272.895 168.425 270.964 168.949 268.777 168.949C265.483 168.949 262.81 167.804 260.759 165.513C258.722 163.222 257.704 160.189 257.704 156.416V156.124ZM261.882 156.618C261.882 159.313 262.503 161.477 263.746 163.109C265.004 164.742 266.681 165.558 268.777 165.558C270.889 165.558 272.566 164.734 273.809 163.087C275.052 161.425 275.673 159.104 275.673 156.124C275.673 153.459 275.037 151.302 273.764 149.655C272.506 147.993 270.829 147.162 268.733 147.162C266.681 147.162 265.026 147.978 263.769 149.61C262.511 151.243 261.882 153.578 261.882 156.618ZM284.028 156.146C284.028 152.418 284.912 149.423 286.679 147.162C288.446 144.886 290.759 143.748 293.619 143.748C296.464 143.748 298.718 144.721 300.38 146.668V134H304.535V168.5H300.717L300.515 165.895C298.853 167.931 296.539 168.949 293.574 168.949C290.759 168.949 288.461 167.796 286.679 165.49C284.912 163.184 284.028 160.174 284.028 156.461V156.146ZM288.184 156.618C288.184 159.373 288.753 161.53 289.891 163.087C291.029 164.644 292.601 165.423 294.608 165.423C297.243 165.423 299.167 164.24 300.38 161.874V150.711C299.137 148.42 297.228 147.274 294.652 147.274C292.616 147.274 291.029 148.061 289.891 149.633C288.753 151.205 288.184 153.534 288.184 156.618ZM326.008 166.097C324.391 167.998 322.017 168.949 318.888 168.949C316.297 168.949 314.321 168.201 312.958 166.703C311.61 165.191 310.929 162.96 310.914 160.01V144.197H315.069V159.897C315.069 163.581 316.567 165.423 319.562 165.423C322.736 165.423 324.847 164.24 325.896 161.874V144.197H330.051V168.5H326.098L326.008 166.097ZM346.133 165.558C347.615 165.558 348.911 165.108 350.019 164.21C351.127 163.312 351.741 162.188 351.86 160.841H355.791C355.716 162.233 355.237 163.559 354.354 164.816C353.47 166.074 352.287 167.077 350.805 167.826C349.337 168.575 347.78 168.949 346.133 168.949C342.824 168.949 340.188 167.849 338.227 165.647C336.28 163.431 335.307 160.407 335.307 156.573V155.877C335.307 153.511 335.741 151.407 336.609 149.565C337.478 147.724 338.721 146.294 340.338 145.275C341.97 144.257 343.894 143.748 346.11 143.748C348.836 143.748 351.097 144.564 352.894 146.196C354.706 147.828 355.671 149.947 355.791 152.553H351.86C351.741 150.98 351.142 149.693 350.064 148.689C349 147.671 347.683 147.162 346.11 147.162C343.999 147.162 342.359 147.926 341.192 149.453C340.039 150.966 339.462 153.159 339.462 156.034V156.82C339.462 159.62 340.039 161.777 341.192 163.289C342.345 164.801 343.992 165.558 346.133 165.558ZM366.101 138.313V144.197H370.638V147.409H366.101V162.48C366.101 163.454 366.303 164.188 366.707 164.682C367.111 165.161 367.8 165.4 368.774 165.4C369.253 165.4 369.912 165.311 370.75 165.131V168.5C369.657 168.799 368.594 168.949 367.561 168.949C365.704 168.949 364.304 168.388 363.36 167.265C362.417 166.142 361.945 164.547 361.945 162.48V147.409H357.521V144.197H361.945V138.313H366.101ZM380.026 168.5H375.871V144.197H380.026V168.5ZM375.534 137.751C375.534 137.077 375.736 136.508 376.141 136.044C376.56 135.58 377.174 135.348 377.983 135.348C378.791 135.348 379.405 135.58 379.824 136.044C380.244 136.508 380.453 137.077 380.453 137.751C380.453 138.425 380.244 138.986 379.824 139.436C379.405 139.885 378.791 140.109 377.983 140.109C377.174 140.109 376.56 139.885 376.141 139.436C375.736 138.986 375.534 138.425 375.534 137.751ZM385.597 156.124C385.597 153.743 386.061 151.602 386.989 149.7C387.933 147.799 389.235 146.331 390.898 145.298C392.575 144.265 394.484 143.748 396.625 143.748C399.934 143.748 402.607 144.894 404.644 147.185C406.695 149.476 407.721 152.523 407.721 156.326V156.618C407.721 158.984 407.264 161.11 406.351 162.997C405.452 164.869 404.157 166.329 402.465 167.377C400.788 168.425 398.856 168.949 396.67 168.949C393.376 168.949 390.703 167.804 388.651 165.513C386.615 163.222 385.597 160.189 385.597 156.416V156.124ZM389.775 156.618C389.775 159.313 390.396 161.477 391.639 163.109C392.897 164.742 394.574 165.558 396.67 165.558C398.781 165.558 400.458 164.734 401.701 163.087C402.944 161.425 403.566 159.104 403.566 156.124C403.566 153.459 402.929 151.302 401.656 149.655C400.399 147.993 398.721 147.162 396.625 147.162C394.574 147.162 392.919 147.978 391.661 149.61C390.403 151.243 389.775 153.578 389.775 156.618ZM416.862 144.197L416.997 147.252C418.854 144.916 421.28 143.748 424.275 143.748C429.411 143.748 432.001 146.646 432.046 152.44V168.5H427.891V152.418C427.876 150.666 427.471 149.371 426.678 148.532C425.899 147.694 424.679 147.274 423.017 147.274C421.669 147.274 420.486 147.634 419.468 148.353C418.45 149.071 417.656 150.015 417.087 151.183V168.5H412.932V144.197H416.862ZM447.903 155.45C447.903 158.789 447.462 161.994 446.578 165.063C445.71 168.118 444.37 170.941 442.558 173.531C440.761 176.122 438.874 177.964 436.898 179.057L436.022 176.519C438.328 174.752 440.177 172.011 441.569 168.298C442.977 164.569 443.696 160.437 443.726 155.899V155.181C443.726 152.036 443.396 149.116 442.737 146.421C442.079 143.711 441.158 141.285 439.975 139.144C438.807 137.002 437.489 135.333 436.022 134.135L436.898 131.597C438.874 132.69 440.753 134.517 442.535 137.077C444.332 139.638 445.672 142.46 446.556 145.545C447.454 148.63 447.903 151.931 447.903 155.45Z" fill="white"/>
<path d="M638.014 172.243H592.88M541.036 137.929V172.243H592.88M592.88 137.929V172.243" stroke="white" stroke-width="3"/>
<path d="M566.638 110.005L577.985 98.3517L636.874 97.4129" stroke="white" stroke-width="3"/>
<path d="M587.732 81.7882L636.874 32.6462" stroke="white" stroke-width="3"/>
<path d="M466.339 174.496L466.339 71.3325M466.339 27.9159L466.339 71.3325M466.339 71.3325L500.601 71.3325" stroke="white" stroke-width="3"/>
</svg>
