<svg width="819" height="199" viewBox="0 0 819 199" fill="none" xmlns="http://www.w3.org/2000/svg">
<circle cx="52.2451" cy="107.317" r="51.3745" fill="#05FF00"/>
<circle cx="52.2451" cy="107.317" r="46.8745" stroke="black" stroke-opacity="0.75" stroke-width="9"/>
<rect x="47.9756" y="107.317" width="55.6441" height="51.3745" fill="#05FF00"/>
<rect x="52.4756" y="111.817" width="46.6441" height="42.3745" stroke="black" stroke-opacity="0.75" stroke-width="9"/>
<rect x="0.870605" y="107.317" width="55.1278" height="51.3745" fill="#05FF00"/>
<rect x="5.37061" y="111.817" width="46.1278" height="42.3745" stroke="black" stroke-opacity="0.75" stroke-width="9"/>
<rect x="27.6597" y="112.182" width="34.7694" height="34.7694" transform="rotate(-45 27.6597 112.182)" fill="#05FF00"/>
<rect x="32.6094" y="112.182" width="27.7694" height="27.7694" transform="rotate(-45 32.6094 112.182)" stroke="black" stroke-opacity="0.75" stroke-width="7"/>
<path d="M163.771 29.3147C160.073 28.2515 157.378 26.9488 155.686 25.4065C154.008 23.8492 153.17 21.9325 153.17 19.6565C153.17 17.081 154.196 14.9547 156.247 13.2776C158.313 11.5855 160.994 10.7395 164.288 10.7395C166.534 10.7395 168.533 11.1737 170.285 12.0422C172.052 12.9107 173.415 14.1086 174.373 15.636C175.346 17.1633 175.833 18.8329 175.833 20.6448H171.498C171.498 18.6682 170.869 17.1184 169.611 15.9953C168.354 14.8573 166.579 14.2883 164.288 14.2883C162.162 14.2883 160.5 14.76 159.302 15.7034C158.119 16.6317 157.527 17.927 157.527 19.5891C157.527 20.9218 158.089 22.0523 159.212 22.9807C160.35 23.8941 162.274 24.7327 164.984 25.4963C167.71 26.26 169.836 27.106 171.363 28.0344C172.906 28.9478 174.044 30.0185 174.777 31.2463C175.526 32.4742 175.9 33.9192 175.9 35.5813C175.9 38.2317 174.867 40.358 172.801 41.9602C170.734 43.5474 167.972 44.341 164.513 44.341C162.267 44.341 160.17 43.9143 158.224 43.0608C156.277 42.1923 154.772 41.0093 153.709 39.5119C152.661 38.0146 152.137 36.315 152.137 34.4133H156.472C156.472 36.3899 157.198 37.9547 158.65 39.1077C160.118 40.2457 162.072 40.8147 164.513 40.8147C166.789 40.8147 168.533 40.3505 169.746 39.4221C170.959 38.4937 171.565 37.2284 171.565 35.6262C171.565 34.024 171.004 32.7886 169.881 31.9202C168.758 31.0367 166.721 30.1682 163.771 29.3147ZM185.312 43.8918H181.156V19.5891H185.312V43.8918ZM180.819 13.1428C180.819 12.469 181.021 11.9 181.426 11.4358C181.845 10.9716 182.459 10.7395 183.268 10.7395C184.076 10.7395 184.69 10.9716 185.109 11.4358C185.529 11.9 185.738 12.469 185.738 13.1428C185.738 13.8166 185.529 14.3782 185.109 14.8274C184.69 15.2766 184.076 15.5012 183.268 15.5012C182.459 15.5012 181.845 15.2766 181.426 14.8274C181.021 14.3782 180.819 13.8166 180.819 13.1428ZM197.62 13.7043V19.5891H202.157V22.801H197.62V37.8723C197.62 38.8456 197.822 39.5793 198.227 40.0735C198.631 40.5526 199.32 40.7922 200.293 40.7922C200.772 40.7922 201.431 40.7024 202.27 40.5227V43.8918C201.176 44.1913 200.113 44.341 199.08 44.341C197.223 44.341 195.823 43.7795 194.88 42.6565C193.937 41.5334 193.465 39.9387 193.465 37.8723V22.801H189.04V19.5891H193.465V13.7043H197.62ZM217.116 44.341C213.822 44.341 211.142 43.2629 209.075 41.1067C207.009 38.9355 205.976 36.038 205.976 32.4143V31.6506C205.976 29.2398 206.432 27.091 207.346 25.2043C208.274 23.3026 209.562 21.8202 211.209 20.7571C212.871 19.6789 214.668 19.1399 216.6 19.1399C219.759 19.1399 222.215 20.1806 223.967 22.2619C225.719 24.3433 226.595 27.3231 226.595 31.2014V32.9309H210.131C210.191 35.3267 210.887 37.2659 212.22 38.7483C213.567 40.2157 215.274 40.9494 217.341 40.9494C218.808 40.9494 220.051 40.65 221.069 40.051C222.088 39.4521 222.979 38.6584 223.742 37.6702L226.28 39.6467C224.244 42.7763 221.189 44.341 217.116 44.341ZM216.6 22.5539C214.923 22.5539 213.515 23.1679 212.377 24.3957C211.239 25.6086 210.535 27.3157 210.266 29.5168H222.439V29.2024C222.32 27.091 221.751 25.4589 220.732 24.3059C219.714 23.1379 218.337 22.5539 216.6 22.5539ZM232.255 46.6994H228.684L242.34 11.1887H245.889L232.255 46.6994ZM264.531 37.4455C264.531 36.3225 264.104 35.454 263.251 34.8401C262.412 34.2112 260.938 33.6721 258.826 33.2229C256.73 32.7737 255.06 32.2346 253.817 31.6057C252.59 30.9768 251.676 30.2281 251.077 29.3596C250.493 28.4911 250.201 27.4579 250.201 26.26C250.201 24.2685 251.04 22.5839 252.717 21.2063C254.409 19.8287 256.565 19.1399 259.186 19.1399C261.941 19.1399 264.172 19.8511 265.879 21.2737C267.601 22.6962 268.462 24.5155 268.462 26.7317H264.284C264.284 25.5937 263.798 24.6129 262.824 23.7893C261.866 22.9657 260.653 22.5539 259.186 22.5539C257.673 22.5539 256.49 22.8834 255.637 23.5422C254.783 24.2011 254.356 25.0621 254.356 26.1252C254.356 27.1285 254.753 27.8847 255.547 28.3938C256.34 28.9029 257.771 29.3896 259.837 29.8537C261.918 30.3179 263.603 30.872 264.891 31.5159C266.178 32.1597 267.129 32.9384 267.743 33.8518C268.372 34.7502 268.687 35.8508 268.687 37.1535C268.687 39.3248 267.818 41.0692 266.081 42.3869C264.344 43.6897 262.09 44.341 259.32 44.341C257.374 44.341 255.652 43.9966 254.154 43.3078C252.657 42.619 251.481 41.6607 250.628 40.4328C249.789 39.19 249.37 37.8498 249.37 36.4123H253.525C253.6 37.8049 254.154 38.913 255.188 39.7366C256.236 40.5452 257.613 40.9494 259.32 40.9494C260.893 40.9494 262.15 40.635 263.094 40.0061C264.052 39.3622 264.531 38.5087 264.531 37.4455ZM284.185 44.341C280.89 44.341 278.21 43.2629 276.144 41.1067C274.077 38.9355 273.044 36.038 273.044 32.4143V31.6506C273.044 29.2398 273.501 27.091 274.414 25.2043C275.342 23.3026 276.63 21.8202 278.277 20.7571C279.939 19.6789 281.736 19.1399 283.668 19.1399C286.827 19.1399 289.283 20.1806 291.035 22.2619C292.787 24.3433 293.663 27.3231 293.663 31.2014V32.9309H277.199C277.259 35.3267 277.955 37.2659 279.288 38.7483C280.636 40.2157 282.343 40.9494 284.409 40.9494C285.877 40.9494 287.119 40.65 288.138 40.051C289.156 39.4521 290.047 38.6584 290.811 37.6702L293.349 39.6467C291.312 42.7763 288.257 44.341 284.185 44.341ZM283.668 22.5539C281.991 22.5539 280.583 23.1679 279.445 24.3957C278.307 25.6086 277.604 27.3157 277.334 29.5168H289.508V29.2024C289.388 27.091 288.819 25.4589 287.801 24.3059C286.783 23.1379 285.405 22.5539 283.668 22.5539ZM310.239 23.3176C309.61 23.2128 308.929 23.1604 308.195 23.1604C305.47 23.1604 303.621 24.3209 302.647 26.6418V43.8918H298.492V19.5891H302.535L302.603 22.3967C303.965 20.2255 305.897 19.1399 308.397 19.1399C309.206 19.1399 309.82 19.2447 310.239 19.4543V23.3176ZM322.503 38.2541L328.522 19.5891H332.768L324.053 43.8918H320.886L312.081 19.5891H316.326L322.503 38.2541ZM341.28 43.8918H337.125V19.5891H341.28V43.8918ZM336.788 13.1428C336.788 12.469 336.99 11.9 337.395 11.4358C337.814 10.9716 338.428 10.7395 339.236 10.7395C340.045 10.7395 340.659 10.9716 341.078 11.4358C341.497 11.9 341.707 12.469 341.707 13.1428C341.707 13.8166 341.497 14.3782 341.078 14.8274C340.659 15.2766 340.045 15.5012 339.236 15.5012C338.428 15.5012 337.814 15.2766 337.395 14.8274C336.99 14.3782 336.788 13.8166 336.788 13.1428ZM357.699 40.9494C359.182 40.9494 360.477 40.5002 361.585 39.6018C362.693 38.7034 363.307 37.5803 363.427 36.2327H367.357C367.283 37.6252 366.803 38.9504 365.92 40.2082C365.036 41.466 363.854 42.4693 362.371 43.218C360.904 43.9667 359.346 44.341 357.699 44.341C354.39 44.341 351.755 43.2405 349.793 41.0393C347.846 38.8231 346.873 35.7984 346.873 31.9651V31.2688C346.873 28.9029 347.307 26.7991 348.176 24.9573C349.044 23.1155 350.287 21.6855 351.904 20.6672C353.536 19.649 355.461 19.1399 357.677 19.1399C360.402 19.1399 362.663 19.956 364.46 21.5881C366.272 23.2203 367.238 25.3391 367.357 27.9446H363.427C363.307 26.3723 362.708 25.0845 361.63 24.0813C360.567 23.0631 359.249 22.5539 357.677 22.5539C355.565 22.5539 353.926 23.3176 352.758 24.845C351.605 26.3573 351.028 28.551 351.028 31.426V32.2121C351.028 35.0123 351.605 37.1685 352.758 38.6809C353.911 40.1933 355.558 40.9494 357.699 40.9494ZM382.114 44.341C378.82 44.341 376.14 43.2629 374.073 41.1067C372.007 38.9355 370.974 36.038 370.974 32.4143V31.6506C370.974 29.2398 371.43 27.091 372.344 25.2043C373.272 23.3026 374.56 21.8202 376.207 20.7571C377.869 19.6789 379.666 19.1399 381.598 19.1399C384.757 19.1399 387.213 20.1806 388.965 22.2619C390.717 24.3433 391.593 27.3231 391.593 31.2014V32.9309H375.129C375.189 35.3267 375.885 37.2659 377.218 38.7483C378.565 40.2157 380.272 40.9494 382.339 40.9494C383.806 40.9494 385.049 40.65 386.067 40.051C387.086 39.4521 387.977 38.6584 388.74 37.6702L391.278 39.6467C389.242 42.7763 386.187 44.341 382.114 44.341ZM381.598 22.5539C379.921 22.5539 378.513 23.1679 377.375 24.3957C376.237 25.6086 375.533 27.3157 375.264 29.5168H387.438V29.2024C387.318 27.091 386.749 25.4589 385.73 24.3059C384.712 23.1379 383.335 22.5539 381.598 22.5539Z" fill="white"/>
<path d="M158.471 111.95H173.969V115.476H154.136V82.7728H158.471V111.95ZM193.24 115.476C193.001 114.997 192.806 114.143 192.656 112.915C190.725 114.922 188.419 115.925 185.738 115.925C183.342 115.925 181.373 115.251 179.831 113.904C178.304 112.541 177.54 110.819 177.54 108.738C177.54 106.207 178.498 104.245 180.415 102.853C182.347 101.445 185.057 100.742 188.546 100.742H192.589V98.8324C192.589 97.3799 192.155 96.2269 191.286 95.3734C190.418 94.5049 189.137 94.0706 187.445 94.0706C185.963 94.0706 184.72 94.445 183.717 95.1937C182.714 95.9424 182.212 96.8483 182.212 97.9115H178.034C178.034 96.6986 178.461 95.5306 179.314 94.4076C180.183 93.2695 181.351 92.3711 182.818 91.7122C184.301 91.0534 185.925 90.724 187.692 90.724C190.493 90.724 192.686 91.4277 194.273 92.8353C195.861 94.2279 196.684 96.152 196.744 98.6078V109.793C196.744 112.024 197.029 113.799 197.598 115.117V115.476H193.24ZM186.345 112.309C187.647 112.309 188.883 111.972 190.051 111.298C191.219 110.624 192.065 109.748 192.589 108.67V103.684H189.332C184.241 103.684 181.695 105.174 181.695 108.154C181.695 109.456 182.13 110.475 182.998 111.208C183.867 111.942 184.982 112.309 186.345 112.309ZM217.408 109.03C217.408 107.907 216.981 107.038 216.128 106.424C215.289 105.795 213.814 105.256 211.703 104.807C209.607 104.358 207.937 103.819 206.694 103.19C205.466 102.561 204.553 101.812 203.954 100.944C203.37 100.075 203.078 99.042 203.078 97.8441C203.078 95.8525 203.917 94.168 205.594 92.7904C207.286 91.4128 209.442 90.724 212.062 90.724C214.818 90.724 217.049 91.4352 218.756 92.8578C220.478 94.2803 221.339 96.0996 221.339 98.3158H217.161C217.161 97.1777 216.674 96.197 215.701 95.3734C214.743 94.5498 213.53 94.138 212.062 94.138C210.55 94.138 209.367 94.4675 208.514 95.1263C207.66 95.7852 207.233 96.6462 207.233 97.7093C207.233 98.7126 207.63 99.4688 208.424 99.9779C209.217 100.487 210.647 100.974 212.714 101.438C214.795 101.902 216.48 102.456 217.768 103.1C219.055 103.744 220.006 104.522 220.62 105.436C221.249 106.334 221.563 107.435 221.563 108.738C221.563 110.909 220.695 112.653 218.958 113.971C217.221 115.274 214.967 115.925 212.197 115.925C210.251 115.925 208.529 115.581 207.031 114.892C205.534 114.203 204.358 113.245 203.505 112.017C202.666 110.774 202.247 109.434 202.247 107.996H206.402C206.477 109.389 207.031 110.497 208.064 111.321C209.113 112.129 210.49 112.534 212.197 112.534C213.77 112.534 215.027 112.219 215.971 111.59C216.929 110.946 217.408 110.093 217.408 109.03ZM232.614 85.2884V91.1732H237.151V94.3851H232.614V109.456C232.614 110.43 232.816 111.163 233.221 111.658C233.625 112.137 234.314 112.376 235.287 112.376C235.766 112.376 236.425 112.286 237.264 112.107V115.476C236.171 115.775 235.107 115.925 234.074 115.925C232.217 115.925 230.817 115.364 229.874 114.241C228.931 113.118 228.459 111.523 228.459 109.456V94.3851H224.034V91.1732H228.459V85.2884H232.614ZM267.788 82.7728H272.123V105.93C272.123 109.06 271.18 111.508 269.293 113.275C267.421 115.042 264.921 115.925 261.791 115.925C258.542 115.925 256.011 115.094 254.199 113.432C252.387 111.77 251.481 109.441 251.481 106.447H255.794C255.794 108.318 256.303 109.778 257.321 110.827C258.354 111.875 259.844 112.399 261.791 112.399C263.573 112.399 265.01 111.837 266.104 110.714C267.212 109.591 267.773 108.019 267.788 105.997V82.7728ZM288.901 115.925C285.607 115.925 282.927 114.847 280.86 112.691C278.794 110.52 277.761 107.622 277.761 103.998V103.235C277.761 100.824 278.217 98.6751 279.131 96.7884C280.059 94.8867 281.347 93.4043 282.994 92.3412C284.656 91.263 286.453 90.724 288.385 90.724C291.544 90.724 294 91.7647 295.752 93.846C297.504 95.9274 298.38 98.9072 298.38 102.785V104.515H281.916C281.976 106.911 282.672 108.85 284.005 110.332C285.353 111.8 287.06 112.534 289.126 112.534C290.593 112.534 291.836 112.234 292.854 111.635C293.873 111.036 294.764 110.243 295.527 109.254L298.065 111.231C296.029 114.36 292.974 115.925 288.901 115.925ZM288.385 94.138C286.708 94.138 285.3 94.752 284.162 95.9798C283.024 97.1927 282.32 98.8997 282.051 101.101H294.225V100.786C294.105 98.6751 293.536 97.043 292.518 95.89C291.499 94.722 290.122 94.138 288.385 94.138ZM307.14 91.1732L307.274 94.2279C309.131 91.8919 311.557 90.724 314.552 90.724C319.688 90.724 322.278 93.6214 322.323 99.4164V115.476H318.168V99.3939C318.153 97.6419 317.749 96.3467 316.955 95.5081C316.176 94.6696 314.956 94.2503 313.294 94.2503C311.946 94.2503 310.763 94.6097 309.745 95.3285C308.727 96.0472 307.933 96.9906 307.364 98.1585V115.476H303.209V91.1732H307.14ZM335.373 104.223L332.768 106.941V115.476H328.612V80.9759H332.768V101.842L334.991 99.1693L342.561 91.1732H347.614L338.158 101.326L348.715 115.476H343.841L335.373 104.223ZM356.419 115.476H352.264V91.1732H356.419V115.476ZM351.927 84.7269C351.927 84.0531 352.129 83.4841 352.533 83.0199C352.952 82.5557 353.566 82.3236 354.375 82.3236C355.184 82.3236 355.798 82.5557 356.217 83.0199C356.636 83.4841 356.846 84.0531 356.846 84.7269C356.846 85.4007 356.636 85.9622 356.217 86.4115C355.798 86.8607 355.184 87.0853 354.375 87.0853C353.566 87.0853 352.952 86.8607 352.533 86.4115C352.129 85.9622 351.927 85.4007 351.927 84.7269ZM367.021 91.1732L367.155 94.2279C369.012 91.8919 371.438 90.724 374.433 90.724C379.569 90.724 382.159 93.6214 382.204 99.4164V115.476H378.049V99.3939C378.034 97.6419 377.63 96.3467 376.836 95.5081C376.057 94.6696 374.837 94.2503 373.175 94.2503C371.827 94.2503 370.644 94.6097 369.626 95.3285C368.608 96.0472 367.814 96.9906 367.245 98.1585V115.476H363.09V91.1732H367.021ZM402.621 109.03C402.621 107.907 402.194 107.038 401.341 106.424C400.502 105.795 399.027 105.256 396.916 104.807C394.82 104.358 393.15 103.819 391.907 103.19C390.679 102.561 389.766 101.812 389.167 100.944C388.583 100.075 388.291 99.042 388.291 97.8441C388.291 95.8525 389.13 94.168 390.807 92.7904C392.499 91.4128 394.655 90.724 397.275 90.724C400.031 90.724 402.262 91.4352 403.969 92.8578C405.691 94.2803 406.552 96.0996 406.552 98.3158H402.374C402.374 97.1777 401.887 96.197 400.914 95.3734C399.956 94.5498 398.743 94.138 397.275 94.138C395.763 94.138 394.58 94.4675 393.727 95.1263C392.873 95.7852 392.446 96.6462 392.446 97.7093C392.446 98.7126 392.843 99.4688 393.637 99.9779C394.43 100.487 395.86 100.974 397.927 101.438C400.008 101.902 401.693 102.456 402.98 103.1C404.268 103.744 405.219 104.522 405.833 105.436C406.462 106.334 406.776 107.435 406.776 108.738C406.776 110.909 405.908 112.653 404.171 113.971C402.434 115.274 400.18 115.925 397.41 115.925C395.464 115.925 393.742 115.581 392.244 114.892C390.747 114.203 389.571 113.245 388.718 112.017C387.879 110.774 387.46 109.434 387.46 107.996H391.615C391.69 109.389 392.244 110.497 393.277 111.321C394.326 112.129 395.703 112.534 397.41 112.534C398.982 112.534 400.24 112.219 401.184 111.59C402.142 110.946 402.621 110.093 402.621 109.03ZM444.174 103.594C444.174 107.308 443.32 110.295 441.613 112.556C439.906 114.802 437.615 115.925 434.74 115.925C431.671 115.925 429.297 114.84 427.62 112.668L427.418 115.476H423.6V80.9759H427.755V93.846C429.432 91.7647 431.745 90.724 434.695 90.724C437.645 90.724 439.959 91.8395 441.636 94.0706C443.328 96.3018 444.174 99.3565 444.174 103.235V103.594ZM440.019 103.122C440.019 100.292 439.472 98.1061 438.379 96.5638C437.286 95.0215 435.714 94.2503 433.662 94.2503C430.922 94.2503 428.953 95.5231 427.755 98.0687V108.58C429.028 111.126 431.012 112.399 433.707 112.399C435.699 112.399 437.248 111.628 438.356 110.085C439.465 108.543 440.019 106.222 440.019 103.122ZM464.434 113.073C462.816 114.974 460.443 115.925 457.313 115.925C454.723 115.925 452.746 115.176 451.384 113.679C450.036 112.167 449.355 109.936 449.34 106.986V91.1732H453.495V106.873C453.495 110.557 454.993 112.399 457.987 112.399C461.162 112.399 463.273 111.216 464.321 108.85V91.1732H468.477V115.476H464.523L464.434 113.073ZM479.325 115.476H475.17V91.1732H479.325V115.476ZM474.833 84.7269C474.833 84.0531 475.035 83.4841 475.439 83.0199C475.859 82.5557 476.473 82.3236 477.281 82.3236C478.09 82.3236 478.704 82.5557 479.123 83.0199C479.542 83.4841 479.752 84.0531 479.752 84.7269C479.752 85.4007 479.542 85.9622 479.123 86.4115C478.704 86.8607 478.09 87.0853 477.281 87.0853C476.473 87.0853 475.859 86.8607 475.439 86.4115C475.035 85.9622 474.833 85.4007 474.833 84.7269ZM490.511 115.476H486.355V80.9759H490.511V115.476ZM496.171 103.122C496.171 99.3939 497.054 96.3991 498.821 94.138C500.588 91.862 502.902 90.724 505.762 90.724C508.607 90.724 510.86 91.6973 512.522 93.6439V80.9759H516.678V115.476H512.859L512.657 112.87C510.995 114.907 508.682 115.925 505.717 115.925C502.902 115.925 500.603 114.772 498.821 112.466C497.054 110.16 496.171 107.15 496.171 103.437V103.122ZM500.326 103.594C500.326 106.349 500.895 108.506 502.033 110.063C503.171 111.62 504.743 112.399 506.75 112.399C509.385 112.399 511.31 111.216 512.522 108.85V97.6869C511.28 95.3958 509.37 94.2503 506.795 94.2503C504.758 94.2503 503.171 95.0365 502.033 96.6087C500.895 98.181 500.326 100.509 500.326 103.594ZM534.399 102.202C534.399 98.8174 534.849 95.568 535.747 92.4535C536.66 89.3389 538.016 86.5088 539.812 83.9632C541.609 81.4177 543.474 79.6208 545.405 78.5726L546.259 81.3128C544.073 82.9899 542.276 85.5505 540.868 88.9945C539.476 92.4385 538.712 96.2943 538.577 100.562L538.555 102.471C538.555 108.251 539.61 113.267 541.722 117.52C542.994 120.065 544.507 122.057 546.259 123.494L545.405 126.033C543.414 124.924 541.512 123.068 539.7 120.462C536.166 115.371 534.399 109.284 534.399 102.202ZM554.794 115.476H550.639V91.1732H554.794V115.476ZM550.302 84.7269C550.302 84.0531 550.504 83.4841 550.908 83.0199C551.327 82.5557 551.941 82.3236 552.75 82.3236C553.559 82.3236 554.173 82.5557 554.592 83.0199C555.011 83.4841 555.221 84.0531 555.221 84.7269C555.221 85.4007 555.011 85.9622 554.592 86.4115C554.173 86.8607 553.559 87.0853 552.75 87.0853C551.941 87.0853 551.327 86.8607 550.908 86.4115C550.504 85.9622 550.302 85.4007 550.302 84.7269ZM563.509 115.476V94.3851H559.668V91.1732H563.509V88.68C563.509 86.0746 564.205 84.0606 565.598 82.638C566.99 81.2155 568.959 80.5042 571.505 80.5042C572.463 80.5042 573.414 80.6315 574.357 80.8861L574.133 84.2552C573.429 84.1205 572.68 84.0531 571.887 84.0531C570.539 84.0531 569.498 84.4499 568.765 85.2435C568.031 86.0221 567.664 87.1452 567.664 88.6126V91.1732H572.853V94.3851H567.664V115.476H563.509ZM603.871 115.476C603.632 114.997 603.437 114.143 603.287 112.915C601.355 114.922 599.049 115.925 596.369 115.925C593.973 115.925 592.004 115.251 590.462 113.904C588.935 112.541 588.171 110.819 588.171 108.738C588.171 106.207 589.129 104.245 591.046 102.853C592.978 101.445 595.688 100.742 599.177 100.742H603.22V98.8324C603.22 97.3799 602.785 96.2269 601.917 95.3734C601.049 94.5049 599.768 94.0706 598.076 94.0706C596.594 94.0706 595.351 94.445 594.348 95.1937C593.344 95.9424 592.843 96.8483 592.843 97.9115H588.665C588.665 96.6986 589.092 95.5306 589.945 94.4076C590.814 93.2695 591.982 92.3711 593.449 91.7122C594.932 91.0534 596.556 90.724 598.323 90.724C601.123 90.724 603.317 91.4277 604.904 92.8353C606.492 94.2279 607.315 96.152 607.375 98.6078V109.793C607.375 112.024 607.66 113.799 608.229 115.117V115.476H603.871ZM596.976 112.309C598.278 112.309 599.514 111.972 600.682 111.298C601.85 110.624 602.696 109.748 603.22 108.67V103.684H599.963C594.872 103.684 592.326 105.174 592.326 108.154C592.326 109.456 592.76 110.475 593.629 111.208C594.497 111.942 595.613 112.309 596.976 112.309ZM634.418 103.594C634.418 107.293 633.572 110.272 631.88 112.534C630.188 114.795 627.897 115.925 625.007 115.925C622.057 115.925 619.736 114.989 618.044 113.118V124.82H613.889V91.1732H617.685L617.887 93.8685C619.579 91.7721 621.93 90.724 624.939 90.724C627.859 90.724 630.165 91.8246 631.857 94.0257C633.564 96.2269 634.418 99.2891 634.418 103.212V103.594ZM630.263 103.122C630.263 100.382 629.679 98.2184 628.511 96.6312C627.343 95.044 625.741 94.2503 623.704 94.2503C621.188 94.2503 619.302 95.3659 618.044 97.597V109.209C619.287 111.425 621.188 112.534 623.749 112.534C625.741 112.534 627.32 111.747 628.488 110.175C629.671 108.588 630.263 106.237 630.263 103.122ZM660.248 103.594C660.248 107.293 659.402 110.272 657.71 112.534C656.018 114.795 653.727 115.925 650.837 115.925C647.887 115.925 645.566 114.989 643.874 113.118V124.82H639.719V91.1732H643.515L643.717 93.8685C645.409 91.7721 647.76 90.724 650.77 90.724C653.689 90.724 655.995 91.8246 657.688 94.0257C659.395 96.2269 660.248 99.2891 660.248 103.212V103.594ZM656.093 103.122C656.093 100.382 655.509 98.2184 654.341 96.6312C653.173 95.044 651.571 94.2503 649.534 94.2503C647.019 94.2503 645.132 95.3659 643.874 97.597V109.209C645.117 111.425 647.019 112.534 649.579 112.534C651.571 112.534 653.15 111.747 654.318 110.175C655.501 108.588 656.093 106.237 656.093 103.122ZM670.063 115.476H665.908V80.9759H670.063V115.476ZM681.249 115.476H677.094V91.1732H681.249V115.476ZM676.757 84.7269C676.757 84.0531 676.959 83.4841 677.363 83.0199C677.783 82.5557 678.396 82.3236 679.205 82.3236C680.014 82.3236 680.628 82.5557 681.047 83.0199C681.466 83.4841 681.676 84.0531 681.676 84.7269C681.676 85.4007 681.466 85.9622 681.047 86.4115C680.628 86.8607 680.014 87.0853 679.205 87.0853C678.396 87.0853 677.783 86.8607 677.363 86.4115C676.959 85.9622 676.757 85.4007 676.757 84.7269ZM697.668 112.534C699.15 112.534 700.446 112.084 701.554 111.186C702.662 110.287 703.276 109.164 703.396 107.817H707.326C707.251 109.209 706.772 110.535 705.889 111.792C705.005 113.05 703.822 114.053 702.34 114.802C700.872 115.551 699.315 115.925 697.668 115.925C694.359 115.925 691.723 114.825 689.762 112.623C687.815 110.407 686.842 107.382 686.842 103.549V102.853C686.842 100.487 687.276 98.3831 688.145 96.5414C689.013 94.6996 690.256 93.2695 691.873 92.2513C693.505 91.2331 695.429 90.724 697.646 90.724C700.371 90.724 702.632 91.54 704.429 93.1722C706.241 94.8044 707.206 96.9232 707.326 99.5287H703.396C703.276 97.9564 702.677 96.6686 701.599 95.6654C700.535 94.6471 699.218 94.138 697.646 94.138C695.534 94.138 693.895 94.9017 692.727 96.429C691.574 97.9414 690.997 100.135 690.997 103.01V103.796C690.997 106.596 691.574 108.753 692.727 110.265C693.88 111.777 695.527 112.534 697.668 112.534ZM727.002 115.476C726.762 114.997 726.568 114.143 726.418 112.915C724.486 114.922 722.18 115.925 719.5 115.925C717.104 115.925 715.135 115.251 713.593 113.904C712.065 112.541 711.302 110.819 711.302 108.738C711.302 106.207 712.26 104.245 714.177 102.853C716.108 101.445 718.819 100.742 722.308 100.742H726.351V98.8324C726.351 97.3799 725.916 96.2269 725.048 95.3734C724.179 94.5049 722.899 94.0706 721.207 94.0706C719.725 94.0706 718.482 94.445 717.479 95.1937C716.475 95.9424 715.974 96.8483 715.974 97.9115H711.796C711.796 96.6986 712.223 95.5306 713.076 94.4076C713.945 93.2695 715.113 92.3711 716.58 91.7122C718.062 91.0534 719.687 90.724 721.454 90.724C724.254 90.724 726.448 91.4277 728.035 92.8353C729.622 94.2279 730.446 96.152 730.506 98.6078V109.793C730.506 112.024 730.79 113.799 731.359 115.117V115.476H727.002ZM720.106 112.309C721.409 112.309 722.645 111.972 723.812 111.298C724.98 110.624 725.826 109.748 726.351 108.67V103.684H723.094C718.003 103.684 715.457 105.174 715.457 108.154C715.457 109.456 715.891 110.475 716.76 111.208C717.628 111.942 718.744 112.309 720.106 112.309ZM757.594 103.594C757.594 107.308 756.74 110.295 755.033 112.556C753.326 114.802 751.035 115.925 748.16 115.925C745.09 115.925 742.717 114.84 741.04 112.668L740.838 115.476H737.02V80.9759H741.175V93.846C742.852 91.7647 745.165 90.724 748.115 90.724C751.065 90.724 753.379 91.8395 755.056 94.0706C756.748 96.3018 757.594 99.3565 757.594 103.235V103.594ZM753.438 103.122C753.438 100.292 752.892 98.1061 751.799 96.5638C750.706 95.0215 749.133 94.2503 747.082 94.2503C744.342 94.2503 742.373 95.5231 741.175 98.0687V108.58C742.448 111.126 744.432 112.399 747.127 112.399C749.118 112.399 750.668 111.628 751.776 110.085C752.884 108.543 753.438 106.222 753.438 103.122ZM767.364 115.476H763.209V80.9759H767.364V115.476ZM784.12 115.925C780.826 115.925 778.146 114.847 776.079 112.691C774.013 110.52 772.979 107.622 772.979 103.998V103.235C772.979 100.824 773.436 98.6751 774.35 96.7884C775.278 94.8867 776.566 93.4043 778.213 92.3412C779.875 91.263 781.672 90.724 783.604 90.724C786.763 90.724 789.219 91.7647 790.971 93.846C792.723 95.9274 793.599 98.9072 793.599 102.785V104.515H777.135C777.195 106.911 777.891 108.85 779.224 110.332C780.571 111.8 782.278 112.534 784.345 112.534C785.812 112.534 787.055 112.234 788.073 111.635C789.091 111.036 789.982 110.243 790.746 109.254L793.284 111.231C791.248 114.36 788.193 115.925 784.12 115.925ZM783.604 94.138C781.926 94.138 780.519 94.752 779.381 95.9798C778.243 97.1927 777.539 98.8997 777.27 101.101H789.443V100.786C789.324 98.6751 788.755 97.043 787.736 95.89C786.718 94.722 785.34 94.138 783.604 94.138ZM808.019 102.426C808.019 105.765 807.577 108.97 806.693 112.039C805.825 115.094 804.485 117.917 802.673 120.507C800.876 123.098 798.989 124.939 797.013 126.033L796.137 123.494C798.443 121.728 800.292 118.987 801.685 115.274C803.092 111.545 803.811 107.412 803.841 102.875V102.157C803.841 99.0121 803.511 96.0921 802.853 93.3968C802.194 90.6865 801.273 88.2608 800.09 86.1195C798.922 83.9782 797.604 82.3086 796.137 81.1107L797.013 78.5726C798.989 79.6657 800.868 81.4925 802.65 84.0531C804.447 86.6136 805.787 89.4362 806.671 92.5208C807.569 95.6055 808.019 98.9072 808.019 102.426Z" fill="white"/>
<path d="M163.771 172.483C160.073 171.42 157.378 170.117 155.686 168.575C154.008 167.017 153.17 165.101 153.17 162.825C153.17 160.249 154.196 158.123 156.247 156.446C158.313 154.754 160.994 153.908 164.288 153.908C166.534 153.908 168.533 154.342 170.285 155.21C172.052 156.079 173.415 157.277 174.373 158.804C175.346 160.331 175.833 162.001 175.833 163.813H171.498C171.498 161.836 170.869 160.287 169.611 159.164C168.354 158.025 166.579 157.456 164.288 157.456C162.162 157.456 160.5 157.928 159.302 158.872C158.119 159.8 157.527 161.095 157.527 162.757C157.527 164.09 158.089 165.22 159.212 166.149C160.35 167.062 162.274 167.901 164.984 168.664C167.71 169.428 169.836 170.274 171.363 171.203C172.906 172.116 174.044 173.187 174.777 174.414C175.526 175.642 175.9 177.087 175.9 178.749C175.9 181.4 174.867 183.526 172.801 185.128C170.734 186.716 167.972 187.509 164.513 187.509C162.267 187.509 160.17 187.082 158.224 186.229C156.277 185.36 154.772 184.178 153.709 182.68C152.661 181.183 152.137 179.483 152.137 177.581H156.472C156.472 179.558 157.198 181.123 158.65 182.276C160.118 183.414 162.072 183.983 164.513 183.983C166.789 183.983 168.533 183.519 169.746 182.59C170.959 181.662 171.565 180.397 171.565 178.794C171.565 177.192 171.004 175.957 169.881 175.088C168.758 174.205 166.721 173.336 163.771 172.483ZM190.882 187.509C187.588 187.509 184.907 186.431 182.841 184.275C180.774 182.104 179.741 179.206 179.741 175.582V174.819C179.741 172.408 180.198 170.259 181.111 168.372C182.04 166.471 183.327 164.988 184.975 163.925C186.637 162.847 188.434 162.308 190.365 162.308C193.525 162.308 195.98 163.349 197.732 165.43C199.484 167.511 200.36 170.491 200.36 174.37V176.099H183.896C183.956 178.495 184.653 180.434 185.985 181.916C187.333 183.384 189.04 184.118 191.106 184.118C192.574 184.118 193.817 183.818 194.835 183.219C195.853 182.62 196.744 181.827 197.508 180.838L200.046 182.815C198.009 185.944 194.955 187.509 190.882 187.509ZM190.365 165.722C188.688 165.722 187.281 166.336 186.143 167.564C185.005 168.777 184.301 170.484 184.031 172.685H196.205V172.371C196.085 170.259 195.516 168.627 194.498 167.474C193.48 166.306 192.102 165.722 190.365 165.722ZM216.937 166.486C216.308 166.381 215.626 166.329 214.893 166.329C212.167 166.329 210.318 167.489 209.345 169.81V187.06H205.189V162.757H209.232L209.3 165.565C210.662 163.394 212.594 162.308 215.095 162.308C215.903 162.308 216.517 162.413 216.937 162.622V166.486ZM229.2 181.422L235.22 162.757H239.465L230.75 187.06H227.583L218.778 162.757H223.023L229.2 181.422ZM253.233 187.509C249.939 187.509 247.259 186.431 245.192 184.275C243.126 182.104 242.093 179.206 242.093 175.582V174.819C242.093 172.408 242.549 170.259 243.463 168.372C244.391 166.471 245.679 164.988 247.326 163.925C248.988 162.847 250.785 162.308 252.717 162.308C255.876 162.308 258.332 163.349 260.084 165.43C261.836 167.511 262.712 170.491 262.712 174.37V176.099H246.248C246.308 178.495 247.004 180.434 248.337 181.916C249.685 183.384 251.392 184.118 253.458 184.118C254.925 184.118 256.168 183.818 257.187 183.219C258.205 182.62 259.096 181.827 259.859 180.838L262.397 182.815C260.361 185.944 257.306 187.509 253.233 187.509ZM252.717 165.722C251.04 165.722 249.632 166.336 248.494 167.564C247.356 168.777 246.652 170.484 246.383 172.685H258.557V172.371C258.437 170.259 257.868 168.627 256.85 167.474C255.831 166.306 254.454 165.722 252.717 165.722ZM279.288 166.486C278.659 166.381 277.978 166.329 277.244 166.329C274.519 166.329 272.67 167.489 271.696 169.81V187.06H267.541V162.757H271.584L271.651 165.565C273.014 163.394 274.946 162.308 277.446 162.308C278.255 162.308 278.869 162.413 279.288 162.622V166.486ZM297.279 180.614C297.279 179.491 296.853 178.622 295.999 178.008C295.16 177.379 293.686 176.84 291.574 176.391C289.478 175.942 287.808 175.403 286.565 174.774C285.338 174.145 284.424 173.396 283.825 172.528C283.241 171.659 282.949 170.626 282.949 169.428C282.949 167.437 283.788 165.752 285.465 164.374C287.157 162.997 289.313 162.308 291.934 162.308C294.689 162.308 296.92 163.019 298.627 164.442C300.349 165.864 301.21 167.684 301.21 169.9H297.032C297.032 168.762 296.546 167.781 295.572 166.957C294.614 166.134 293.401 165.722 291.934 165.722C290.421 165.722 289.238 166.052 288.385 166.71C287.531 167.369 287.104 168.23 287.104 169.293C287.104 170.297 287.501 171.053 288.295 171.562C289.089 172.071 290.519 172.558 292.585 173.022C294.666 173.486 296.351 174.04 297.639 174.684C298.926 175.328 299.877 176.107 300.491 177.02C301.12 177.918 301.435 179.019 301.435 180.322C301.435 182.493 300.566 184.237 298.829 185.555C297.092 186.858 294.839 187.509 292.068 187.509C290.122 187.509 288.4 187.165 286.902 186.476C285.405 185.787 284.229 184.829 283.376 183.601C282.537 182.358 282.118 181.018 282.118 179.581H286.273C286.348 180.973 286.902 182.081 287.936 182.905C288.984 183.713 290.361 184.118 292.068 184.118C293.641 184.118 294.898 183.803 295.842 183.174C296.8 182.53 297.279 181.677 297.279 180.614ZM323.896 156.872V162.757H328.433V165.969H323.896V181.04C323.896 182.014 324.098 182.747 324.502 183.242C324.906 183.721 325.595 183.96 326.568 183.96C327.048 183.96 327.706 183.871 328.545 183.691V187.06C327.452 187.359 326.389 187.509 325.355 187.509C323.499 187.509 322.099 186.948 321.155 185.825C320.212 184.702 319.74 183.107 319.74 181.04V165.969H315.315V162.757H319.74V156.872H323.896ZM337.462 165.7C339.304 163.439 341.7 162.308 344.649 162.308C349.785 162.308 352.376 165.206 352.421 171V187.06H348.266V170.978C348.251 169.226 347.846 167.931 347.053 167.092C346.274 166.254 345.054 165.834 343.392 165.834C342.044 165.834 340.861 166.194 339.843 166.913C338.825 167.631 338.031 168.575 337.462 169.743V187.06H333.307V152.56H337.462V165.7ZM373.646 187.06C373.407 186.581 373.212 185.727 373.062 184.499C371.131 186.506 368.825 187.509 366.145 187.509C363.749 187.509 361.78 186.835 360.237 185.488C358.71 184.125 357.946 182.403 357.946 180.322C357.946 177.791 358.905 175.83 360.821 174.437C362.753 173.029 365.463 172.326 368.952 172.326H372.995V170.416C372.995 168.964 372.561 167.811 371.692 166.957C370.824 166.089 369.544 165.655 367.852 165.655C366.369 165.655 365.126 166.029 364.123 166.778C363.12 167.526 362.618 168.432 362.618 169.496H358.44C358.44 168.283 358.867 167.115 359.721 165.992C360.589 164.854 361.757 163.955 363.225 163.296C364.707 162.637 366.332 162.308 368.099 162.308C370.899 162.308 373.092 163.012 374.68 164.419C376.267 165.812 377.09 167.736 377.15 170.192V181.377C377.15 183.609 377.435 185.383 378.004 186.701V187.06H373.646ZM366.751 183.893C368.054 183.893 369.289 183.556 370.457 182.882C371.625 182.208 372.471 181.332 372.995 180.254V175.268H369.738C364.647 175.268 362.102 176.758 362.102 179.738C362.102 181.04 362.536 182.059 363.404 182.792C364.273 183.526 365.388 183.893 366.751 183.893ZM389.302 156.872V162.757H393.839V165.969H389.302V181.04C389.302 182.014 389.504 182.747 389.908 183.242C390.312 183.721 391.001 183.96 391.975 183.96C392.454 183.96 393.113 183.871 393.951 183.691V187.06C392.858 187.359 391.795 187.509 390.762 187.509C388.905 187.509 387.505 186.948 386.562 185.825C385.618 184.702 385.146 183.107 385.146 181.04V165.969H380.722V162.757H385.146V156.872H389.302ZM416.906 175.807L414.301 178.525V187.06H410.146V152.56H414.301V173.426L416.524 170.753L424.094 162.757H429.147L419.691 172.91L430.248 187.06H425.374L416.906 175.807ZM443.073 187.509C439.779 187.509 437.099 186.431 435.032 184.275C432.966 182.104 431.933 179.206 431.933 175.582V174.819C431.933 172.408 432.389 170.259 433.303 168.372C434.231 166.471 435.519 164.988 437.166 163.925C438.828 162.847 440.625 162.308 442.557 162.308C445.716 162.308 448.172 163.349 449.924 165.43C451.676 167.511 452.552 170.491 452.552 174.37V176.099H436.088C436.148 178.495 436.844 180.434 438.177 181.916C439.524 183.384 441.231 184.118 443.298 184.118C444.765 184.118 446.008 183.818 447.026 183.219C448.045 182.62 448.936 181.827 449.699 180.838L452.237 182.815C450.201 185.944 447.146 187.509 443.073 187.509ZM442.557 165.722C440.88 165.722 439.472 166.336 438.334 167.564C437.196 168.777 436.492 170.484 436.223 172.685H448.396V172.371C448.277 170.259 447.708 168.627 446.689 167.474C445.671 166.306 444.294 165.722 442.557 165.722ZM467.466 187.509C464.172 187.509 461.491 186.431 459.425 184.275C457.358 182.104 456.325 179.206 456.325 175.582V174.819C456.325 172.408 456.782 170.259 457.695 168.372C458.624 166.471 459.911 164.988 461.559 163.925C463.221 162.847 465.018 162.308 466.949 162.308C470.109 162.308 472.564 163.349 474.316 165.43C476.068 167.511 476.944 170.491 476.944 174.37V176.099H460.48C460.54 178.495 461.237 180.434 462.569 181.916C463.917 183.384 465.624 184.118 467.69 184.118C469.158 184.118 470.401 183.818 471.419 183.219C472.437 182.62 473.328 181.827 474.092 180.838L476.63 182.815C474.593 185.944 471.539 187.509 467.466 187.509ZM466.949 165.722C465.272 165.722 463.865 166.336 462.727 167.564C461.589 168.777 460.885 170.484 460.615 172.685H472.789V172.371C472.669 170.259 472.1 168.627 471.082 167.474C470.064 166.306 468.686 165.722 466.949 165.722ZM502.303 175.178C502.303 178.877 501.457 181.857 499.765 184.118C498.073 186.379 495.782 187.509 492.892 187.509C489.942 187.509 487.621 186.573 485.929 184.702V196.404H481.773V162.757H485.569L485.771 165.453C487.464 163.356 489.814 162.308 492.824 162.308C495.744 162.308 498.05 163.409 499.742 165.61C501.449 167.811 502.303 170.873 502.303 174.796V175.178ZM498.147 174.706C498.147 171.966 497.563 169.803 496.396 168.215C495.228 166.628 493.625 165.834 491.589 165.834C489.073 165.834 487.187 166.95 485.929 169.181V180.793C487.172 183.01 489.073 184.118 491.634 184.118C493.625 184.118 495.205 183.331 496.373 181.759C497.556 180.172 498.147 177.821 498.147 174.706ZM524.651 156.872V162.757H529.188V165.969H524.651V181.04C524.651 182.014 524.854 182.747 525.258 183.242C525.662 183.721 526.351 183.96 527.324 183.96C527.803 183.96 528.462 183.871 529.301 183.691V187.06C528.208 187.359 527.145 187.509 526.111 187.509C524.255 187.509 522.854 186.948 521.911 185.825C520.968 184.702 520.496 183.107 520.496 181.04V165.969H516.071V162.757H520.496V156.872H524.651ZM538.218 165.7C540.06 163.439 542.455 162.308 545.405 162.308C550.541 162.308 553.132 165.206 553.177 171V187.06H549.021V170.978C549.007 169.226 548.602 167.931 547.809 167.092C547.03 166.254 545.81 165.834 544.147 165.834C542.8 165.834 541.617 166.194 540.599 166.913C539.58 167.631 538.787 168.575 538.218 169.743V187.06H534.062V152.56H538.218V165.7ZM569.483 187.509C566.189 187.509 563.509 186.431 561.442 184.275C559.376 182.104 558.343 179.206 558.343 175.582V174.819C558.343 172.408 558.799 170.259 559.713 168.372C560.641 166.471 561.929 164.988 563.576 163.925C565.238 162.847 567.035 162.308 568.967 162.308C572.126 162.308 574.582 163.349 576.334 165.43C578.086 167.511 578.962 170.491 578.962 174.37V176.099H562.498C562.558 178.495 563.254 180.434 564.587 181.916C565.935 183.384 567.642 184.118 569.708 184.118C571.175 184.118 572.418 183.818 573.437 183.219C574.455 182.62 575.346 181.827 576.109 180.838L578.647 182.815C576.611 185.944 573.556 187.509 569.483 187.509ZM568.967 165.722C567.29 165.722 565.882 166.336 564.744 167.564C563.606 168.777 562.902 170.484 562.633 172.685H574.807V172.371C574.687 170.259 574.118 168.627 573.1 167.474C572.081 166.306 570.704 165.722 568.967 165.722ZM609.352 180.614C609.352 179.491 608.925 178.622 608.071 178.008C607.233 177.379 605.758 176.84 603.646 176.391C601.55 175.942 599.881 175.403 598.638 174.774C597.41 174.145 596.496 173.396 595.897 172.528C595.313 171.659 595.021 170.626 595.021 169.428C595.021 167.437 595.86 165.752 597.537 164.374C599.229 162.997 601.385 162.308 604.006 162.308C606.761 162.308 608.992 163.019 610.699 164.442C612.421 165.864 613.282 167.684 613.282 169.9H609.104C609.104 168.762 608.618 167.781 607.645 166.957C606.686 166.134 605.473 165.722 604.006 165.722C602.493 165.722 601.311 166.052 600.457 166.71C599.604 167.369 599.177 168.23 599.177 169.293C599.177 170.297 599.574 171.053 600.367 171.562C601.161 172.071 602.591 172.558 604.657 173.022C606.739 173.486 608.423 174.04 609.711 174.684C610.999 175.328 611.95 176.107 612.563 177.02C613.192 177.918 613.507 179.019 613.507 180.322C613.507 182.493 612.638 184.237 610.901 185.555C609.164 186.858 606.911 187.509 604.141 187.509C602.194 187.509 600.472 187.165 598.975 186.476C597.477 185.787 596.302 184.829 595.448 183.601C594.61 182.358 594.19 181.018 594.19 179.581H598.346C598.421 180.973 598.975 182.081 600.008 182.905C601.056 183.713 602.434 184.118 604.141 184.118C605.713 184.118 606.971 183.803 607.914 183.174C608.872 182.53 609.352 181.677 609.352 180.614ZM629.005 187.509C625.711 187.509 623.03 186.431 620.964 184.275C618.897 182.104 617.864 179.206 617.864 175.582V174.819C617.864 172.408 618.321 170.259 619.234 168.372C620.163 166.471 621.451 164.988 623.098 163.925C624.76 162.847 626.557 162.308 628.488 162.308C631.648 162.308 634.104 163.349 635.855 165.43C637.607 167.511 638.483 170.491 638.483 174.37V176.099H622.02C622.079 178.495 622.776 180.434 624.108 181.916C625.456 183.384 627.163 184.118 629.229 184.118C630.697 184.118 631.94 183.818 632.958 183.219C633.976 182.62 634.867 181.827 635.631 180.838L638.169 182.815C636.132 185.944 633.078 187.509 629.005 187.509ZM628.488 165.722C626.811 165.722 625.404 166.336 624.266 167.564C623.128 168.777 622.424 170.484 622.154 172.685H634.328V172.371C634.208 170.259 633.639 168.627 632.621 167.474C631.603 166.306 630.225 165.722 628.488 165.722ZM655.06 166.486C654.431 166.381 653.749 166.329 653.016 166.329C650.29 166.329 648.441 167.489 647.468 169.81V187.06H643.312V162.757H647.355L647.423 165.565C648.785 163.394 650.717 162.308 653.218 162.308C654.026 162.308 654.64 162.413 655.06 162.622V166.486ZM667.323 181.422L673.343 162.757H677.588L668.873 187.06H665.706L656.901 162.757H661.146L667.323 181.422ZM686.101 187.06H681.945V162.757H686.101V187.06ZM681.608 156.311C681.608 155.637 681.811 155.068 682.215 154.604C682.634 154.14 683.248 153.908 684.057 153.908C684.865 153.908 685.479 154.14 685.898 154.604C686.318 155.068 686.527 155.637 686.527 156.311C686.527 156.985 686.318 157.546 685.898 157.996C685.479 158.445 684.865 158.669 684.057 158.669C683.248 158.669 682.634 158.445 682.215 157.996C681.811 157.546 681.608 156.985 681.608 156.311ZM702.52 184.118C704.002 184.118 705.297 183.668 706.405 182.77C707.513 181.872 708.127 180.748 708.247 179.401H712.178C712.103 180.793 711.624 182.119 710.74 183.376C709.857 184.634 708.674 185.637 707.191 186.386C705.724 187.135 704.167 187.509 702.52 187.509C699.21 187.509 696.575 186.409 694.613 184.207C692.667 181.991 691.693 178.967 691.693 175.133V174.437C691.693 172.071 692.128 169.967 692.996 168.125C693.865 166.284 695.107 164.854 696.725 163.835C698.357 162.817 700.281 162.308 702.497 162.308C705.222 162.308 707.483 163.124 709.28 164.756C711.092 166.388 712.058 168.507 712.178 171.113H708.247C708.127 169.54 707.528 168.253 706.45 167.249C705.387 166.231 704.069 165.722 702.497 165.722C700.386 165.722 698.746 166.486 697.578 168.013C696.425 169.525 695.849 171.719 695.849 174.594V175.38C695.849 178.18 696.425 180.337 697.578 181.849C698.731 183.361 700.378 184.118 702.52 184.118ZM726.935 187.509C723.64 187.509 720.96 186.431 718.894 184.275C716.827 182.104 715.794 179.206 715.794 175.582V174.819C715.794 172.408 716.251 170.259 717.164 168.372C718.092 166.471 719.38 164.988 721.027 163.925C722.689 162.847 724.486 162.308 726.418 162.308C729.577 162.308 732.033 163.349 733.785 165.43C735.537 167.511 736.413 170.491 736.413 174.37V176.099H719.949C720.009 178.495 720.705 180.434 722.038 181.916C723.386 183.384 725.093 184.118 727.159 184.118C728.627 184.118 729.869 183.818 730.888 183.219C731.906 182.62 732.797 181.827 733.561 180.838L736.099 182.815C734.062 185.944 731.007 187.509 726.935 187.509ZM726.418 165.722C724.741 165.722 723.333 166.336 722.195 167.564C721.057 168.777 720.354 170.484 720.084 172.685H732.258V172.371C732.138 170.259 731.569 168.627 730.551 167.474C729.533 166.306 728.155 165.722 726.418 165.722ZM757.167 187.06H753.012V152.56H757.167V187.06ZM768.353 187.06H764.197V162.757H768.353V187.06ZM763.86 156.311C763.86 155.637 764.062 155.068 764.467 154.604C764.886 154.14 765.5 153.908 766.309 153.908C767.117 153.908 767.731 154.14 768.15 154.604C768.57 155.068 768.779 155.637 768.779 156.311C768.779 156.985 768.57 157.546 768.15 157.996C767.731 158.445 767.117 158.669 766.309 158.669C765.5 158.669 764.886 158.445 764.467 157.996C764.062 157.546 763.86 156.985 763.86 156.311ZM783.042 181.422L789.062 162.757H793.307L784.592 187.06H781.425L772.62 162.757H776.865L783.042 181.422ZM807.075 187.509C803.781 187.509 801.101 186.431 799.034 184.275C796.968 182.104 795.935 179.206 795.935 175.582V174.819C795.935 172.408 796.391 170.259 797.305 168.372C798.233 166.471 799.521 164.988 801.168 163.925C802.83 162.847 804.627 162.308 806.559 162.308C809.718 162.308 812.174 163.349 813.926 165.43C815.678 167.511 816.554 170.491 816.554 174.37V176.099H800.09C800.15 178.495 800.846 180.434 802.179 181.916C803.526 183.384 805.233 184.118 807.3 184.118C808.767 184.118 810.01 183.818 811.028 183.219C812.047 182.62 812.938 181.827 813.701 180.838L816.239 182.815C814.203 185.944 811.148 187.509 807.075 187.509ZM806.559 165.722C804.882 165.722 803.474 166.336 802.336 167.564C801.198 168.777 800.494 170.484 800.225 172.685H812.398V172.371C812.279 170.259 811.71 168.627 810.691 167.474C809.673 166.306 808.296 165.722 806.559 165.722Z" fill="white"/>
<path d="M138.537 27.8918H32.8806V87.596" stroke="white" stroke-width="3"/>
<path d="M124.637 172.219H79.5036M27.6597 137.905V172.219H79.5036M79.5036 137.905V172.219" stroke="white" stroke-width="3"/>
<path d="M53.2914 110.01L66.4052 96.5311L135.579 96.5311" stroke="white" stroke-width="3"/>
</svg>
